<?xml version="1.0" encoding="UTF-8"?>
<svg xmlns="http://www.w3.org/2000/svg" xmlns:xlink="http://www.w3.org/1999/xlink" width="335.9" height="222.53" viewBox="0 0 335.9 222.53">
<defs>
<g>
<g id="glyph-0-0">
<path d="M 6.671875 -0.59375 L 6.671875 -1.3125 C 6.671875 -1.578125 6.671875 -1.90625 6.21875 -1.90625 C 5.734375 -1.90625 5.734375 -1.59375 5.734375 -1.3125 L 5.734375 -0.828125 L 1.84375 -0.828125 L 6.390625 -5.21875 C 6.5625 -5.375 6.625 -5.4375 6.625 -5.703125 C 6.625 -6.171875 6.3125 -6.171875 6.046875 -6.171875 L 1.28125 -6.171875 C 0.796875 -6.171875 0.6875 -6.046875 0.6875 -5.578125 L 0.6875 -5.015625 C 0.6875 -4.75 0.6875 -4.421875 1.140625 -4.421875 C 1.625 -4.421875 1.625 -4.734375 1.625 -5.015625 L 1.625 -5.34375 L 5.234375 -5.34375 L 0.6875 -0.9375 C 0.515625 -0.78125 0.453125 -0.734375 0.453125 -0.46875 C 0.453125 0 0.765625 0 1.046875 0 L 6.09375 0 C 6.5625 0 6.671875 -0.125 6.671875 -0.59375 Z M 6.671875 -0.59375 "/>
</g>
<g id="glyph-0-1">
<path d="M 6.3125 -0.421875 C 6.3125 -0.828125 5.9375 -0.828125 5.734375 -0.828125 L 4.328125 -0.828125 L 4.328125 -5.578125 C 4.328125 -6.03125 4.234375 -6.171875 3.75 -6.171875 L 1.859375 -6.171875 C 1.65625 -6.171875 1.28125 -6.171875 1.28125 -5.75 C 1.28125 -5.34375 1.65625 -5.34375 1.859375 -5.34375 L 3.390625 -5.34375 L 3.390625 -0.828125 L 1.765625 -0.828125 C 1.5625 -0.828125 1.171875 -0.828125 1.171875 -0.421875 C 1.171875 0 1.5625 0 1.765625 0 L 5.734375 0 C 5.9375 0 6.3125 0 6.3125 -0.421875 Z M 4.328125 -7.953125 C 4.328125 -8.3125 4.03125 -8.609375 3.671875 -8.609375 C 3.328125 -8.609375 3.03125 -8.3125 3.03125 -7.953125 C 3.03125 -7.59375 3.328125 -7.3125 3.671875 -7.3125 C 4.03125 -7.3125 4.328125 -7.59375 4.328125 -7.953125 Z M 4.328125 -7.953125 "/>
</g>
<g id="glyph-0-2">
<path d="M 6.828125 -3.09375 C 6.828125 -4.859375 5.625 -6.25 4.140625 -6.25 C 3.09375 -6.25 2.4375 -5.625 2.296875 -5.484375 C 2.296875 -5.953125 2.296875 -6.171875 1.734375 -6.171875 L 0.78125 -6.171875 C 0.59375 -6.171875 0.21875 -6.171875 0.21875 -5.75 C 0.21875 -5.34375 0.59375 -5.34375 0.78125 -5.34375 L 1.375 -5.34375 L 1.375 2.34375 L 0.78125 2.34375 C 0.59375 2.34375 0.21875 2.34375 0.21875 2.765625 C 0.21875 3.171875 0.59375 3.171875 0.78125 3.171875 L 2.890625 3.171875 C 3.09375 3.171875 3.46875 3.171875 3.46875 2.765625 C 3.46875 2.34375 3.09375 2.34375 2.890625 2.34375 L 2.296875 2.34375 L 2.296875 -0.71875 C 2.640625 -0.328125 3.171875 0.078125 3.984375 0.078125 C 5.5 0.078125 6.828125 -1.28125 6.828125 -3.09375 Z M 5.890625 -3.09375 C 5.890625 -1.71875 4.921875 -0.75 3.90625 -0.75 C 2.828125 -0.75 2.296875 -1.953125 2.296875 -2.671875 L 2.296875 -3.8125 C 2.296875 -4.625 3.109375 -5.421875 4.03125 -5.421875 C 5.0625 -5.421875 5.890625 -4.375 5.890625 -3.09375 Z M 5.890625 -3.09375 "/>
</g>
<g id="glyph-0-3">
<path d="M 6.53125 -1.5625 C 6.53125 -1.640625 6.5 -1.953125 6.046875 -1.953125 C 5.78125 -1.953125 5.703125 -1.859375 5.609375 -1.640625 C 5.25 -0.8125 4.328125 -0.75 4.046875 -0.75 C 2.859375 -0.75 1.921875 -1.640625 1.765625 -2.75 L 5.953125 -2.75 C 6.25 -2.75 6.53125 -2.75 6.53125 -3.28125 C 6.53125 -4.953125 5.578125 -6.296875 3.796875 -6.296875 C 2.125 -6.296875 0.796875 -4.859375 0.796875 -3.125 C 0.796875 -1.3125 2.25 0.078125 4 0.078125 C 5.859375 0.078125 6.53125 -1.1875 6.53125 -1.5625 Z M 5.578125 -3.53125 L 1.78125 -3.53125 C 1.953125 -4.75 2.890625 -5.46875 3.796875 -5.46875 C 5.21875 -5.46875 5.53125 -4.25 5.578125 -3.53125 Z M 5.578125 -3.53125 "/>
</g>
<g id="glyph-0-4">
<path d="M 7.140625 -0.421875 C 7.140625 -0.828125 6.765625 -0.828125 6.5625 -0.828125 L 5.984375 -0.828125 L 5.984375 -8.15625 C 5.984375 -8.609375 5.890625 -8.75 5.40625 -8.75 L 4.46875 -8.75 C 4.265625 -8.75 3.890625 -8.75 3.890625 -8.328125 C 3.890625 -7.921875 4.265625 -7.921875 4.46875 -7.921875 L 5.046875 -7.921875 L 5.046875 -5.53125 C 4.828125 -5.765625 4.234375 -6.25 3.359375 -6.25 C 1.84375 -6.25 0.53125 -4.875 0.53125 -3.078125 C 0.53125 -1.3125 1.765625 0.078125 3.234375 0.078125 C 4.171875 0.078125 4.78125 -0.46875 5.046875 -0.78125 C 5.046875 -0.1875 5.046875 0 5.625 0 L 6.5625 0 C 6.765625 0 7.140625 0 7.140625 -0.421875 Z M 5.046875 -2.71875 C 5.046875 -1.921875 4.390625 -0.75 3.328125 -0.75 C 2.296875 -0.75 1.453125 -1.796875 1.453125 -3.078125 C 1.453125 -4.453125 2.4375 -5.421875 3.453125 -5.421875 C 4.375 -5.421875 5.046875 -4.578125 5.046875 -3.828125 Z M 5.046875 -2.71875 "/>
</g>
<g id="glyph-0-5">
<path d="M 4.5 -0.796875 C 4.5 -1.28125 4.109375 -1.625 3.6875 -1.625 C 3.234375 -1.625 2.875 -1.265625 2.875 -0.796875 C 2.875 -0.375 3.25 0 3.671875 0 C 4.15625 0 4.5 -0.390625 4.5 -0.796875 Z M 4.5 -0.796875 "/>
</g>
<g id="glyph-1-0">
<path d="M 4.796875 -1.65625 C 4.796875 -2.34375 4.3125 -2.984375 3.515625 -3.1875 C 4.140625 -3.40625 4.578125 -3.921875 4.578125 -4.53125 C 4.578125 -5.25 3.96875 -6.078125 2.875 -6.078125 L 0.625 -6.078125 C 0.484375 -6.078125 0.234375 -6.078125 0.234375 -5.78125 C 0.234375 -5.46875 0.484375 -5.46875 0.640625 -5.46875 L 0.90625 -5.46875 L 0.90625 -0.609375 L 0.640625 -0.609375 C 0.484375 -0.609375 0.234375 -0.609375 0.234375 -0.296875 C 0.234375 0 0.484375 0 0.625 0 L 3.078125 0 C 4.1875 0 4.796875 -0.890625 4.796875 -1.65625 Z M 3.890625 -4.515625 C 3.890625 -4.109375 3.578125 -3.453125 2.609375 -3.453125 L 1.59375 -3.453125 L 1.59375 -5.46875 L 2.828125 -5.46875 C 3.671875 -5.46875 3.890625 -4.84375 3.890625 -4.515625 Z M 4.109375 -1.671875 C 4.109375 -1.1875 3.71875 -0.609375 2.859375 -0.609375 L 1.59375 -0.609375 L 1.59375 -2.859375 L 2.96875 -2.859375 C 3.8125 -2.859375 4.109375 -2.125 4.109375 -1.671875 Z M 4.109375 -1.671875 "/>
</g>
<g id="glyph-1-1">
<path d="M 4.609375 -1.078125 C 4.609375 -1.359375 4.328125 -1.359375 4.265625 -1.359375 C 4.078125 -1.359375 4 -1.328125 3.9375 -1.140625 C 3.71875 -0.640625 3.1875 -0.546875 2.90625 -0.546875 C 2.15625 -0.546875 1.40625 -1.046875 1.25 -1.890625 L 4.21875 -1.890625 C 4.421875 -1.890625 4.609375 -1.890625 4.609375 -2.265625 C 4.609375 -3.40625 3.96875 -4.375 2.6875 -4.375 C 1.5 -4.375 0.546875 -3.375 0.546875 -2.15625 C 0.546875 -0.9375 1.546875 0.0625 2.828125 0.0625 C 4.140625 0.0625 4.609375 -0.828125 4.609375 -1.078125 Z M 3.90625 -2.5 L 1.265625 -2.5 C 1.40625 -3.21875 1.984375 -3.765625 2.6875 -3.765625 C 3.203125 -3.765625 3.8125 -3.515625 3.90625 -2.5 Z M 3.90625 -2.5 "/>
</g>
<g id="glyph-1-2">
<path d="M 5.15625 -0.3125 C 5.15625 -0.609375 4.90625 -0.609375 4.765625 -0.609375 C 4.34375 -0.609375 4.25 -0.65625 4.15625 -0.6875 L 4.15625 -2.828125 C 4.15625 -3.53125 3.625 -4.375 2.203125 -4.375 C 1.765625 -4.375 0.75 -4.375 0.75 -3.640625 C 0.75 -3.34375 0.96875 -3.1875 1.203125 -3.1875 C 1.34375 -3.1875 1.625 -3.28125 1.640625 -3.640625 C 1.640625 -3.734375 1.65625 -3.734375 1.84375 -3.75 C 1.984375 -3.765625 2.109375 -3.765625 2.203125 -3.765625 C 2.96875 -3.765625 3.484375 -3.453125 3.484375 -2.75 C 1.71875 -2.71875 0.5 -2.21875 0.5 -1.265625 C 0.5 -0.59375 1.125 0.0625 2.140625 0.0625 C 2.5 0.0625 3.125 -0.015625 3.59375 -0.3125 C 3.8125 -0.015625 4.28125 0 4.65625 0 C 4.9375 0 5.15625 0 5.15625 -0.3125 Z M 3.484375 -1.328125 C 3.484375 -1.109375 3.484375 -0.890625 3.09375 -0.71875 C 2.734375 -0.546875 2.28125 -0.546875 2.203125 -0.546875 C 1.59375 -0.546875 1.1875 -0.890625 1.1875 -1.265625 C 1.1875 -1.765625 2.03125 -2.125 3.484375 -2.171875 Z M 3.484375 -1.328125 "/>
</g>
<g id="glyph-1-3">
<path d="M 5.09375 -0.3125 C 5.09375 -0.609375 4.828125 -0.609375 4.6875 -0.609375 L 4.25 -0.609375 L 4.25 -3.875 C 4.25 -4.1875 4.1875 -4.28125 3.84375 -4.28125 L 3.125 -4.28125 C 2.96875 -4.28125 2.71875 -4.28125 2.71875 -3.96875 C 2.71875 -3.671875 2.96875 -3.671875 3.109375 -3.671875 L 3.5625 -3.671875 L 3.5625 -1.5625 C 3.5625 -0.671875 2.75 -0.546875 2.4375 -0.546875 C 1.65625 -0.546875 1.65625 -0.875 1.65625 -1.1875 L 1.65625 -3.875 C 1.65625 -4.1875 1.59375 -4.28125 1.25 -4.28125 L 0.53125 -4.28125 C 0.375 -4.28125 0.125 -4.28125 0.125 -3.96875 C 0.125 -3.671875 0.375 -3.671875 0.515625 -3.671875 L 0.96875 -3.671875 L 0.96875 -1.140625 C 0.96875 -0.171875 1.65625 0.0625 2.375 0.0625 C 2.78125 0.0625 3.1875 -0.046875 3.5625 -0.3125 C 3.5625 0 3.78125 0 3.953125 0 L 4.6875 0 C 4.84375 0 5.09375 0 5.09375 -0.3125 Z M 5.09375 -0.3125 "/>
</g>
<g id="glyph-1-4">
<path d="M 4.46875 -1.25 C 4.46875 -1.4375 4.46875 -1.640625 4.109375 -1.640625 C 3.78125 -1.640625 3.78125 -1.4375 3.78125 -1.265625 C 3.765625 -0.640625 3.203125 -0.546875 2.96875 -0.546875 C 2.203125 -0.546875 2.203125 -1.0625 2.203125 -1.3125 L 2.203125 -3.671875 L 3.828125 -3.671875 C 3.984375 -3.671875 4.234375 -3.671875 4.234375 -3.96875 C 4.234375 -4.28125 4 -4.28125 3.828125 -4.28125 L 2.203125 -4.28125 L 2.203125 -5.09375 C 2.203125 -5.28125 2.203125 -5.5 1.875 -5.5 C 1.515625 -5.5 1.515625 -5.296875 1.515625 -5.09375 L 1.515625 -4.28125 L 0.65625 -4.28125 C 0.5 -4.28125 0.25 -4.28125 0.25 -3.96875 C 0.25 -3.671875 0.5 -3.671875 0.640625 -3.671875 L 1.515625 -3.671875 L 1.515625 -1.25 C 1.515625 -0.296875 2.203125 0.0625 2.921875 0.0625 C 3.65625 0.0625 4.46875 -0.375 4.46875 -1.25 Z M 4.46875 -1.25 "/>
</g>
<g id="glyph-1-5">
<path d="M 4.515625 -0.296875 C 4.515625 -0.609375 4.265625 -0.609375 4.109375 -0.609375 L 3.078125 -0.609375 L 3.078125 -3.875 C 3.078125 -4.1875 3.015625 -4.28125 2.671875 -4.28125 L 1.265625 -4.28125 C 1.109375 -4.28125 0.859375 -4.28125 0.859375 -3.984375 C 0.859375 -3.671875 1.109375 -3.671875 1.265625 -3.671875 L 2.390625 -3.671875 L 2.390625 -0.609375 L 1.1875 -0.609375 C 1.03125 -0.609375 0.78125 -0.609375 0.78125 -0.296875 C 0.78125 0 1.03125 0 1.1875 0 L 4.109375 0 C 4.265625 0 4.515625 0 4.515625 -0.296875 Z M 3.109375 -5.515625 C 3.109375 -5.796875 2.890625 -6.015625 2.609375 -6.015625 C 2.328125 -6.015625 2.109375 -5.796875 2.109375 -5.515625 C 2.109375 -5.234375 2.328125 -5.015625 2.609375 -5.015625 C 2.890625 -5.015625 3.109375 -5.234375 3.109375 -5.515625 Z M 3.109375 -5.515625 "/>
</g>
<g id="glyph-1-6">
<path d="M 4.34375 -5.53125 C 4.34375 -6.125 3.546875 -6.125 3.390625 -6.125 C 2.59375 -6.125 1.828125 -5.671875 1.828125 -4.8125 L 1.828125 -4.28125 L 0.828125 -4.28125 C 0.671875 -4.28125 0.421875 -4.28125 0.421875 -3.96875 C 0.421875 -3.671875 0.671875 -3.671875 0.828125 -3.671875 L 1.828125 -3.671875 L 1.828125 -0.609375 L 0.828125 -0.609375 C 0.671875 -0.609375 0.421875 -0.609375 0.421875 -0.3125 C 0.421875 0 0.671875 0 0.828125 0 L 3.515625 0 C 3.671875 0 3.921875 0 3.921875 -0.296875 C 3.921875 -0.609375 3.671875 -0.609375 3.515625 -0.609375 L 2.515625 -0.609375 L 2.515625 -3.671875 L 3.734375 -3.671875 C 3.875 -3.671875 4.125 -3.671875 4.125 -3.96875 C 4.125 -4.28125 3.890625 -4.28125 3.734375 -4.28125 L 2.515625 -4.28125 L 2.515625 -4.75 C 2.515625 -5.53125 3.1875 -5.53125 3.484375 -5.53125 C 3.484375 -5.484375 3.5625 -5.09375 3.921875 -5.09375 C 4.109375 -5.09375 4.34375 -5.25 4.34375 -5.53125 Z M 4.34375 -5.53125 "/>
</g>
<g id="glyph-1-7">
<path d="M 4.640625 -0.296875 C 4.640625 -0.609375 4.40625 -0.609375 4.25 -0.609375 L 2.953125 -0.609375 L 2.953125 -5.671875 C 2.953125 -5.96875 2.890625 -6.078125 2.546875 -6.078125 L 0.984375 -6.078125 C 0.828125 -6.078125 0.578125 -6.078125 0.578125 -5.765625 C 0.578125 -5.46875 0.828125 -5.46875 0.96875 -5.46875 L 2.265625 -5.46875 L 2.265625 -0.609375 L 0.984375 -0.609375 C 0.828125 -0.609375 0.578125 -0.609375 0.578125 -0.296875 C 0.578125 0 0.828125 0 0.96875 0 L 4.25 0 C 4.390625 0 4.640625 0 4.640625 -0.296875 Z M 4.640625 -0.296875 "/>
</g>
<g id="glyph-1-8">
<path d="M 4.8125 -2.984375 C 4.8125 -4.578125 3.96875 -6.078125 2.640625 -6.078125 L 0.59375 -6.078125 C 0.4375 -6.078125 0.1875 -6.078125 0.1875 -5.765625 C 0.1875 -5.46875 0.453125 -5.46875 0.59375 -5.46875 L 0.8125 -5.46875 L 0.8125 -0.609375 L 0.59375 -0.609375 C 0.4375 -0.609375 0.1875 -0.609375 0.1875 -0.296875 C 0.1875 0 0.453125 0 0.59375 0 L 2.640625 0 C 3.9375 0 4.8125 -1.390625 4.8125 -2.984375 Z M 4.140625 -2.984375 C 4.140625 -1.828125 3.5625 -0.609375 2.453125 -0.609375 L 1.5 -0.609375 L 1.5 -5.46875 L 2.453125 -5.46875 C 3.578125 -5.46875 4.140625 -4.140625 4.140625 -2.984375 Z M 4.140625 -2.984375 "/>
</g>
<g id="glyph-1-9">
<path d="M 5.09375 -0.3125 C 5.09375 -0.609375 4.828125 -0.609375 4.6875 -0.609375 L 4.25 -0.609375 L 4.25 -5.671875 C 4.25 -5.96875 4.1875 -6.078125 3.84375 -6.078125 L 3.125 -6.078125 C 2.96875 -6.078125 2.71875 -6.078125 2.71875 -5.765625 C 2.71875 -5.46875 2.96875 -5.46875 3.109375 -5.46875 L 3.5625 -5.46875 L 3.5625 -3.890625 C 3.234375 -4.1875 2.828125 -4.34375 2.390625 -4.34375 C 1.3125 -4.34375 0.359375 -3.40625 0.359375 -2.140625 C 0.359375 -0.90625 1.25 0.0625 2.3125 0.0625 C 2.859375 0.0625 3.28125 -0.203125 3.5625 -0.5 C 3.5625 -0.140625 3.5625 0 3.953125 0 L 4.6875 0 C 4.84375 0 5.09375 0 5.09375 -0.3125 Z M 3.5625 -1.921875 C 3.5625 -1.375 3.109375 -0.546875 2.34375 -0.546875 C 1.640625 -0.546875 1.046875 -1.25 1.046875 -2.140625 C 1.046875 -3.09375 1.734375 -3.734375 2.4375 -3.734375 C 3.078125 -3.734375 3.5625 -3.1875 3.5625 -2.640625 Z M 3.5625 -1.921875 "/>
</g>
<g id="glyph-1-10">
<path d="M 4.6875 -1.65625 C 4.6875 -2.28125 4.328125 -2.703125 4.21875 -2.828125 C 3.8125 -3.234375 3.53125 -3.296875 2.765625 -3.484375 L 1.953125 -3.65625 C 1.546875 -3.78125 1.15625 -4.125 1.15625 -4.59375 C 1.15625 -5.09375 1.65625 -5.578125 2.359375 -5.578125 C 3.53125 -5.578125 3.671875 -4.640625 3.734375 -4.328125 C 3.765625 -4.109375 3.875 -4.046875 4.078125 -4.046875 C 4.421875 -4.046875 4.421875 -4.265625 4.421875 -4.46875 L 4.421875 -5.78125 C 4.421875 -5.9375 4.421875 -6.1875 4.125 -6.1875 C 3.890625 -6.1875 3.828125 -6.015625 3.75 -5.71875 C 3.34375 -6.0625 2.8125 -6.1875 2.359375 -6.1875 C 1.265625 -6.1875 0.515625 -5.390625 0.515625 -4.546875 C 0.515625 -3.890625 0.96875 -3.234375 1.796875 -2.984375 L 2.9375 -2.71875 C 3.21875 -2.65625 4.046875 -2.46875 4.046875 -1.59375 C 4.046875 -1.078125 3.625 -0.5 2.828125 -0.5 C 2.546875 -0.5 2.0625 -0.53125 1.671875 -0.8125 C 1.25 -1.078125 1.21875 -1.484375 1.203125 -1.671875 C 1.1875 -1.84375 1.1875 -2.015625 0.859375 -2.015625 C 0.515625 -2.015625 0.515625 -1.8125 0.515625 -1.609375 L 0.515625 -0.296875 C 0.515625 -0.140625 0.515625 0.109375 0.8125 0.109375 C 1.03125 0.109375 1.09375 -0.03125 1.1875 -0.34375 C 1.578125 -0.046875 2.1875 0.109375 2.828125 0.109375 C 3.96875 0.109375 4.6875 -0.765625 4.6875 -1.65625 Z M 4.6875 -1.65625 "/>
</g>
<g id="glyph-1-11">
<path d="M 5.09375 -0.296875 C 5.09375 -0.609375 4.84375 -0.609375 4.6875 -0.609375 L 4.25 -0.609375 L 4.25 -2.90625 C 4.25 -3.921875 3.734375 -4.34375 2.953125 -4.34375 C 2.28125 -4.34375 1.84375 -4 1.65625 -3.8125 C 1.65625 -4.140625 1.65625 -4.28125 1.25 -4.28125 L 0.53125 -4.28125 C 0.375 -4.28125 0.125 -4.28125 0.125 -3.96875 C 0.125 -3.671875 0.375 -3.671875 0.515625 -3.671875 L 0.96875 -3.671875 L 0.96875 -0.609375 L 0.53125 -0.609375 C 0.375 -0.609375 0.125 -0.609375 0.125 -0.296875 C 0.125 0 0.375 0 0.515625 0 L 2.09375 0 C 2.234375 0 2.5 0 2.5 -0.296875 C 2.5 -0.609375 2.25 -0.609375 2.09375 -0.609375 L 1.65625 -0.609375 L 1.65625 -2.359375 C 1.65625 -3.359375 2.390625 -3.734375 2.890625 -3.734375 C 3.421875 -3.734375 3.5625 -3.453125 3.5625 -2.859375 L 3.5625 -0.609375 L 3.171875 -0.609375 C 3.015625 -0.609375 2.765625 -0.609375 2.765625 -0.296875 C 2.765625 0 3.03125 0 3.171875 0 L 4.6875 0 C 4.828125 0 5.09375 0 5.09375 -0.296875 Z M 5.09375 -0.296875 "/>
</g>
<g id="glyph-1-12">
<path d="M 4.5625 -1.25 C 4.5625 -2.28125 3.28125 -2.484375 2.96875 -2.53125 L 2.28125 -2.65625 C 2 -2.6875 1.328125 -2.8125 1.328125 -3.203125 C 1.328125 -3.453125 1.640625 -3.765625 2.578125 -3.765625 C 3.40625 -3.765625 3.546875 -3.46875 3.578125 -3.203125 C 3.59375 -3.046875 3.609375 -2.875 3.921875 -2.875 C 4.265625 -2.875 4.265625 -3.078125 4.265625 -3.28125 L 4.265625 -3.96875 C 4.265625 -4.125 4.265625 -4.375 3.96875 -4.375 C 3.734375 -4.375 3.6875 -4.234375 3.671875 -4.15625 C 3.234375 -4.375 2.796875 -4.375 2.609375 -4.375 C 0.9375 -4.375 0.71875 -3.5625 0.71875 -3.203125 C 0.71875 -2.28125 1.765625 -2.109375 2.671875 -1.984375 C 3.15625 -1.890625 3.953125 -1.765625 3.953125 -1.25 C 3.953125 -0.875 3.59375 -0.546875 2.6875 -0.546875 C 2.21875 -0.546875 1.65625 -0.65625 1.40625 -1.4375 C 1.359375 -1.609375 1.328125 -1.71875 1.0625 -1.71875 C 0.71875 -1.71875 0.71875 -1.515625 0.71875 -1.3125 L 0.71875 -0.34375 C 0.71875 -0.1875 0.71875 0.0625 1.015625 0.0625 C 1.109375 0.0625 1.265625 0.046875 1.375 -0.3125 C 1.875 0.046875 2.390625 0.0625 2.671875 0.0625 C 4.25 0.0625 4.5625 -0.765625 4.5625 -1.25 Z M 4.5625 -1.25 "/>
</g>
<g id="glyph-1-13">
<path d="M 3.234375 -0.609375 C 3.234375 -0.984375 2.9375 -1.25 2.609375 -1.25 C 2.234375 -1.25 1.984375 -0.9375 1.984375 -0.625 C 1.984375 -0.265625 2.28125 0 2.609375 0 C 2.984375 0 3.234375 -0.3125 3.234375 -0.609375 Z M 3.234375 -0.609375 "/>
</g>
<g id="glyph-1-14">
<path d="M 4.84375 -2.140625 C 4.84375 -3.375 3.96875 -4.34375 2.90625 -4.34375 C 2.4375 -4.34375 1.984375 -4.15625 1.65625 -3.859375 C 1.65625 -4.140625 1.625 -4.28125 1.25 -4.28125 L 0.53125 -4.28125 C 0.375 -4.28125 0.125 -4.28125 0.125 -3.96875 C 0.125 -3.671875 0.375 -3.671875 0.515625 -3.671875 L 0.96875 -3.671875 L 0.96875 1.59375 L 0.53125 1.59375 C 0.375 1.59375 0.125 1.59375 0.125 1.90625 C 0.125 2.203125 0.375 2.203125 0.515625 2.203125 L 2.09375 2.203125 C 2.234375 2.203125 2.5 2.203125 2.5 1.90625 C 2.5 1.59375 2.25 1.59375 2.09375 1.59375 L 1.65625 1.59375 L 1.65625 -0.453125 C 2.0625 -0.03125 2.484375 0.0625 2.796875 0.0625 C 3.890625 0.0625 4.84375 -0.890625 4.84375 -2.140625 Z M 4.15625 -2.140625 C 4.15625 -1.1875 3.46875 -0.546875 2.765625 -0.546875 C 2 -0.546875 1.65625 -1.421875 1.65625 -1.890625 L 1.65625 -2.625 C 1.65625 -3.203125 2.21875 -3.734375 2.859375 -3.734375 C 3.59375 -3.734375 4.15625 -3.015625 4.15625 -2.140625 Z M 4.15625 -2.140625 "/>
</g>
<g id="glyph-1-15">
<path d="M 5.0625 -3.859375 C 5.0625 -4.078125 4.875 -4.390625 4.328125 -4.390625 C 4.21875 -4.390625 3.734375 -4.375 3.28125 -4.046875 C 3.125 -4.15625 2.765625 -4.34375 2.3125 -4.34375 C 1.375 -4.34375 0.671875 -3.59375 0.671875 -2.75 C 0.671875 -2.328125 0.84375 -2 1 -1.8125 C 0.890625 -1.65625 0.796875 -1.4375 0.796875 -1.140625 C 0.796875 -0.78125 0.9375 -0.53125 1.03125 -0.421875 C 0.28125 0.03125 0.28125 0.703125 0.28125 0.8125 C 0.28125 1.671875 1.328125 2.28125 2.609375 2.28125 C 3.875 2.28125 4.921875 1.65625 4.921875 0.8125 C 4.921875 0.453125 4.734375 -0.046875 4.234375 -0.3125 C 4.109375 -0.390625 3.6875 -0.609375 2.796875 -0.609375 L 2.09375 -0.609375 C 2.015625 -0.609375 1.890625 -0.609375 1.8125 -0.625 C 1.65625 -0.625 1.59375 -0.625 1.484375 -0.765625 C 1.375 -0.90625 1.359375 -1.125 1.359375 -1.125 C 1.359375 -1.15625 1.375 -1.296875 1.421875 -1.40625 C 1.453125 -1.375 1.828125 -1.15625 2.3125 -1.15625 C 3.234375 -1.15625 3.953125 -1.875 3.953125 -2.75 C 3.953125 -3.046875 3.859375 -3.34375 3.703125 -3.625 C 3.90625 -3.734375 4.140625 -3.78125 4.265625 -3.78125 C 4.328125 -3.515625 4.5625 -3.453125 4.65625 -3.453125 C 4.828125 -3.453125 5.0625 -3.5625 5.0625 -3.859375 Z M 3.265625 -2.75 C 3.265625 -2.1875 2.828125 -1.75 2.3125 -1.75 C 1.78125 -1.75 1.359375 -2.21875 1.359375 -2.75 C 1.359375 -3.3125 1.796875 -3.75 2.3125 -3.75 C 2.859375 -3.75 3.265625 -3.28125 3.265625 -2.75 Z M 4.34375 0.8125 C 4.34375 1.25 3.59375 1.671875 2.609375 1.671875 C 1.609375 1.671875 0.859375 1.25 0.859375 0.8125 C 0.859375 0.640625 0.953125 0.3125 1.265625 0.125 C 1.515625 -0.046875 1.609375 -0.046875 2.328125 -0.046875 C 3.21875 -0.046875 4.34375 -0.046875 4.34375 0.8125 Z M 4.34375 0.8125 "/>
</g>
<g id="glyph-1-16">
<path d="M 4.921875 -0.296875 C 4.921875 -0.609375 4.671875 -0.609375 4.515625 -0.609375 L 4.125 -0.609375 L 2.859375 -2.203125 L 3.984375 -3.671875 L 4.375 -3.671875 C 4.515625 -3.671875 4.796875 -3.671875 4.796875 -3.96875 C 4.796875 -4.28125 4.53125 -4.28125 4.375 -4.28125 L 3.21875 -4.28125 C 3.078125 -4.28125 2.828125 -4.28125 2.828125 -3.984375 C 2.828125 -3.671875 3.046875 -3.671875 3.3125 -3.671875 L 2.578125 -2.671875 L 1.8125 -3.671875 C 2.078125 -3.671875 2.296875 -3.671875 2.296875 -3.984375 C 2.296875 -4.28125 2.046875 -4.28125 1.890625 -4.28125 L 0.734375 -4.28125 C 0.59375 -4.28125 0.328125 -4.28125 0.328125 -3.96875 C 0.328125 -3.671875 0.59375 -3.671875 0.734375 -3.671875 L 1.140625 -3.671875 L 2.3125 -2.203125 L 1.078125 -0.609375 L 0.671875 -0.609375 C 0.53125 -0.609375 0.265625 -0.609375 0.265625 -0.296875 C 0.265625 0 0.53125 0 0.671875 0 L 1.84375 0 C 1.984375 0 2.234375 0 2.234375 -0.296875 C 2.234375 -0.609375 2.03125 -0.609375 1.71875 -0.609375 L 2.578125 -1.828125 L 3.453125 -0.609375 C 3.1875 -0.609375 2.96875 -0.609375 2.96875 -0.296875 C 2.96875 0 3.203125 0 3.359375 0 L 4.515625 0 C 4.65625 0 4.921875 0 4.921875 -0.296875 Z M 4.921875 -0.296875 "/>
</g>
<g id="glyph-1-17">
<path d="M 5.1875 -0.921875 C 5.1875 -1.25 4.953125 -1.25 4.84375 -1.25 C 4.734375 -1.25 4.515625 -1.25 4.5 -0.9375 C 4.5 -0.859375 4.484375 -0.5 4.3125 -0.5 C 4.03125 -0.5 4.03125 -0.953125 4.03125 -1.484375 C 4.03125 -2.109375 4.03125 -2.1875 3.9375 -2.421875 C 3.828125 -2.703125 3.59375 -2.90625 3.453125 -3.015625 C 4.109375 -3.390625 4.296875 -4 4.296875 -4.40625 C 4.296875 -5.25 3.546875 -6.078125 2.375 -6.078125 L 0.609375 -6.078125 C 0.453125 -6.078125 0.21875 -6.078125 0.21875 -5.765625 C 0.21875 -5.46875 0.46875 -5.46875 0.609375 -5.46875 L 0.859375 -5.46875 L 0.859375 -0.609375 L 0.609375 -0.609375 C 0.453125 -0.609375 0.21875 -0.609375 0.21875 -0.296875 C 0.21875 0 0.46875 0 0.609375 0 L 1.796875 0 C 1.953125 0 2.203125 0 2.203125 -0.296875 C 2.203125 -0.609375 1.953125 -0.609375 1.796875 -0.609375 L 1.546875 -0.609375 L 1.546875 -2.734375 L 2.328125 -2.734375 C 2.515625 -2.734375 2.8125 -2.734375 3.125 -2.453125 C 3.34375 -2.25 3.34375 -2.03125 3.34375 -1.609375 C 3.34375 -0.96875 3.34375 -0.671875 3.53125 -0.34375 C 3.703125 -0.046875 3.984375 0.109375 4.328125 0.109375 C 4.953125 0.109375 5.1875 -0.546875 5.1875 -0.921875 Z M 3.625 -4.40625 C 3.625 -3.921875 3.171875 -3.34375 2.265625 -3.34375 L 1.546875 -3.34375 L 1.546875 -5.46875 L 2.265625 -5.46875 C 3.1875 -5.46875 3.625 -4.875 3.625 -4.40625 Z M 3.625 -4.40625 "/>
</g>
<g id="glyph-1-18">
<path d="M 4.640625 0.515625 C 4.640625 0.234375 4.390625 0.21875 4.296875 0.21875 C 2.953125 0.1875 2.953125 -0.171875 2.953125 -0.484375 L 2.953125 -2.078125 C 2.953125 -2.328125 2.921875 -2.734375 2.375 -3.03125 C 2.796875 -3.28125 2.9375 -3.609375 2.953125 -3.859375 L 2.953125 -5.171875 C 2.953125 -5.421875 2.953125 -5.8125 2.984375 -5.890625 C 3.15625 -6.265625 4.03125 -6.296875 4.375 -6.296875 C 4.4375 -6.296875 4.640625 -6.34375 4.640625 -6.59375 C 4.640625 -6.890625 4.40625 -6.890625 4.21875 -6.890625 C 3.53125 -6.890625 2.4375 -6.765625 2.28125 -5.890625 C 2.265625 -5.828125 2.265625 -5.34375 2.265625 -5.0625 L 2.265625 -4.15625 C 2.265625 -3.8125 2.265625 -3.65625 1.90625 -3.5 C 1.546875 -3.34375 1.046875 -3.34375 0.828125 -3.34375 C 0.765625 -3.34375 0.5625 -3.28125 0.5625 -3.046875 C 0.5625 -2.75 0.8125 -2.734375 0.90625 -2.734375 C 1.15625 -2.71875 2.25 -2.6875 2.265625 -2.15625 L 2.265625 -0.5 C 2.265625 -0.203125 2.265625 0.234375 2.78125 0.53125 C 3.203125 0.75 3.75 0.828125 4.21875 0.828125 C 4.40625 0.828125 4.640625 0.828125 4.640625 0.515625 Z M 4.640625 0.515625 "/>
</g>
<g id="glyph-2-0">
<path d="M 7.03125 -3.34375 C 7.03125 -5.234375 5.6875 -6.78125 3.984375 -6.78125 L 0.34375 -6.78125 L 0.34375 -6.484375 L 0.59375 -6.484375 C 1.34375 -6.484375 1.375 -6.375 1.375 -6.015625 L 1.375 -0.78125 C 1.375 -0.421875 1.34375 -0.3125 0.59375 -0.3125 L 0.34375 -0.3125 L 0.34375 0 L 3.984375 0 C 5.65625 0 7.03125 -1.46875 7.03125 -3.34375 Z M 6.03125 -3.34375 C 6.03125 -2.234375 5.84375 -1.640625 5.484375 -1.15625 C 5.28125 -0.890625 4.71875 -0.3125 3.71875 -0.3125 L 2.71875 -0.3125 C 2.25 -0.3125 2.21875 -0.375 2.21875 -0.703125 L 2.21875 -6.078125 C 2.21875 -6.40625 2.25 -6.484375 2.71875 -6.484375 L 3.703125 -6.484375 C 4.328125 -6.484375 5.015625 -6.265625 5.515625 -5.5625 C 5.9375 -4.96875 6.03125 -4.109375 6.03125 -3.34375 Z M 6.03125 -3.34375 "/>
</g>
<g id="glyph-2-1">
<path d="M 4.125 -1.1875 C 4.125 -1.28125 4.046875 -1.296875 4 -1.296875 C 3.90625 -1.296875 3.890625 -1.25 3.859375 -1.15625 C 3.515625 -0.140625 2.625 -0.140625 2.53125 -0.140625 C 2.03125 -0.140625 1.625 -0.4375 1.40625 -0.8125 C 1.109375 -1.28125 1.109375 -1.9375 1.109375 -2.296875 L 3.875 -2.296875 C 4.09375 -2.296875 4.125 -2.296875 4.125 -2.5 C 4.125 -3.484375 3.59375 -4.453125 2.34375 -4.453125 C 1.1875 -4.453125 0.28125 -3.421875 0.28125 -2.1875 C 0.28125 -0.859375 1.328125 0.109375 2.46875 0.109375 C 3.671875 0.109375 4.125 -1 4.125 -1.1875 Z M 3.46875 -2.5 L 1.109375 -2.5 C 1.171875 -3.984375 2 -4.234375 2.34375 -4.234375 C 3.375 -4.234375 3.46875 -2.890625 3.46875 -2.5 Z M 3.46875 -2.5 "/>
</g>
<g id="glyph-2-2">
<path d="M 5.234375 0 L 5.234375 -0.3125 C 4.578125 -0.3125 4.46875 -0.3125 4.46875 -0.75 L 4.46875 -6.890625 L 4.109375 -6.84375 C 4.0625 -6.84375 4.046875 -6.84375 4.015625 -6.859375 C 3.703125 -7 3.296875 -7 3.1875 -7 C 2.140625 -7 1.046875 -6.453125 1.046875 -5.421875 L 1.046875 -4.28125 L 0.265625 -4.28125 L 0.265625 -3.96875 L 1.046875 -3.96875 L 1.046875 -0.75 C 1.046875 -0.3125 0.9375 -0.3125 0.28125 -0.3125 L 0.28125 0 L 1.375 -0.03125 L 2.484375 0 L 2.484375 -0.3125 C 1.8125 -0.3125 1.703125 -0.3125 1.703125 -0.75 L 1.703125 -3.96875 L 3.8125 -3.96875 L 3.8125 -0.75 C 3.8125 -0.3125 3.703125 -0.3125 3.03125 -0.3125 L 3.03125 0 L 4.140625 -0.03125 Z M 3.8125 -4.28125 L 1.671875 -4.28125 L 1.671875 -5.40625 C 1.671875 -6.328125 2.4375 -6.78125 3.171875 -6.78125 C 3.265625 -6.78125 3.53125 -6.78125 3.8125 -6.703125 C 3.71875 -6.65625 3.5625 -6.5625 3.5625 -6.296875 C 3.5625 -6.125 3.640625 -5.96875 3.8125 -5.90625 Z M 3.8125 -4.28125 "/>
</g>
<g id="glyph-2-3">
<path d="M 4.796875 -0.890625 L 4.796875 -1.4375 L 4.546875 -1.4375 L 4.546875 -0.890625 C 4.546875 -0.3125 4.296875 -0.25 4.1875 -0.25 C 3.859375 -0.25 3.828125 -0.703125 3.828125 -0.75 L 3.828125 -2.734375 C 3.828125 -3.15625 3.828125 -3.53125 3.46875 -3.90625 C 3.078125 -4.296875 2.578125 -4.453125 2.109375 -4.453125 C 1.296875 -4.453125 0.609375 -3.984375 0.609375 -3.328125 C 0.609375 -3.03125 0.8125 -2.859375 1.0625 -2.859375 C 1.34375 -2.859375 1.515625 -3.0625 1.515625 -3.3125 C 1.515625 -3.4375 1.46875 -3.765625 1.015625 -3.78125 C 1.28125 -4.125 1.765625 -4.234375 2.09375 -4.234375 C 2.578125 -4.234375 3.140625 -3.84375 3.140625 -2.96875 L 3.140625 -2.59375 C 2.640625 -2.5625 1.9375 -2.53125 1.3125 -2.234375 C 0.5625 -1.890625 0.3125 -1.375 0.3125 -0.9375 C 0.3125 -0.140625 1.28125 0.109375 1.90625 0.109375 C 2.5625 0.109375 3.015625 -0.28125 3.203125 -0.75 C 3.25 -0.359375 3.515625 0.0625 3.984375 0.0625 C 4.1875 0.0625 4.796875 -0.078125 4.796875 -0.890625 Z M 3.140625 -1.390625 C 3.140625 -0.453125 2.421875 -0.109375 1.984375 -0.109375 C 1.484375 -0.109375 1.078125 -0.453125 1.078125 -0.953125 C 1.078125 -1.5 1.5 -2.328125 3.140625 -2.390625 Z M 3.140625 -1.390625 "/>
</g>
<g id="glyph-2-4">
<path d="M 3.296875 -1.234375 L 3.296875 -1.796875 L 3.046875 -1.796875 L 3.046875 -1.25 C 3.046875 -0.515625 2.75 -0.140625 2.390625 -0.140625 C 1.71875 -0.140625 1.71875 -1.046875 1.71875 -1.21875 L 1.71875 -3.96875 L 3.140625 -3.96875 L 3.140625 -4.28125 L 1.71875 -4.28125 L 1.71875 -6.109375 L 1.46875 -6.109375 C 1.453125 -5.296875 1.15625 -4.234375 0.1875 -4.1875 L 0.1875 -3.96875 L 1.03125 -3.96875 L 1.03125 -1.234375 C 1.03125 -0.015625 1.953125 0.109375 2.3125 0.109375 C 3.015625 0.109375 3.296875 -0.59375 3.296875 -1.234375 Z M 3.296875 -1.234375 "/>
</g>
<g id="glyph-2-5">
<path d="M 5.5625 -2.65625 L 5.3125 -2.65625 C 5.234375 -1.265625 5.046875 -0.34375 3.203125 -0.34375 L 1.578125 -0.34375 L 5.4375 -6.4375 C 5.5 -6.546875 5.5 -6.5625 5.5 -6.625 C 5.5 -6.78125 5.453125 -6.78125 5.25 -6.78125 L 0.796875 -6.78125 L 0.6875 -4.546875 L 0.9375 -4.546875 C 1 -5.671875 1.296875 -6.484375 2.9375 -6.484375 L 4.484375 -6.484375 L 0.625 -0.375 C 0.5625 -0.265625 0.5625 -0.25 0.5625 -0.171875 C 0.5625 0 0.609375 0 0.8125 0 L 5.390625 0 Z M 5.5625 -2.65625 "/>
</g>
<g id="glyph-2-6">
<path d="M 2.453125 0 L 2.453125 -0.3125 C 1.796875 -0.3125 1.765625 -0.359375 1.765625 -0.75 L 1.765625 -4.390625 L 0.375 -4.28125 L 0.375 -3.96875 C 1.015625 -3.96875 1.109375 -3.921875 1.109375 -3.421875 L 1.109375 -0.75 C 1.109375 -0.3125 1 -0.3125 0.328125 -0.3125 L 0.328125 0 L 1.421875 -0.03125 C 1.765625 -0.03125 2.109375 -0.015625 2.453125 0 Z M 1.90625 -6 C 1.90625 -6.265625 1.671875 -6.53125 1.375 -6.53125 C 1.046875 -6.53125 0.84375 -6.25 0.84375 -6 C 0.84375 -5.734375 1.078125 -5.46875 1.375 -5.46875 C 1.703125 -5.46875 1.90625 -5.75 1.90625 -6 Z M 1.90625 -6 "/>
</g>
<g id="glyph-2-7">
<path d="M 5.171875 -2.140625 C 5.171875 -3.40625 4.21875 -4.390625 3.09375 -4.390625 C 2.328125 -4.390625 1.90625 -3.953125 1.703125 -3.734375 L 1.703125 -4.390625 L 0.28125 -4.28125 L 0.28125 -3.96875 C 0.984375 -3.96875 1.046875 -3.921875 1.046875 -3.484375 L 1.046875 1.171875 C 1.046875 1.625 0.9375 1.625 0.28125 1.625 L 0.28125 1.921875 L 1.390625 1.890625 L 2.515625 1.921875 L 2.515625 1.625 C 1.84375 1.625 1.734375 1.625 1.734375 1.171875 L 1.734375 -0.59375 C 1.78125 -0.421875 2.203125 0.109375 2.96875 0.109375 C 4.140625 0.109375 5.171875 -0.859375 5.171875 -2.140625 Z M 4.359375 -2.140625 C 4.359375 -0.9375 3.65625 -0.109375 2.921875 -0.109375 C 2.53125 -0.109375 2.140625 -0.3125 1.875 -0.71875 C 1.734375 -0.921875 1.734375 -0.9375 1.734375 -1.140625 L 1.734375 -3.34375 C 2.03125 -3.859375 2.515625 -4.140625 3.015625 -4.140625 C 3.75 -4.140625 4.359375 -3.265625 4.359375 -2.140625 Z M 4.359375 -2.140625 "/>
</g>
<g id="glyph-2-8">
<path d="M 6.609375 -2.3125 C 6.609375 -2.421875 6.609375 -2.484375 6.484375 -2.484375 C 6.375 -2.484375 6.375 -2.421875 6.359375 -2.328125 C 6.28125 -0.90625 5.21875 -0.09375 4.140625 -0.09375 C 3.53125 -0.09375 1.578125 -0.421875 1.578125 -3.390625 C 1.578125 -6.359375 3.515625 -6.703125 4.125 -6.703125 C 5.203125 -6.703125 6.09375 -5.796875 6.296875 -4.34375 C 6.3125 -4.203125 6.3125 -4.171875 6.453125 -4.171875 C 6.609375 -4.171875 6.609375 -4.203125 6.609375 -4.40625 L 6.609375 -6.765625 C 6.609375 -6.9375 6.609375 -7 6.5 -7 C 6.453125 -7 6.421875 -7 6.34375 -6.890625 L 5.84375 -6.15625 C 5.46875 -6.515625 4.96875 -7 4.015625 -7 C 2.15625 -7 0.5625 -5.421875 0.5625 -3.40625 C 0.5625 -1.34375 2.171875 0.21875 4.015625 0.21875 C 5.640625 0.21875 6.609375 -1.15625 6.609375 -2.3125 Z M 6.609375 -2.3125 "/>
</g>
<g id="glyph-2-9">
<path d="M 3.625 -3.78125 C 3.625 -4.109375 3.3125 -4.390625 2.875 -4.390625 C 2.15625 -4.390625 1.796875 -3.734375 1.65625 -3.296875 L 1.65625 -4.390625 L 0.28125 -4.28125 L 0.28125 -3.96875 C 0.96875 -3.96875 1.046875 -3.90625 1.046875 -3.421875 L 1.046875 -0.75 C 1.046875 -0.3125 0.9375 -0.3125 0.28125 -0.3125 L 0.28125 0 L 1.40625 -0.03125 C 1.8125 -0.03125 2.28125 -0.03125 2.671875 0 L 2.671875 -0.3125 L 2.46875 -0.3125 C 1.734375 -0.3125 1.703125 -0.421875 1.703125 -0.78125 L 1.703125 -2.3125 C 1.703125 -3.296875 2.125 -4.171875 2.875 -4.171875 C 2.953125 -4.171875 2.96875 -4.171875 2.984375 -4.15625 C 2.96875 -4.15625 2.765625 -4.03125 2.765625 -3.78125 C 2.765625 -3.5 2.96875 -3.34375 3.1875 -3.34375 C 3.375 -3.34375 3.625 -3.46875 3.625 -3.78125 Z M 3.625 -3.78125 "/>
</g>
<g id="glyph-2-10">
<path d="M 5.046875 -3.96875 L 5.046875 -4.28125 C 4.8125 -4.265625 4.53125 -4.25 4.296875 -4.25 L 3.4375 -4.28125 L 3.4375 -3.96875 C 3.75 -3.96875 3.90625 -3.796875 3.90625 -3.546875 C 3.90625 -3.453125 3.890625 -3.421875 3.84375 -3.3125 L 2.84375 -0.859375 L 1.734375 -3.53125 C 1.703125 -3.640625 1.671875 -3.671875 1.671875 -3.71875 C 1.671875 -3.96875 2.046875 -3.96875 2.234375 -3.96875 L 2.234375 -4.28125 L 1.15625 -4.25 C 0.890625 -4.25 0.484375 -4.265625 0.1875 -4.28125 L 0.1875 -3.96875 C 0.671875 -3.96875 0.859375 -3.96875 1 -3.625 L 2.484375 0 L 2.234375 0.59375 C 2.015625 1.140625 1.734375 1.8125 1.109375 1.8125 C 1.046875 1.8125 0.828125 1.8125 0.640625 1.640625 C 0.9375 1.59375 1.03125 1.375 1.03125 1.21875 C 1.03125 0.96875 0.828125 0.8125 0.609375 0.8125 C 0.40625 0.8125 0.1875 0.9375 0.1875 1.234375 C 0.1875 1.671875 0.609375 2.03125 1.109375 2.03125 C 1.734375 2.03125 2.140625 1.46875 2.375 0.90625 L 4.125 -3.34375 C 4.375 -3.96875 4.890625 -3.96875 5.046875 -3.96875 Z M 5.046875 -3.96875 "/>
</g>
<g id="glyph-2-11">
<path d="M 4.6875 -2.125 C 4.6875 -3.40625 3.6875 -4.453125 2.484375 -4.453125 C 1.25 -4.453125 0.28125 -3.375 0.28125 -2.125 C 0.28125 -0.84375 1.3125 0.109375 2.46875 0.109375 C 3.671875 0.109375 4.6875 -0.859375 4.6875 -2.125 Z M 3.859375 -2.203125 C 3.859375 -1.84375 3.859375 -1.3125 3.640625 -0.875 C 3.421875 -0.421875 2.984375 -0.140625 2.484375 -0.140625 C 2.0625 -0.140625 1.625 -0.34375 1.34375 -0.8125 C 1.109375 -1.25 1.109375 -1.84375 1.109375 -2.203125 C 1.109375 -2.59375 1.109375 -3.125 1.34375 -3.5625 C 1.609375 -4.03125 2.078125 -4.234375 2.46875 -4.234375 C 2.90625 -4.234375 3.34375 -4.015625 3.59375 -3.59375 C 3.859375 -3.15625 3.859375 -2.578125 3.859375 -2.203125 Z M 3.859375 -2.203125 "/>
</g>
<g id="glyph-2-12">
<path d="M 7.3125 0 L 7.3125 -0.3125 C 6.78125 -0.3125 6.5625 -0.34375 6.265625 -0.78125 L 3.96875 -4.15625 L 5.765625 -5.890625 C 5.84375 -5.96875 6.375 -6.46875 7.171875 -6.484375 L 7.171875 -6.78125 C 6.921875 -6.75 6.59375 -6.75 6.328125 -6.75 C 5.96875 -6.75 5.40625 -6.75 5.0625 -6.78125 L 5.0625 -6.484375 C 5.46875 -6.46875 5.53125 -6.234375 5.53125 -6.15625 C 5.53125 -6 5.421875 -5.890625 5.34375 -5.828125 L 2.234375 -2.859375 L 2.234375 -6.015625 C 2.234375 -6.375 2.25 -6.484375 3.015625 -6.484375 L 3.265625 -6.484375 L 3.265625 -6.78125 C 2.90625 -6.75 2.171875 -6.75 1.796875 -6.75 C 1.421875 -6.75 0.671875 -6.75 0.328125 -6.78125 L 0.328125 -6.484375 L 0.5625 -6.484375 C 1.328125 -6.484375 1.34375 -6.375 1.34375 -6.015625 L 1.34375 -0.78125 C 1.34375 -0.421875 1.328125 -0.3125 0.5625 -0.3125 L 0.328125 -0.3125 L 0.328125 0 C 0.671875 -0.03125 1.40625 -0.03125 1.78125 -0.03125 C 2.171875 -0.03125 2.90625 -0.03125 3.265625 0 L 3.265625 -0.3125 L 3.015625 -0.3125 C 2.25 -0.3125 2.234375 -0.421875 2.234375 -0.78125 L 2.234375 -2.515625 L 3.390625 -3.609375 L 5.1875 -0.9375 C 5.25 -0.859375 5.34375 -0.71875 5.34375 -0.609375 C 5.34375 -0.3125 4.953125 -0.3125 4.75 -0.3125 L 4.75 0 C 5.09375 -0.03125 5.796875 -0.03125 6.171875 -0.03125 Z M 7.3125 0 "/>
</g>
<g id="glyph-2-13">
<path d="M 5.3125 0 L 5.3125 -0.3125 C 4.796875 -0.3125 4.546875 -0.3125 4.546875 -0.609375 L 4.546875 -2.5 C 4.546875 -3.359375 4.546875 -3.671875 4.234375 -4.03125 C 4.09375 -4.1875 3.765625 -4.390625 3.1875 -4.390625 C 2.46875 -4.390625 2 -3.96875 1.71875 -3.34375 L 1.71875 -4.390625 L 0.3125 -4.28125 L 0.3125 -3.96875 C 1.015625 -3.96875 1.09375 -3.90625 1.09375 -3.421875 L 1.09375 -0.75 C 1.09375 -0.3125 0.984375 -0.3125 0.3125 -0.3125 L 0.3125 0 L 1.4375 -0.03125 L 2.546875 0 L 2.546875 -0.3125 C 1.890625 -0.3125 1.78125 -0.3125 1.78125 -0.75 L 1.78125 -2.578125 C 1.78125 -3.625 2.484375 -4.171875 3.125 -4.171875 C 3.75 -4.171875 3.859375 -3.640625 3.859375 -3.078125 L 3.859375 -0.75 C 3.859375 -0.3125 3.75 -0.3125 3.078125 -0.3125 L 3.078125 0 L 4.203125 -0.03125 Z M 5.3125 0 "/>
</g>
<g id="glyph-2-14">
<path d="M 6.984375 -3.96875 L 6.984375 -4.28125 C 6.765625 -4.265625 6.484375 -4.25 6.265625 -4.25 L 5.34375 -4.28125 L 5.34375 -3.96875 C 5.6875 -3.96875 5.90625 -3.78125 5.90625 -3.5 C 5.90625 -3.4375 5.90625 -3.421875 5.859375 -3.296875 L 4.953125 -0.75 L 3.96875 -3.515625 C 3.9375 -3.640625 3.921875 -3.65625 3.921875 -3.703125 C 3.921875 -3.96875 4.3125 -3.96875 4.515625 -3.96875 L 4.515625 -4.28125 L 3.484375 -4.25 C 3.1875 -4.25 2.890625 -4.265625 2.59375 -4.28125 L 2.59375 -3.96875 C 2.96875 -3.96875 3.125 -3.953125 3.21875 -3.828125 C 3.265625 -3.765625 3.375 -3.46875 3.453125 -3.28125 L 2.59375 -0.875 L 1.65625 -3.53125 C 1.59375 -3.640625 1.59375 -3.671875 1.59375 -3.703125 C 1.59375 -3.96875 1.984375 -3.96875 2.1875 -3.96875 L 2.1875 -4.28125 L 1.109375 -4.25 L 0.171875 -4.28125 L 0.171875 -3.96875 C 0.671875 -3.96875 0.796875 -3.9375 0.921875 -3.625 L 2.171875 -0.109375 C 2.21875 0.03125 2.25 0.109375 2.375 0.109375 C 2.5 0.109375 2.53125 0.046875 2.578125 -0.09375 L 3.578125 -2.90625 L 4.59375 -0.078125 C 4.625 0.03125 4.65625 0.109375 4.796875 0.109375 C 4.921875 0.109375 4.953125 0.015625 4.984375 -0.078125 L 6.15625 -3.34375 C 6.328125 -3.828125 6.640625 -3.96875 6.984375 -3.96875 Z M 6.984375 -3.96875 "/>
</g>
<g id="glyph-2-15">
<path d="M 2.53125 0 L 2.53125 -0.3125 C 1.875 -0.3125 1.765625 -0.3125 1.765625 -0.75 L 1.765625 -6.890625 L 0.328125 -6.78125 L 0.328125 -6.484375 C 1.03125 -6.484375 1.109375 -6.40625 1.109375 -5.921875 L 1.109375 -0.75 C 1.109375 -0.3125 1 -0.3125 0.328125 -0.3125 L 0.328125 0 L 1.4375 -0.03125 Z M 2.53125 0 "/>
</g>
<g id="glyph-2-16">
<path d="M 5.125 0 L 5.125 -0.3125 C 4.59375 -0.3125 4.40625 -0.328125 4.1875 -0.609375 L 2.859375 -2.328125 C 3.15625 -2.71875 3.53125 -3.203125 3.765625 -3.453125 C 4.078125 -3.8125 4.484375 -3.96875 4.953125 -3.96875 L 4.953125 -4.28125 C 4.6875 -4.265625 4.390625 -4.25 4.140625 -4.25 C 3.828125 -4.25 3.3125 -4.265625 3.1875 -4.28125 L 3.1875 -3.96875 C 3.390625 -3.953125 3.46875 -3.828125 3.46875 -3.671875 C 3.46875 -3.515625 3.375 -3.375 3.3125 -3.3125 L 2.703125 -2.546875 L 1.921875 -3.546875 C 1.84375 -3.640625 1.84375 -3.671875 1.84375 -3.734375 C 1.84375 -3.875 1.984375 -3.96875 2.1875 -3.96875 L 2.1875 -4.28125 L 1.109375 -4.25 C 0.90625 -4.25 0.4375 -4.265625 0.171875 -4.28125 L 0.171875 -3.96875 C 0.859375 -3.96875 0.875 -3.96875 1.34375 -3.375 L 2.328125 -2.09375 C 1.859375 -1.484375 1.859375 -1.46875 1.390625 -0.90625 C 0.921875 -0.328125 0.328125 -0.3125 0.125 -0.3125 L 0.125 0 C 0.375 -0.015625 0.6875 -0.03125 0.9375 -0.03125 L 1.890625 0 L 1.890625 -0.3125 C 1.671875 -0.34375 1.59375 -0.46875 1.59375 -0.609375 C 1.59375 -0.828125 1.890625 -1.15625 2.5 -1.875 L 3.25 -0.890625 C 3.328125 -0.78125 3.453125 -0.609375 3.453125 -0.5625 C 3.453125 -0.46875 3.375 -0.3125 3.09375 -0.3125 L 3.09375 0 L 4.171875 -0.03125 C 4.4375 -0.03125 4.828125 -0.015625 5.125 0 Z M 5.125 0 "/>
</g>
<g id="glyph-2-17">
<path d="M 3.546875 -6.3125 C 3.546875 -6.671875 3.1875 -7 2.65625 -7 C 1.953125 -7 1.109375 -6.484375 1.109375 -5.421875 L 1.109375 -4.28125 L 0.328125 -4.28125 L 0.328125 -3.96875 L 1.109375 -3.96875 L 1.109375 -0.75 C 1.109375 -0.3125 1 -0.3125 0.34375 -0.3125 L 0.34375 0 L 1.46875 -0.03125 C 1.875 -0.03125 2.328125 -0.03125 2.734375 0 L 2.734375 -0.3125 L 2.53125 -0.3125 C 1.78125 -0.3125 1.765625 -0.421875 1.765625 -0.78125 L 1.765625 -3.96875 L 2.90625 -3.96875 L 2.90625 -4.28125 L 1.734375 -4.28125 L 1.734375 -5.4375 C 1.734375 -6.3125 2.21875 -6.78125 2.65625 -6.78125 C 2.6875 -6.78125 2.828125 -6.78125 2.984375 -6.71875 C 2.859375 -6.671875 2.6875 -6.546875 2.6875 -6.296875 C 2.6875 -6.078125 2.84375 -5.875 3.109375 -5.875 C 3.40625 -5.875 3.546875 -6.078125 3.546875 -6.3125 Z M 3.546875 -6.3125 "/>
</g>
<g id="glyph-2-18">
<path d="M 3.578125 -1.265625 C 3.578125 -1.796875 3.28125 -2.09375 3.15625 -2.21875 C 2.828125 -2.53125 2.4375 -2.609375 2.03125 -2.6875 C 1.46875 -2.796875 0.8125 -2.9375 0.8125 -3.515625 C 0.8125 -3.859375 1.0625 -4.265625 1.921875 -4.265625 C 3.015625 -4.265625 3.0625 -3.375 3.078125 -3.0625 C 3.09375 -2.96875 3.203125 -2.96875 3.203125 -2.96875 C 3.328125 -2.96875 3.328125 -3.015625 3.328125 -3.203125 L 3.328125 -4.21875 C 3.328125 -4.375 3.328125 -4.453125 3.21875 -4.453125 C 3.171875 -4.453125 3.15625 -4.453125 3.015625 -4.328125 C 2.984375 -4.296875 2.890625 -4.203125 2.859375 -4.171875 C 2.46875 -4.453125 2.0625 -4.453125 1.921875 -4.453125 C 0.703125 -4.453125 0.328125 -3.78125 0.328125 -3.234375 C 0.328125 -2.875 0.484375 -2.609375 0.75 -2.390625 C 1.078125 -2.125 1.34375 -2.0625 2.0625 -1.921875 C 2.28125 -1.890625 3.09375 -1.734375 3.09375 -1.015625 C 3.09375 -0.5 2.75 -0.109375 1.984375 -0.109375 C 1.140625 -0.109375 0.78125 -0.671875 0.59375 -1.515625 C 0.5625 -1.65625 0.5625 -1.6875 0.453125 -1.6875 C 0.328125 -1.6875 0.328125 -1.625 0.328125 -1.4375 L 0.328125 -0.125 C 0.328125 0.046875 0.328125 0.109375 0.4375 0.109375 C 0.484375 0.109375 0.5 0.09375 0.6875 -0.09375 C 0.703125 -0.109375 0.703125 -0.125 0.890625 -0.3125 C 1.328125 0.09375 1.765625 0.109375 1.984375 0.109375 C 3.125 0.109375 3.578125 -0.5625 3.578125 -1.265625 Z M 3.578125 -1.265625 "/>
</g>
<g id="glyph-2-19">
<path d="M 5.234375 0 L 5.234375 -0.3125 C 4.546875 -0.3125 4.46875 -0.375 4.46875 -0.859375 L 4.46875 -6.890625 L 3.03125 -6.78125 L 3.03125 -6.484375 C 3.734375 -6.484375 3.8125 -6.40625 3.8125 -5.921875 L 3.8125 -3.78125 C 3.515625 -4.140625 3.09375 -4.390625 2.546875 -4.390625 C 1.375 -4.390625 0.34375 -3.421875 0.34375 -2.140625 C 0.34375 -0.875 1.3125 0.109375 2.4375 0.109375 C 3.078125 0.109375 3.53125 -0.234375 3.78125 -0.546875 L 3.78125 0.109375 Z M 3.78125 -1.171875 C 3.78125 -1 3.78125 -0.96875 3.671875 -0.8125 C 3.375 -0.328125 2.921875 -0.109375 2.5 -0.109375 C 2.046875 -0.109375 1.6875 -0.375 1.453125 -0.75 C 1.1875 -1.15625 1.15625 -1.71875 1.15625 -2.125 C 1.15625 -2.5 1.1875 -3.09375 1.46875 -3.53125 C 1.671875 -3.84375 2.0625 -4.171875 2.59375 -4.171875 C 2.9375 -4.171875 3.359375 -4.03125 3.671875 -3.578125 C 3.78125 -3.40625 3.78125 -3.390625 3.78125 -3.203125 Z M 3.78125 -1.171875 "/>
</g>
<g id="glyph-2-20">
<path d="M 2.75 -1.859375 L 2.75 -2.4375 L 0.109375 -2.4375 L 0.109375 -1.859375 Z M 2.75 -1.859375 "/>
</g>
<g id="glyph-2-21">
<path d="M 5.171875 -2.140625 C 5.171875 -3.40625 4.203125 -4.390625 3.078125 -4.390625 C 2.296875 -4.390625 1.875 -3.921875 1.703125 -3.75 L 1.703125 -6.890625 L 0.28125 -6.78125 L 0.28125 -6.484375 C 0.96875 -6.484375 1.046875 -6.40625 1.046875 -5.921875 L 1.046875 0 L 1.296875 0 L 1.65625 -0.609375 C 1.8125 -0.390625 2.21875 0.109375 2.96875 0.109375 C 4.140625 0.109375 5.171875 -0.859375 5.171875 -2.140625 Z M 4.359375 -2.15625 C 4.359375 -1.78125 4.328125 -1.1875 4.046875 -0.75 C 3.828125 -0.4375 3.453125 -0.109375 2.921875 -0.109375 C 2.46875 -0.109375 2.109375 -0.34375 1.875 -0.71875 C 1.734375 -0.921875 1.734375 -0.953125 1.734375 -1.140625 L 1.734375 -3.1875 C 1.734375 -3.375 1.734375 -3.375 1.84375 -3.53125 C 2.234375 -4.09375 2.78125 -4.171875 3.015625 -4.171875 C 3.46875 -4.171875 3.828125 -3.921875 4.0625 -3.53125 C 4.328125 -3.125 4.359375 -2.5625 4.359375 -2.15625 Z M 4.359375 -2.15625 "/>
</g>
<g id="glyph-2-22">
<path d="M 4.125 -1.1875 C 4.125 -1.28125 4.03125 -1.28125 4 -1.28125 C 3.90625 -1.28125 3.890625 -1.25 3.859375 -1.1875 C 3.578125 -0.265625 2.9375 -0.140625 2.5625 -0.140625 C 2.03125 -0.140625 1.15625 -0.5625 1.15625 -2.171875 C 1.15625 -3.78125 1.984375 -4.203125 2.5 -4.203125 C 2.59375 -4.203125 3.21875 -4.1875 3.5625 -3.828125 C 3.15625 -3.8125 3.09375 -3.515625 3.09375 -3.375 C 3.09375 -3.125 3.28125 -2.921875 3.5625 -2.921875 C 3.8125 -2.921875 4.015625 -3.09375 4.015625 -3.390625 C 4.015625 -4.0625 3.265625 -4.453125 2.5 -4.453125 C 1.25 -4.453125 0.34375 -3.375 0.34375 -2.140625 C 0.34375 -0.875 1.328125 0.109375 2.46875 0.109375 C 3.8125 0.109375 4.125 -1.078125 4.125 -1.1875 Z M 4.125 -1.1875 "/>
</g>
<g id="glyph-2-23">
<path d="M 5.078125 0 L 5.078125 -0.3125 C 4.703125 -0.3125 4.484375 -0.3125 4.109375 -0.828125 L 2.859375 -2.609375 C 2.84375 -2.640625 2.796875 -2.6875 2.796875 -2.71875 C 2.796875 -2.765625 3.5 -3.359375 3.59375 -3.4375 C 4.21875 -3.9375 4.640625 -3.96875 4.84375 -3.96875 L 4.84375 -4.28125 C 4.5625 -4.25 4.4375 -4.25 4.15625 -4.25 C 3.796875 -4.25 3.1875 -4.265625 3.046875 -4.28125 L 3.046875 -3.96875 C 3.234375 -3.96875 3.328125 -3.859375 3.328125 -3.734375 C 3.328125 -3.53125 3.1875 -3.40625 3.109375 -3.34375 L 1.703125 -2.125 L 1.703125 -6.890625 L 0.28125 -6.78125 L 0.28125 -6.484375 C 0.96875 -6.484375 1.046875 -6.40625 1.046875 -5.921875 L 1.046875 -0.75 C 1.046875 -0.3125 0.9375 -0.3125 0.28125 -0.3125 L 0.28125 0 L 1.359375 -0.03125 L 2.453125 0 L 2.453125 -0.3125 C 1.78125 -0.3125 1.671875 -0.3125 1.671875 -0.75 L 1.671875 -1.78125 L 2.3125 -2.328125 C 3.078125 -1.265625 3.5 -0.71875 3.5 -0.53125 C 3.5 -0.34375 3.328125 -0.3125 3.140625 -0.3125 L 3.140625 0 L 4.21875 -0.03125 C 4.5 -0.03125 4.796875 -0.015625 5.078125 0 Z M 5.078125 0 "/>
</g>
<g id="glyph-2-24">
<path d="M 4.953125 -1.84375 C 4.953125 -2.84375 4.296875 -3.65625 3.46875 -3.859375 L 2.203125 -4.15625 C 1.578125 -4.3125 1.1875 -4.84375 1.1875 -5.421875 C 1.1875 -6.125 1.734375 -6.734375 2.5 -6.734375 C 4.15625 -6.734375 4.375 -5.09375 4.4375 -4.65625 C 4.453125 -4.59375 4.453125 -4.53125 4.5625 -4.53125 C 4.6875 -4.53125 4.6875 -4.578125 4.6875 -4.765625 L 4.6875 -6.765625 C 4.6875 -6.9375 4.6875 -7 4.578125 -7 C 4.515625 -7 4.5 -7 4.4375 -6.875 L 4.078125 -6.3125 C 3.78125 -6.59375 3.375 -7 2.5 -7 C 1.390625 -7 0.5625 -6.125 0.5625 -5.078125 C 0.5625 -4.25 1.078125 -3.53125 1.859375 -3.265625 C 1.96875 -3.21875 2.46875 -3.09375 3.171875 -2.9375 C 3.4375 -2.859375 3.734375 -2.796875 4.015625 -2.421875 C 4.21875 -2.171875 4.328125 -1.84375 4.328125 -1.515625 C 4.328125 -0.8125 3.828125 -0.09375 2.984375 -0.09375 C 2.703125 -0.09375 1.953125 -0.140625 1.421875 -0.625 C 0.84375 -1.15625 0.8125 -1.796875 0.8125 -2.15625 C 0.796875 -2.25 0.71875 -2.25 0.6875 -2.25 C 0.5625 -2.25 0.5625 -2.1875 0.5625 -2 L 0.5625 -0.015625 C 0.5625 0.15625 0.5625 0.21875 0.671875 0.21875 C 0.734375 0.21875 0.75 0.203125 0.8125 0.09375 C 0.8125 0.09375 0.84375 0.046875 1.171875 -0.484375 C 1.484375 -0.140625 2.109375 0.21875 3 0.21875 C 4.15625 0.21875 4.953125 -0.75 4.953125 -1.84375 Z M 4.953125 -1.84375 "/>
</g>
<g id="glyph-2-25">
<path d="M 7.171875 -3.375 C 7.171875 -5.390625 5.671875 -7 3.859375 -7 C 2.078125 -7 0.5625 -5.421875 0.5625 -3.375 C 0.5625 -1.328125 2.09375 0.21875 3.859375 0.21875 C 5.671875 0.21875 7.171875 -1.359375 7.171875 -3.375 Z M 6.140625 -3.515625 C 6.140625 -0.875 4.78125 -0.046875 3.859375 -0.046875 C 2.90625 -0.046875 1.578125 -0.921875 1.578125 -3.515625 C 1.578125 -6.078125 3.03125 -6.75 3.859375 -6.75 C 4.71875 -6.75 6.140625 -6.046875 6.140625 -3.515625 Z M 6.140625 -3.515625 "/>
</g>
<g id="glyph-2-26">
<path d="M 8.078125 0 L 8.078125 -0.3125 C 7.5625 -0.3125 7.3125 -0.3125 7.296875 -0.609375 L 7.296875 -2.5 C 7.296875 -3.359375 7.296875 -3.671875 7 -4.03125 C 6.859375 -4.1875 6.53125 -4.390625 5.953125 -4.390625 C 5.125 -4.390625 4.6875 -3.796875 4.515625 -3.421875 C 4.375 -4.28125 3.640625 -4.390625 3.1875 -4.390625 C 2.46875 -4.390625 2 -3.96875 1.71875 -3.34375 L 1.71875 -4.390625 L 0.3125 -4.28125 L 0.3125 -3.96875 C 1.015625 -3.96875 1.09375 -3.90625 1.09375 -3.421875 L 1.09375 -0.75 C 1.09375 -0.3125 0.984375 -0.3125 0.3125 -0.3125 L 0.3125 0 L 1.4375 -0.03125 L 2.546875 0 L 2.546875 -0.3125 C 1.890625 -0.3125 1.78125 -0.3125 1.78125 -0.75 L 1.78125 -2.578125 C 1.78125 -3.625 2.484375 -4.171875 3.125 -4.171875 C 3.75 -4.171875 3.859375 -3.640625 3.859375 -3.078125 L 3.859375 -0.75 C 3.859375 -0.3125 3.75 -0.3125 3.078125 -0.3125 L 3.078125 0 L 4.203125 -0.03125 L 5.3125 0 L 5.3125 -0.3125 C 4.65625 -0.3125 4.546875 -0.3125 4.546875 -0.75 L 4.546875 -2.578125 C 4.546875 -3.625 5.25 -4.171875 5.890625 -4.171875 C 6.515625 -4.171875 6.625 -3.640625 6.625 -3.078125 L 6.625 -0.75 C 6.625 -0.3125 6.515625 -0.3125 5.84375 -0.3125 L 5.84375 0 L 6.96875 -0.03125 Z M 8.078125 0 "/>
</g>
</g>
</defs>
<path fill-rule="nonzero" fill="rgb(96.899414%, 83.499146%, 77.2995%)" fill-opacity="1" stroke-width="0.79701" stroke-linecap="butt" stroke-linejoin="miter" stroke="rgb(0%, 0%, 0%)" stroke-opacity="1" stroke-miterlimit="10" d="M 0.00124904 -0.00138059 L 0.00124904 175.751854 L 323.154992 175.751854 L 323.154992 -0.00138059 Z M 0.00124904 -0.00138059 " transform="matrix(0.997892, 0, 0, -0.997892, 6.666722, 181.74081)"/>
<g fill="rgb(0%, 0%, 0%)" fill-opacity="1">
<use xlink:href="#glyph-0-0" x="131.068696" y="21.923496"/>
<use xlink:href="#glyph-0-1" x="138.435689" y="21.923496"/>
<use xlink:href="#glyph-0-2" x="145.802682" y="21.923496"/>
<use xlink:href="#glyph-0-2" x="153.169675" y="21.923496"/>
<use xlink:href="#glyph-0-3" x="160.536667" y="21.923496"/>
<use xlink:href="#glyph-0-4" x="167.90366" y="21.923496"/>
<use xlink:href="#glyph-0-5" x="175.270653" y="21.923496"/>
<use xlink:href="#glyph-0-0" x="182.637646" y="21.923496"/>
<use xlink:href="#glyph-0-1" x="190.004639" y="21.923496"/>
<use xlink:href="#glyph-0-2" x="197.371631" y="21.923496"/>
</g>
<path fill-rule="nonzero" fill="rgb(100%, 100%, 100%)" fill-opacity="1" stroke-width="0.3985" stroke-linecap="butt" stroke-linejoin="miter" stroke="rgb(0%, 0%, 0%)" stroke-opacity="1" stroke-miterlimit="10" d="M 16.113332 111.968986 L 165.306682 111.968986 L 165.306682 140.317797 L 16.113332 140.317797 Z M 16.113332 111.968986 " transform="matrix(0.997892, 0, 0, -0.997892, 6.666722, 181.74081)"/>
<g fill="rgb(0%, 0%, 0%)" fill-opacity="1">
<use xlink:href="#glyph-1-0" x="26.723152" y="57.736636"/>
<use xlink:href="#glyph-1-1" x="31.942514" y="57.736636"/>
<use xlink:href="#glyph-1-2" x="37.161876" y="57.736636"/>
<use xlink:href="#glyph-1-3" x="42.381239" y="57.736636"/>
<use xlink:href="#glyph-1-4" x="47.600601" y="57.736636"/>
<use xlink:href="#glyph-1-5" x="52.819963" y="57.736636"/>
<use xlink:href="#glyph-1-6" x="58.039326" y="57.736636"/>
<use xlink:href="#glyph-1-3" x="63.258688" y="57.736636"/>
<use xlink:href="#glyph-1-7" x="68.47805" y="57.736636"/>
<use xlink:href="#glyph-1-8" x="73.697413" y="57.736636"/>
<use xlink:href="#glyph-1-1" x="78.916775" y="57.736636"/>
<use xlink:href="#glyph-1-4" x="84.136137" y="57.736636"/>
<use xlink:href="#glyph-1-2" x="89.355499" y="57.736636"/>
<use xlink:href="#glyph-1-5" x="94.574862" y="57.736636"/>
<use xlink:href="#glyph-1-7" x="99.794224" y="57.736636"/>
<use xlink:href="#glyph-1-1" x="105.013586" y="57.736636"/>
<use xlink:href="#glyph-1-9" x="110.232949" y="57.736636"/>
<use xlink:href="#glyph-1-10" x="115.452311" y="57.736636"/>
<use xlink:href="#glyph-1-3" x="120.671673" y="57.736636"/>
<use xlink:href="#glyph-1-11" x="125.891036" y="57.736636"/>
<use xlink:href="#glyph-1-12" x="131.110398" y="57.736636"/>
<use xlink:href="#glyph-1-1" x="136.32976" y="57.736636"/>
<use xlink:href="#glyph-1-4" x="141.549123" y="57.736636"/>
<use xlink:href="#glyph-1-13" x="146.768485" y="57.736636"/>
<use xlink:href="#glyph-1-14" x="151.987847" y="57.736636"/>
<use xlink:href="#glyph-1-11" x="157.20721" y="57.736636"/>
<use xlink:href="#glyph-1-15" x="162.426572" y="57.736636"/>
</g>
<path fill-rule="nonzero" fill="rgb(100%, 100%, 100%)" fill-opacity="1" stroke-width="0.3985" stroke-linecap="butt" stroke-linejoin="miter" stroke="rgb(0%, 0%, 0%)" stroke-opacity="1" stroke-miterlimit="10" d="M 65.197251 69.050405 L 116.222763 69.050405 L 116.222763 88.893007 L 65.197251 88.893007 Z M 65.197251 69.050405 " transform="matrix(0.997892, 0, 0, -0.997892, 6.666722, 181.74081)"/>
<g fill="rgb(0%, 0%, 0%)" fill-opacity="1">
<use xlink:href="#glyph-2-0" x="81.789158" y="106.359082"/>
<use xlink:href="#glyph-2-1" x="89.383579" y="106.359082"/>
<use xlink:href="#glyph-2-2" x="93.801645" y="106.359082"/>
<use xlink:href="#glyph-2-3" x="99.325221" y="106.359082"/>
<use xlink:href="#glyph-2-4" x="104.296043" y="106.359082"/>
<use xlink:href="#glyph-2-1" x="108.162347" y="106.359082"/>
</g>
<path fill-rule="nonzero" fill="rgb(100%, 100%, 100%)" fill-opacity="1" stroke-width="0.3985" stroke-linecap="butt" stroke-linejoin="miter" stroke="rgb(0%, 0%, 0%)" stroke-opacity="1" stroke-miterlimit="10" d="M 65.154192 26.131823 L 116.265822 26.131823 L 116.265822 45.974425 L 65.154192 45.974425 Z M 65.154192 26.131823 " transform="matrix(0.997892, 0, 0, -0.997892, 6.666722, 181.74081)"/>
<g fill="rgb(0%, 0%, 0%)" fill-opacity="1">
<use xlink:href="#glyph-2-5" x="74.664446" y="148.220767"/>
<use xlink:href="#glyph-2-6" x="80.739784" y="148.220767"/>
<use xlink:href="#glyph-2-7" x="83.501572" y="148.220767"/>
<use xlink:href="#glyph-2-8" x="89.025149" y="148.220767"/>
<use xlink:href="#glyph-2-9" x="96.205003" y="148.220767"/>
<use xlink:href="#glyph-2-10" x="100.099144" y="148.220767"/>
<use xlink:href="#glyph-2-7" x="105.346343" y="148.220767"/>
<use xlink:href="#glyph-2-4" x="110.86992" y="148.220767"/>
<use xlink:href="#glyph-2-11" x="114.736225" y="148.220767"/>
</g>
<path fill-rule="nonzero" fill="rgb(86.274719%, 93.725586%, 85.096741%)" fill-opacity="1" stroke-width="0.3985" stroke-linecap="butt" stroke-linejoin="miter" stroke="rgb(0%, 0%, 0%)" stroke-opacity="1" stroke-miterlimit="10" d="M 30.076355 -33.795262 L 151.343659 -33.795262 L 151.343659 -5.44645 L 30.076355 -5.44645 Z M 30.076355 -33.795262 " transform="matrix(0.997892, 0, 0, -0.997892, 6.666722, 181.74081)"/>
<g fill="rgb(0%, 0%, 0%)" fill-opacity="1">
<use xlink:href="#glyph-2-12" x="60.869811" y="198.779832"/>
<use xlink:href="#glyph-2-13" x="68.602421" y="198.779832"/>
<use xlink:href="#glyph-2-11" x="74.125997" y="198.779832"/>
</g>
<g fill="rgb(0%, 0%, 0%)" fill-opacity="1">
<use xlink:href="#glyph-2-14" x="78.828394" y="198.779832"/>
<use xlink:href="#glyph-2-13" x="86.008249" y="198.779832"/>
</g>
<g fill="rgb(0%, 0%, 0%)" fill-opacity="1">
<use xlink:href="#glyph-2-7" x="94.832451" y="198.779832"/>
<use xlink:href="#glyph-2-15" x="100.356027" y="198.779832"/>
<use xlink:href="#glyph-2-3" x="103.117815" y="198.779832"/>
<use xlink:href="#glyph-2-6" x="108.088637" y="198.779832"/>
<use xlink:href="#glyph-2-13" x="110.850425" y="198.779832"/>
</g>
<g fill="rgb(0%, 0%, 0%)" fill-opacity="1">
<use xlink:href="#glyph-2-4" x="116.105577" y="198.779832"/>
<use xlink:href="#glyph-2-1" x="119.971882" y="198.779832"/>
<use xlink:href="#glyph-2-16" x="124.389948" y="198.779832"/>
<use xlink:href="#glyph-2-4" x="129.637147" y="198.779832"/>
</g>
<g fill="rgb(0%, 0%, 0%)" fill-opacity="1">
<use xlink:href="#glyph-2-3" x="40.654947" y="210.709805"/>
<use xlink:href="#glyph-2-17" x="45.625768" y="210.709805"/>
<use xlink:href="#glyph-2-4" x="48.663934" y="210.709805"/>
<use xlink:href="#glyph-2-1" x="52.530239" y="210.709805"/>
<use xlink:href="#glyph-2-9" x="56.948305" y="210.709805"/>
</g>
<g fill="rgb(0%, 0%, 0%)" fill-opacity="1">
<use xlink:href="#glyph-2-18" x="64.153013" y="210.709805"/>
<use xlink:href="#glyph-2-4" x="68.073997" y="210.709805"/>
<use xlink:href="#glyph-2-11" x="71.940301" y="210.709805"/>
<use xlink:href="#glyph-2-9" x="76.911123" y="210.709805"/>
<use xlink:href="#glyph-2-1" x="80.805264" y="210.709805"/>
<use xlink:href="#glyph-2-19" x="85.22333" y="210.709805"/>
<use xlink:href="#glyph-2-20" x="90.746907" y="210.709805"/>
<use xlink:href="#glyph-2-21" x="94.060456" y="210.709805"/>
<use xlink:href="#glyph-2-15" x="99.584033" y="210.709805"/>
<use xlink:href="#glyph-2-11" x="102.345821" y="210.709805"/>
</g>
<g fill="rgb(0%, 0%, 0%)" fill-opacity="1">
<use xlink:href="#glyph-2-22" x="107.595008" y="210.709805"/>
</g>
<g fill="rgb(0%, 0%, 0%)" fill-opacity="1">
<use xlink:href="#glyph-2-23" x="111.74465" y="210.709805"/>
</g>
<g fill="rgb(0%, 0%, 0%)" fill-opacity="1">
<use xlink:href="#glyph-2-17" x="120.292474" y="210.709805"/>
<use xlink:href="#glyph-2-3" x="123.33064" y="210.709805"/>
<use xlink:href="#glyph-2-15" x="128.301461" y="210.709805"/>
<use xlink:href="#glyph-2-15" x="131.063249" y="210.709805"/>
<use xlink:href="#glyph-2-21" x="133.825038" y="210.709805"/>
<use xlink:href="#glyph-2-3" x="139.348614" y="210.709805"/>
<use xlink:href="#glyph-2-22" x="144.319436" y="210.709805"/>
</g>
<g fill="rgb(0%, 0%, 0%)" fill-opacity="1">
<use xlink:href="#glyph-2-23" x="148.469077" y="210.709805"/>
</g>
<path fill-rule="nonzero" fill="rgb(100%, 100%, 100%)" fill-opacity="1" stroke-width="0.3985" stroke-linecap="butt" stroke-linejoin="miter" stroke="rgb(0%, 0%, 0%)" stroke-opacity="1" stroke-miterlimit="10" d="M 206.933478 111.968986 L 274.963579 111.968986 L 274.963579 140.317797 L 206.933478 140.317797 Z M 206.933478 111.968986 " transform="matrix(0.997892, 0, 0, -0.997892, 6.666722, 181.74081)"/>
<g fill="rgb(0%, 0%, 0%)" fill-opacity="1">
<use xlink:href="#glyph-1-6" x="226.2291" y="57.736636"/>
<use xlink:href="#glyph-1-7" x="231.448462" y="57.736636"/>
<use xlink:href="#glyph-1-2" x="236.667825" y="57.736636"/>
<use xlink:href="#glyph-1-15" x="241.887187" y="57.736636"/>
<use xlink:href="#glyph-1-13" x="247.106549" y="57.736636"/>
<use xlink:href="#glyph-1-4" x="252.325912" y="57.736636"/>
<use xlink:href="#glyph-1-16" x="257.545274" y="57.736636"/>
<use xlink:href="#glyph-1-4" x="262.764636" y="57.736636"/>
</g>
<path fill-rule="nonzero" fill="rgb(100%, 100%, 100%)" fill-opacity="1" stroke-width="0.3985" stroke-linecap="butt" stroke-linejoin="miter" stroke="rgb(0%, 0%, 0%)" stroke-opacity="1" stroke-miterlimit="10" d="M 215.435773 69.050405 L 266.461284 69.050405 L 266.461284 88.893007 L 215.435773 88.893007 Z M 215.435773 69.050405 " transform="matrix(0.997892, 0, 0, -0.997892, 6.666722, 181.74081)"/>
<g fill="rgb(0%, 0%, 0%)" fill-opacity="1">
<use xlink:href="#glyph-2-24" x="235.770338" y="106.359082"/>
<use xlink:href="#glyph-2-4" x="241.293915" y="106.359082"/>
<use xlink:href="#glyph-2-11" x="245.16022" y="106.359082"/>
<use xlink:href="#glyph-2-9" x="250.131041" y="106.359082"/>
<use xlink:href="#glyph-2-1" x="254.025182" y="106.359082"/>
</g>
<path fill-rule="nonzero" fill="rgb(100%, 100%, 100%)" fill-opacity="1" stroke-width="0.3985" stroke-linecap="butt" stroke-linejoin="miter" stroke="rgb(0%, 0%, 0%)" stroke-opacity="1" stroke-miterlimit="10" d="M 215.388799 26.131823 L 266.504343 26.131823 L 266.504343 45.974425 L 215.388799 45.974425 Z M 215.388799 26.131823 " transform="matrix(0.997892, 0, 0, -0.997892, 6.666722, 181.74081)"/>
<g fill="rgb(0%, 0%, 0%)" fill-opacity="1">
<use xlink:href="#glyph-2-5" x="224.585981" y="148.220767"/>
<use xlink:href="#glyph-2-6" x="230.661318" y="148.220767"/>
<use xlink:href="#glyph-2-7" x="233.423107" y="148.220767"/>
<use xlink:href="#glyph-2-8" x="238.946683" y="148.220767"/>
<use xlink:href="#glyph-2-9" x="246.126537" y="148.220767"/>
<use xlink:href="#glyph-2-10" x="250.020679" y="148.220767"/>
<use xlink:href="#glyph-2-7" x="255.267878" y="148.220767"/>
<use xlink:href="#glyph-2-4" x="260.791454" y="148.220767"/>
<use xlink:href="#glyph-2-11" x="264.657759" y="148.220767"/>
</g>
<path fill-rule="nonzero" fill="rgb(100%, 100%, 100%)" fill-opacity="1" stroke-width="0.3985" stroke-linecap="butt" stroke-linejoin="miter" stroke="rgb(0%, 0%, 0%)" stroke-opacity="1" stroke-miterlimit="10" d="M 189.474807 -34.229771 L 292.42225 -34.229771 L 292.42225 -5.44645 L 189.474807 -5.44645 Z M 189.474807 -34.229771 " transform="matrix(0.997892, 0, 0, -0.997892, 6.666722, 181.74081)"/>
<g fill="rgb(0%, 0%, 0%)" fill-opacity="1">
<use xlink:href="#glyph-2-25" x="226.948231" y="198.057817"/>
<use xlink:href="#glyph-2-13" x="234.680841" y="198.057817"/>
<use xlink:href="#glyph-2-15" x="240.204417" y="198.057817"/>
<use xlink:href="#glyph-2-10" x="242.966206" y="198.057817"/>
</g>
<g fill="rgb(0%, 0%, 0%)" fill-opacity="1">
<use xlink:href="#glyph-1-17" x="251.606072" y="198.057817"/>
<use xlink:href="#glyph-1-10" x="256.825434" y="198.057817"/>
<use xlink:href="#glyph-1-18" x="262.044797" y="198.057817"/>
</g>
<g fill="rgb(0%, 0%, 0%)" fill-opacity="1">
<use xlink:href="#glyph-2-6" x="199.717904" y="209.98779"/>
<use xlink:href="#glyph-2-18" x="202.479692" y="209.98779"/>
</g>
<g fill="rgb(0%, 0%, 0%)" fill-opacity="1">
<use xlink:href="#glyph-2-6" x="209.711243" y="209.98779"/>
<use xlink:href="#glyph-2-26" x="212.473031" y="209.98779"/>
<use xlink:href="#glyph-2-26" x="220.757402" y="209.98779"/>
<use xlink:href="#glyph-2-1" x="229.041773" y="209.98779"/>
<use xlink:href="#glyph-2-19" x="233.459838" y="209.98779"/>
<use xlink:href="#glyph-2-6" x="238.983415" y="209.98779"/>
<use xlink:href="#glyph-2-3" x="241.745203" y="209.98779"/>
<use xlink:href="#glyph-2-4" x="246.716025" y="209.98779"/>
<use xlink:href="#glyph-2-1" x="250.582329" y="209.98779"/>
<use xlink:href="#glyph-2-15" x="255.000395" y="209.98779"/>
<use xlink:href="#glyph-2-10" x="257.762184" y="209.98779"/>
</g>
<g fill="rgb(0%, 0%, 0%)" fill-opacity="1">
<use xlink:href="#glyph-2-23" x="266.319949" y="209.98779"/>
<use xlink:href="#glyph-2-13" x="271.567148" y="209.98779"/>
<use xlink:href="#glyph-2-11" x="277.090725" y="209.98779"/>
</g>
<g fill="rgb(0%, 0%, 0%)" fill-opacity="1">
<use xlink:href="#glyph-2-14" x="281.793122" y="209.98779"/>
<use xlink:href="#glyph-2-13" x="288.972976" y="209.98779"/>
</g>
<path fill="none" stroke-width="0.79701" stroke-linecap="butt" stroke-linejoin="miter" stroke="rgb(0%, 0%, 0%)" stroke-opacity="1" stroke-miterlimit="10" d="M 90.70805 111.769346 L 90.70805 95.269728 " transform="matrix(0.997892, 0, 0, -0.997892, 6.666722, 181.74081)"/>
<path fill-rule="nonzero" fill="rgb(0%, 0%, 0%)" fill-opacity="1" stroke-width="0.79701" stroke-linecap="butt" stroke-linejoin="miter" stroke="rgb(0%, 0%, 0%)" stroke-opacity="1" stroke-miterlimit="10" d="M 4.533294 -0.00165019 C 3.977435 0.139272 1.530872 0.922172 0.000302481 1.771618 L 0.000302481 -1.771004 C 1.530872 -0.921558 3.977435 -0.138658 4.533294 -0.00165019 Z M 4.533294 -0.00165019 " transform="matrix(0, 0.997892, 0.997892, 0, 97.18524, 86.671573)"/>
<path fill="none" stroke-width="0.79701" stroke-linecap="butt" stroke-linejoin="miter" stroke="rgb(0%, 0%, 0%)" stroke-opacity="1" stroke-miterlimit="10" d="M 90.70805 68.850765 L 90.70805 52.351146 " transform="matrix(0.997892, 0, 0, -0.997892, 6.666722, 181.74081)"/>
<path fill-rule="nonzero" fill="rgb(0%, 0%, 0%)" fill-opacity="1" stroke-width="0.79701" stroke-linecap="butt" stroke-linejoin="miter" stroke="rgb(0%, 0%, 0%)" stroke-opacity="1" stroke-miterlimit="10" d="M 4.533175 -0.00165019 C 3.977316 0.139272 1.530753 0.922172 0.000183684 1.771618 L 0.000183684 -1.771004 C 1.530753 -0.921558 3.977316 -0.138658 4.533175 -0.00165019 Z M 4.533175 -0.00165019 " transform="matrix(0, 0.997892, 0.997892, 0, 97.18524, 129.499817)"/>
<path fill="none" stroke-width="0.79701" stroke-linecap="butt" stroke-linejoin="miter" stroke="rgb(0%, 0%, 0%)" stroke-opacity="1" stroke-miterlimit="10" d="M 90.70805 25.932184 L 90.70805 0.93027 " transform="matrix(0.997892, 0, 0, -0.997892, 6.666722, 181.74081)"/>
<path fill-rule="nonzero" fill="rgb(0%, 0%, 0%)" fill-opacity="1" stroke-width="0.79701" stroke-linecap="butt" stroke-linejoin="miter" stroke="rgb(0%, 0%, 0%)" stroke-opacity="1" stroke-miterlimit="10" d="M 4.535225 -0.00165019 C 3.975452 0.139272 1.528889 0.922172 -0.00168048 1.771618 L -0.00168048 -1.771004 C 1.528889 -0.921558 3.975452 -0.138658 4.535225 -0.00165019 Z M 4.535225 -0.00165019 " transform="matrix(0, 0.997892, 0.997892, 0, 97.18524, 180.814177)"/>
<path fill="none" stroke-width="0.79701" stroke-linecap="butt" stroke-linejoin="miter" stroke="rgb(0%, 0%, 0%)" stroke-opacity="1" stroke-miterlimit="10" d="M 240.946571 111.769346 L 240.946571 95.269728 " transform="matrix(0.997892, 0, 0, -0.997892, 6.666722, 181.74081)"/>
<path fill-rule="nonzero" fill="rgb(0%, 0%, 0%)" fill-opacity="1" stroke-width="0.79701" stroke-linecap="butt" stroke-linejoin="miter" stroke="rgb(0%, 0%, 0%)" stroke-opacity="1" stroke-miterlimit="10" d="M 4.533294 -0.00130898 C 3.977435 0.139613 1.530872 0.918599 0.000302481 1.77196 L 0.000302481 -1.770663 C 1.530872 -0.921217 3.977435 -0.138316 4.533294 -0.00130898 Z M 4.533294 -0.00130898 " transform="matrix(0, 0.997892, 0.997892, 0, 247.106775, 86.671573)"/>
<path fill="none" stroke-width="0.79701" stroke-linecap="butt" stroke-linejoin="miter" stroke="rgb(0%, 0%, 0%)" stroke-opacity="1" stroke-miterlimit="10" d="M 240.946571 68.850765 L 240.946571 52.351146 " transform="matrix(0.997892, 0, 0, -0.997892, 6.666722, 181.74081)"/>
<path fill-rule="nonzero" fill="rgb(0%, 0%, 0%)" fill-opacity="1" stroke-width="0.79701" stroke-linecap="butt" stroke-linejoin="miter" stroke="rgb(0%, 0%, 0%)" stroke-opacity="1" stroke-miterlimit="10" d="M 4.533175 -0.00130898 C 3.977316 0.139613 1.530753 0.918599 0.000183684 1.77196 L 0.000183684 -1.770663 C 1.530753 -0.921217 3.977316 -0.138316 4.533175 -0.00130898 Z M 4.533175 -0.00130898 " transform="matrix(0, 0.997892, 0.997892, 0, 247.106775, 129.499817)"/>
<path fill="none" stroke-width="0.79701" stroke-linecap="butt" stroke-linejoin="miter" stroke="rgb(0%, 0%, 0%)" stroke-opacity="1" stroke-miterlimit="10" d="M 240.946571 25.932184 L 240.946571 0.93027 " transform="matrix(0.997892, 0, 0, -0.997892, 6.666722, 181.74081)"/>
<path fill-rule="nonzero" fill="rgb(0%, 0%, 0%)" fill-opacity="1" stroke-width="0.79701" stroke-linecap="butt" stroke-linejoin="miter" stroke="rgb(0%, 0%, 0%)" stroke-opacity="1" stroke-miterlimit="10" d="M 4.535225 -0.00130898 C 3.975452 0.139613 1.528889 0.918599 -0.00168048 1.77196 L -0.00168048 -1.770663 C 1.528889 -0.921217 3.975452 -0.138316 4.535225 -0.00130898 Z M 4.535225 -0.00130898 " transform="matrix(0, 0.997892, 0.997892, 0, 247.106775, 180.814177)"/>
</svg>
