<?xml version="1.0" encoding="UTF-8"?>
<svg xmlns="http://www.w3.org/2000/svg" xmlns:xlink="http://www.w3.org/1999/xlink" width="796.05" height="202.6" viewBox="0 0 796.05 202.6">
<defs>
<g>
<g id="glyph-0-0">
<path d="M 6.203125 -4.9375 C 6.203125 -5.90625 5.21875 -6.78125 3.859375 -6.78125 L 0.34375 -6.78125 L 0.34375 -6.484375 L 0.59375 -6.484375 C 1.34375 -6.484375 1.375 -6.375 1.375 -6.015625 L 1.375 -0.78125 C 1.375 -0.421875 1.34375 -0.3125 0.59375 -0.3125 L 0.34375 -0.3125 L 0.34375 0 C 0.703125 -0.03125 1.4375 -0.03125 1.8125 -0.03125 C 2.1875 -0.03125 2.9375 -0.03125 3.28125 0 L 3.28125 -0.3125 L 3.046875 -0.3125 C 2.28125 -0.3125 2.25 -0.421875 2.25 -0.78125 L 2.25 -3.140625 L 3.9375 -3.140625 C 5.125 -3.140625 6.203125 -3.9375 6.203125 -4.9375 Z M 5.171875 -4.9375 C 5.171875 -4.46875 5.171875 -3.40625 3.59375 -3.40625 L 2.21875 -3.40625 L 2.21875 -6.078125 C 2.21875 -6.40625 2.25 -6.484375 2.71875 -6.484375 L 3.59375 -6.484375 C 5.171875 -6.484375 5.171875 -5.421875 5.171875 -4.9375 Z M 5.171875 -4.9375 "/>
</g>
<g id="glyph-0-1">
<path d="M 5.3125 0 L 5.3125 -0.3125 C 4.625 -0.3125 4.546875 -0.375 4.546875 -0.859375 L 4.546875 -4.390625 L 3.078125 -4.28125 L 3.078125 -3.96875 C 3.78125 -3.96875 3.859375 -3.90625 3.859375 -3.421875 L 3.859375 -1.65625 C 3.859375 -0.78125 3.375 -0.109375 2.65625 -0.109375 C 1.8125 -0.109375 1.78125 -0.578125 1.78125 -1.09375 L 1.78125 -4.390625 L 0.3125 -4.28125 L 0.3125 -3.96875 C 1.09375 -3.96875 1.09375 -3.9375 1.09375 -3.0625 L 1.09375 -1.5625 C 1.09375 -0.796875 1.09375 0.109375 2.609375 0.109375 C 3.15625 0.109375 3.59375 -0.171875 3.890625 -0.78125 L 3.890625 0.109375 Z M 5.3125 0 "/>
</g>
<g id="glyph-0-2">
<path d="M 5.171875 -2.140625 C 5.171875 -3.40625 4.203125 -4.390625 3.078125 -4.390625 C 2.296875 -4.390625 1.875 -3.921875 1.703125 -3.75 L 1.703125 -6.890625 L 0.28125 -6.78125 L 0.28125 -6.484375 C 0.96875 -6.484375 1.046875 -6.40625 1.046875 -5.921875 L 1.046875 0 L 1.296875 0 L 1.65625 -0.609375 C 1.8125 -0.390625 2.21875 0.109375 2.96875 0.109375 C 4.140625 0.109375 5.171875 -0.859375 5.171875 -2.140625 Z M 4.359375 -2.15625 C 4.359375 -1.78125 4.328125 -1.1875 4.046875 -0.75 C 3.828125 -0.4375 3.453125 -0.109375 2.921875 -0.109375 C 2.46875 -0.109375 2.109375 -0.34375 1.875 -0.71875 C 1.734375 -0.921875 1.734375 -0.953125 1.734375 -1.140625 L 1.734375 -3.1875 C 1.734375 -3.375 1.734375 -3.375 1.84375 -3.53125 C 2.234375 -4.09375 2.78125 -4.171875 3.015625 -4.171875 C 3.46875 -4.171875 3.828125 -3.921875 4.0625 -3.53125 C 4.328125 -3.125 4.359375 -2.5625 4.359375 -2.15625 Z M 4.359375 -2.15625 "/>
</g>
<g id="glyph-0-3">
<path d="M 2.53125 0 L 2.53125 -0.3125 C 1.875 -0.3125 1.765625 -0.3125 1.765625 -0.75 L 1.765625 -6.890625 L 0.328125 -6.78125 L 0.328125 -6.484375 C 1.03125 -6.484375 1.109375 -6.40625 1.109375 -5.921875 L 1.109375 -0.75 C 1.109375 -0.3125 1 -0.3125 0.328125 -0.3125 L 0.328125 0 L 1.4375 -0.03125 Z M 2.53125 0 "/>
</g>
<g id="glyph-0-4">
<path d="M 2.453125 0 L 2.453125 -0.3125 C 1.796875 -0.3125 1.765625 -0.359375 1.765625 -0.75 L 1.765625 -4.390625 L 0.375 -4.28125 L 0.375 -3.96875 C 1.015625 -3.96875 1.109375 -3.921875 1.109375 -3.421875 L 1.109375 -0.75 C 1.109375 -0.3125 1 -0.3125 0.328125 -0.3125 L 0.328125 0 L 1.421875 -0.03125 C 1.765625 -0.03125 2.109375 -0.015625 2.453125 0 Z M 1.90625 -6 C 1.90625 -6.265625 1.671875 -6.53125 1.375 -6.53125 C 1.046875 -6.53125 0.84375 -6.25 0.84375 -6 C 0.84375 -5.734375 1.078125 -5.46875 1.375 -5.46875 C 1.703125 -5.46875 1.90625 -5.75 1.90625 -6 Z M 1.90625 -6 "/>
</g>
<g id="glyph-0-5">
<path d="M 4.125 -1.1875 C 4.125 -1.28125 4.03125 -1.28125 4 -1.28125 C 3.90625 -1.28125 3.890625 -1.25 3.859375 -1.1875 C 3.578125 -0.265625 2.9375 -0.140625 2.5625 -0.140625 C 2.03125 -0.140625 1.15625 -0.5625 1.15625 -2.171875 C 1.15625 -3.78125 1.984375 -4.203125 2.5 -4.203125 C 2.59375 -4.203125 3.21875 -4.1875 3.5625 -3.828125 C 3.15625 -3.8125 3.09375 -3.515625 3.09375 -3.375 C 3.09375 -3.125 3.28125 -2.921875 3.5625 -2.921875 C 3.8125 -2.921875 4.015625 -3.09375 4.015625 -3.390625 C 4.015625 -4.0625 3.265625 -4.453125 2.5 -4.453125 C 1.25 -4.453125 0.34375 -3.375 0.34375 -2.140625 C 0.34375 -0.875 1.328125 0.109375 2.46875 0.109375 C 3.8125 0.109375 4.125 -1.078125 4.125 -1.1875 Z M 4.125 -1.1875 "/>
</g>
<g id="glyph-0-6">
<path d="M 3.625 -3.78125 C 3.625 -4.109375 3.3125 -4.390625 2.875 -4.390625 C 2.15625 -4.390625 1.796875 -3.734375 1.65625 -3.296875 L 1.65625 -4.390625 L 0.28125 -4.28125 L 0.28125 -3.96875 C 0.96875 -3.96875 1.046875 -3.90625 1.046875 -3.421875 L 1.046875 -0.75 C 1.046875 -0.3125 0.9375 -0.3125 0.28125 -0.3125 L 0.28125 0 L 1.40625 -0.03125 C 1.8125 -0.03125 2.28125 -0.03125 2.671875 0 L 2.671875 -0.3125 L 2.46875 -0.3125 C 1.734375 -0.3125 1.703125 -0.421875 1.703125 -0.78125 L 1.703125 -2.3125 C 1.703125 -3.296875 2.125 -4.171875 2.875 -4.171875 C 2.953125 -4.171875 2.96875 -4.171875 2.984375 -4.15625 C 2.96875 -4.15625 2.765625 -4.03125 2.765625 -3.78125 C 2.765625 -3.5 2.96875 -3.34375 3.1875 -3.34375 C 3.375 -3.34375 3.625 -3.46875 3.625 -3.78125 Z M 3.625 -3.78125 "/>
</g>
<g id="glyph-0-7">
<path d="M 4.125 -1.1875 C 4.125 -1.28125 4.046875 -1.296875 4 -1.296875 C 3.90625 -1.296875 3.890625 -1.25 3.859375 -1.15625 C 3.515625 -0.140625 2.625 -0.140625 2.53125 -0.140625 C 2.03125 -0.140625 1.625 -0.4375 1.40625 -0.8125 C 1.109375 -1.28125 1.109375 -1.9375 1.109375 -2.296875 L 3.875 -2.296875 C 4.09375 -2.296875 4.125 -2.296875 4.125 -2.5 C 4.125 -3.484375 3.59375 -4.453125 2.34375 -4.453125 C 1.1875 -4.453125 0.28125 -3.421875 0.28125 -2.1875 C 0.28125 -0.859375 1.328125 0.109375 2.46875 0.109375 C 3.671875 0.109375 4.125 -1 4.125 -1.1875 Z M 3.46875 -2.5 L 1.109375 -2.5 C 1.171875 -3.984375 2 -4.234375 2.34375 -4.234375 C 3.375 -4.234375 3.46875 -2.890625 3.46875 -2.5 Z M 3.46875 -2.5 "/>
</g>
<g id="glyph-0-8">
<path d="M 5.171875 -2.140625 C 5.171875 -3.40625 4.21875 -4.390625 3.09375 -4.390625 C 2.328125 -4.390625 1.90625 -3.953125 1.703125 -3.734375 L 1.703125 -4.390625 L 0.28125 -4.28125 L 0.28125 -3.96875 C 0.984375 -3.96875 1.046875 -3.921875 1.046875 -3.484375 L 1.046875 1.171875 C 1.046875 1.625 0.9375 1.625 0.28125 1.625 L 0.28125 1.921875 L 1.390625 1.890625 L 2.515625 1.921875 L 2.515625 1.625 C 1.84375 1.625 1.734375 1.625 1.734375 1.171875 L 1.734375 -0.59375 C 1.78125 -0.421875 2.203125 0.109375 2.96875 0.109375 C 4.140625 0.109375 5.171875 -0.859375 5.171875 -2.140625 Z M 4.359375 -2.140625 C 4.359375 -0.9375 3.65625 -0.109375 2.921875 -0.109375 C 2.53125 -0.109375 2.140625 -0.3125 1.875 -0.71875 C 1.734375 -0.921875 1.734375 -0.9375 1.734375 -1.140625 L 1.734375 -3.34375 C 2.03125 -3.859375 2.515625 -4.140625 3.015625 -4.140625 C 3.75 -4.140625 4.359375 -3.265625 4.359375 -2.140625 Z M 4.359375 -2.140625 "/>
</g>
<g id="glyph-0-9">
<path d="M 4.6875 -2.125 C 4.6875 -3.40625 3.6875 -4.453125 2.484375 -4.453125 C 1.25 -4.453125 0.28125 -3.375 0.28125 -2.125 C 0.28125 -0.84375 1.3125 0.109375 2.46875 0.109375 C 3.671875 0.109375 4.6875 -0.859375 4.6875 -2.125 Z M 3.859375 -2.203125 C 3.859375 -1.84375 3.859375 -1.3125 3.640625 -0.875 C 3.421875 -0.421875 2.984375 -0.140625 2.484375 -0.140625 C 2.0625 -0.140625 1.625 -0.34375 1.34375 -0.8125 C 1.109375 -1.25 1.109375 -1.84375 1.109375 -2.203125 C 1.109375 -2.59375 1.109375 -3.125 1.34375 -3.5625 C 1.609375 -4.03125 2.078125 -4.234375 2.46875 -4.234375 C 2.90625 -4.234375 3.34375 -4.015625 3.59375 -3.59375 C 3.859375 -3.15625 3.859375 -2.578125 3.859375 -2.203125 Z M 3.859375 -2.203125 "/>
</g>
<g id="glyph-0-10">
<path d="M 5.046875 -3.96875 L 5.046875 -4.28125 C 4.8125 -4.265625 4.53125 -4.25 4.296875 -4.25 L 3.4375 -4.28125 L 3.4375 -3.96875 C 3.8125 -3.96875 3.921875 -3.734375 3.921875 -3.546875 C 3.921875 -3.453125 3.890625 -3.421875 3.859375 -3.3125 L 2.84375 -0.78125 L 1.734375 -3.546875 C 1.671875 -3.671875 1.671875 -3.71875 1.671875 -3.71875 C 1.671875 -3.96875 2.0625 -3.96875 2.234375 -3.96875 L 2.234375 -4.28125 L 1.15625 -4.25 C 0.890625 -4.25 0.484375 -4.265625 0.1875 -4.28125 L 0.1875 -3.96875 C 0.8125 -3.96875 0.859375 -3.921875 0.984375 -3.609375 L 2.421875 -0.078125 C 2.46875 0.0625 2.5 0.109375 2.625 0.109375 C 2.75 0.109375 2.796875 0.015625 2.828125 -0.078125 L 4.140625 -3.3125 C 4.21875 -3.53125 4.390625 -3.96875 5.046875 -3.96875 Z M 5.046875 -3.96875 "/>
</g>
<g id="glyph-0-11">
<path d="M 4.796875 -0.890625 L 4.796875 -1.4375 L 4.546875 -1.4375 L 4.546875 -0.890625 C 4.546875 -0.3125 4.296875 -0.25 4.1875 -0.25 C 3.859375 -0.25 3.828125 -0.703125 3.828125 -0.75 L 3.828125 -2.734375 C 3.828125 -3.15625 3.828125 -3.53125 3.46875 -3.90625 C 3.078125 -4.296875 2.578125 -4.453125 2.109375 -4.453125 C 1.296875 -4.453125 0.609375 -3.984375 0.609375 -3.328125 C 0.609375 -3.03125 0.8125 -2.859375 1.0625 -2.859375 C 1.34375 -2.859375 1.515625 -3.0625 1.515625 -3.3125 C 1.515625 -3.4375 1.46875 -3.765625 1.015625 -3.78125 C 1.28125 -4.125 1.765625 -4.234375 2.09375 -4.234375 C 2.578125 -4.234375 3.140625 -3.84375 3.140625 -2.96875 L 3.140625 -2.59375 C 2.640625 -2.5625 1.9375 -2.53125 1.3125 -2.234375 C 0.5625 -1.890625 0.3125 -1.375 0.3125 -0.9375 C 0.3125 -0.140625 1.28125 0.109375 1.90625 0.109375 C 2.5625 0.109375 3.015625 -0.28125 3.203125 -0.75 C 3.25 -0.359375 3.515625 0.0625 3.984375 0.0625 C 4.1875 0.0625 4.796875 -0.078125 4.796875 -0.890625 Z M 3.140625 -1.390625 C 3.140625 -0.453125 2.421875 -0.109375 1.984375 -0.109375 C 1.484375 -0.109375 1.078125 -0.453125 1.078125 -0.953125 C 1.078125 -1.5 1.5 -2.328125 3.140625 -2.390625 Z M 3.140625 -1.390625 "/>
</g>
<g id="glyph-0-12">
<path d="M 3.296875 -1.234375 L 3.296875 -1.796875 L 3.046875 -1.796875 L 3.046875 -1.25 C 3.046875 -0.515625 2.75 -0.140625 2.390625 -0.140625 C 1.71875 -0.140625 1.71875 -1.046875 1.71875 -1.21875 L 1.71875 -3.96875 L 3.140625 -3.96875 L 3.140625 -4.28125 L 1.71875 -4.28125 L 1.71875 -6.109375 L 1.46875 -6.109375 C 1.453125 -5.296875 1.15625 -4.234375 0.1875 -4.1875 L 0.1875 -3.96875 L 1.03125 -3.96875 L 1.03125 -1.234375 C 1.03125 -0.015625 1.953125 0.109375 2.3125 0.109375 C 3.015625 0.109375 3.296875 -0.59375 3.296875 -1.234375 Z M 3.296875 -1.234375 "/>
</g>
<g id="glyph-0-13">
<path d="M 3.546875 -6.3125 C 3.546875 -6.671875 3.1875 -7 2.65625 -7 C 1.953125 -7 1.109375 -6.484375 1.109375 -5.421875 L 1.109375 -4.28125 L 0.328125 -4.28125 L 0.328125 -3.96875 L 1.109375 -3.96875 L 1.109375 -0.75 C 1.109375 -0.3125 1 -0.3125 0.34375 -0.3125 L 0.34375 0 L 1.46875 -0.03125 C 1.875 -0.03125 2.328125 -0.03125 2.734375 0 L 2.734375 -0.3125 L 2.53125 -0.3125 C 1.78125 -0.3125 1.765625 -0.421875 1.765625 -0.78125 L 1.765625 -3.96875 L 2.90625 -3.96875 L 2.90625 -4.28125 L 1.734375 -4.28125 L 1.734375 -5.4375 C 1.734375 -6.3125 2.21875 -6.78125 2.65625 -6.78125 C 2.6875 -6.78125 2.828125 -6.78125 2.984375 -6.71875 C 2.859375 -6.671875 2.6875 -6.546875 2.6875 -6.296875 C 2.6875 -6.078125 2.84375 -5.875 3.109375 -5.875 C 3.40625 -5.875 3.546875 -6.078125 3.546875 -6.3125 Z M 3.546875 -6.3125 "/>
</g>
<g id="glyph-0-14">
<path d="M 5.078125 0 L 5.078125 -0.3125 C 4.703125 -0.3125 4.484375 -0.3125 4.109375 -0.828125 L 2.859375 -2.609375 C 2.84375 -2.640625 2.796875 -2.6875 2.796875 -2.71875 C 2.796875 -2.765625 3.5 -3.359375 3.59375 -3.4375 C 4.21875 -3.9375 4.640625 -3.96875 4.84375 -3.96875 L 4.84375 -4.28125 C 4.5625 -4.25 4.4375 -4.25 4.15625 -4.25 C 3.796875 -4.25 3.1875 -4.265625 3.046875 -4.28125 L 3.046875 -3.96875 C 3.234375 -3.96875 3.328125 -3.859375 3.328125 -3.734375 C 3.328125 -3.53125 3.1875 -3.40625 3.109375 -3.34375 L 1.703125 -2.125 L 1.703125 -6.890625 L 0.28125 -6.78125 L 0.28125 -6.484375 C 0.96875 -6.484375 1.046875 -6.40625 1.046875 -5.921875 L 1.046875 -0.75 C 1.046875 -0.3125 0.9375 -0.3125 0.28125 -0.3125 L 0.28125 0 L 1.359375 -0.03125 L 2.453125 0 L 2.453125 -0.3125 C 1.78125 -0.3125 1.671875 -0.3125 1.671875 -0.75 L 1.671875 -1.78125 L 2.3125 -2.328125 C 3.078125 -1.265625 3.5 -0.71875 3.5 -0.53125 C 3.5 -0.34375 3.328125 -0.3125 3.140625 -0.3125 L 3.140625 0 L 4.21875 -0.03125 C 4.5 -0.03125 4.796875 -0.015625 5.078125 0 Z M 5.078125 0 "/>
</g>
<g id="glyph-0-15">
<path d="M 6.0625 -4.515625 L 5.78125 -6.75 L 0.328125 -6.75 L 0.328125 -6.453125 L 0.5625 -6.453125 C 1.328125 -6.453125 1.34375 -6.34375 1.34375 -5.984375 L 1.34375 -0.78125 C 1.34375 -0.421875 1.328125 -0.3125 0.5625 -0.3125 L 0.328125 -0.3125 L 0.328125 0 C 0.671875 -0.03125 1.453125 -0.03125 1.84375 -0.03125 C 2.25 -0.03125 3.15625 -0.03125 3.515625 0 L 3.515625 -0.3125 L 3.1875 -0.3125 C 2.234375 -0.3125 2.234375 -0.4375 2.234375 -0.78125 L 2.234375 -3.234375 L 3.09375 -3.234375 C 4.046875 -3.234375 4.140625 -2.90625 4.140625 -2.0625 L 4.390625 -2.0625 L 4.390625 -4.703125 L 4.140625 -4.703125 C 4.140625 -3.859375 4.046875 -3.53125 3.09375 -3.53125 L 2.234375 -3.53125 L 2.234375 -6.046875 C 2.234375 -6.375 2.25 -6.453125 2.71875 -6.453125 L 3.921875 -6.453125 C 5.40625 -6.453125 5.65625 -5.890625 5.8125 -4.515625 Z M 6.0625 -4.515625 "/>
</g>
<g id="glyph-0-16">
<path d="M 2.75 -1.859375 L 2.75 -2.4375 L 0.109375 -2.4375 L 0.109375 -1.859375 Z M 2.75 -1.859375 "/>
</g>
<g id="glyph-0-17">
<path d="M 5.3125 0 L 5.3125 -0.3125 C 4.796875 -0.3125 4.546875 -0.3125 4.546875 -0.609375 L 4.546875 -2.5 C 4.546875 -3.359375 4.546875 -3.671875 4.234375 -4.03125 C 4.09375 -4.1875 3.765625 -4.390625 3.1875 -4.390625 C 2.46875 -4.390625 2 -3.96875 1.71875 -3.34375 L 1.71875 -4.390625 L 0.3125 -4.28125 L 0.3125 -3.96875 C 1.015625 -3.96875 1.09375 -3.90625 1.09375 -3.421875 L 1.09375 -0.75 C 1.09375 -0.3125 0.984375 -0.3125 0.3125 -0.3125 L 0.3125 0 L 1.4375 -0.03125 L 2.546875 0 L 2.546875 -0.3125 C 1.890625 -0.3125 1.78125 -0.3125 1.78125 -0.75 L 1.78125 -2.578125 C 1.78125 -3.625 2.484375 -4.171875 3.125 -4.171875 C 3.75 -4.171875 3.859375 -3.640625 3.859375 -3.078125 L 3.859375 -0.75 C 3.859375 -0.3125 3.75 -0.3125 3.078125 -0.3125 L 3.078125 0 L 4.203125 -0.03125 Z M 5.3125 0 "/>
</g>
<g id="glyph-0-18">
<path d="M 6.984375 -3.96875 L 6.984375 -4.28125 C 6.765625 -4.265625 6.484375 -4.25 6.265625 -4.25 L 5.34375 -4.28125 L 5.34375 -3.96875 C 5.6875 -3.96875 5.90625 -3.78125 5.90625 -3.5 C 5.90625 -3.4375 5.90625 -3.421875 5.859375 -3.296875 L 4.953125 -0.75 L 3.96875 -3.515625 C 3.9375 -3.640625 3.921875 -3.65625 3.921875 -3.703125 C 3.921875 -3.96875 4.3125 -3.96875 4.515625 -3.96875 L 4.515625 -4.28125 L 3.484375 -4.25 C 3.1875 -4.25 2.890625 -4.265625 2.59375 -4.28125 L 2.59375 -3.96875 C 2.96875 -3.96875 3.125 -3.953125 3.21875 -3.828125 C 3.265625 -3.765625 3.375 -3.46875 3.453125 -3.28125 L 2.59375 -0.875 L 1.65625 -3.53125 C 1.59375 -3.640625 1.59375 -3.671875 1.59375 -3.703125 C 1.59375 -3.96875 1.984375 -3.96875 2.1875 -3.96875 L 2.1875 -4.28125 L 1.109375 -4.25 L 0.171875 -4.28125 L 0.171875 -3.96875 C 0.671875 -3.96875 0.796875 -3.9375 0.921875 -3.625 L 2.171875 -0.109375 C 2.21875 0.03125 2.25 0.109375 2.375 0.109375 C 2.5 0.109375 2.53125 0.046875 2.578125 -0.09375 L 3.578125 -2.90625 L 4.59375 -0.078125 C 4.625 0.03125 4.65625 0.109375 4.796875 0.109375 C 4.921875 0.109375 4.953125 0.015625 4.984375 -0.078125 L 6.15625 -3.34375 C 6.328125 -3.828125 6.640625 -3.96875 6.984375 -3.96875 Z M 6.984375 -3.96875 "/>
</g>
<g id="glyph-0-19">
<path d="M 2.09375 0.5 L 2.09375 -4.390625 L 0.578125 -4.28125 L 0.578125 -3.96875 C 1.34375 -3.96875 1.4375 -3.90625 1.4375 -3.421875 L 1.4375 0.515625 C 1.4375 0.96875 1.34375 1.8125 0.703125 1.8125 C 0.65625 1.8125 0.421875 1.8125 0.171875 1.6875 C 0.3125 1.65625 0.515625 1.515625 0.515625 1.25 C 0.515625 0.984375 0.34375 0.78125 0.0625 0.78125 C -0.21875 0.78125 -0.390625 0.984375 -0.390625 1.25 C -0.390625 1.765625 0.15625 2.03125 0.71875 2.03125 C 1.46875 2.03125 2.09375 1.40625 2.09375 0.5 Z M 2.09375 -6 C 2.09375 -6.265625 1.859375 -6.53125 1.5625 -6.53125 C 1.21875 -6.53125 1.03125 -6.25 1.03125 -6 C 1.03125 -5.734375 1.25 -5.46875 1.546875 -5.46875 C 1.890625 -5.46875 2.09375 -5.75 2.09375 -6 Z M 2.09375 -6 "/>
</g>
<g id="glyph-0-20">
<path d="M 3.578125 -1.265625 C 3.578125 -1.796875 3.28125 -2.09375 3.15625 -2.21875 C 2.828125 -2.53125 2.4375 -2.609375 2.03125 -2.6875 C 1.46875 -2.796875 0.8125 -2.9375 0.8125 -3.515625 C 0.8125 -3.859375 1.0625 -4.265625 1.921875 -4.265625 C 3.015625 -4.265625 3.0625 -3.375 3.078125 -3.0625 C 3.09375 -2.96875 3.203125 -2.96875 3.203125 -2.96875 C 3.328125 -2.96875 3.328125 -3.015625 3.328125 -3.203125 L 3.328125 -4.21875 C 3.328125 -4.375 3.328125 -4.453125 3.21875 -4.453125 C 3.171875 -4.453125 3.15625 -4.453125 3.015625 -4.328125 C 2.984375 -4.296875 2.890625 -4.203125 2.859375 -4.171875 C 2.46875 -4.453125 2.0625 -4.453125 1.921875 -4.453125 C 0.703125 -4.453125 0.328125 -3.78125 0.328125 -3.234375 C 0.328125 -2.875 0.484375 -2.609375 0.75 -2.390625 C 1.078125 -2.125 1.34375 -2.0625 2.0625 -1.921875 C 2.28125 -1.890625 3.09375 -1.734375 3.09375 -1.015625 C 3.09375 -0.5 2.75 -0.109375 1.984375 -0.109375 C 1.140625 -0.109375 0.78125 -0.671875 0.59375 -1.515625 C 0.5625 -1.65625 0.5625 -1.6875 0.453125 -1.6875 C 0.328125 -1.6875 0.328125 -1.625 0.328125 -1.4375 L 0.328125 -0.125 C 0.328125 0.046875 0.328125 0.109375 0.4375 0.109375 C 0.484375 0.109375 0.5 0.09375 0.6875 -0.09375 C 0.703125 -0.109375 0.703125 -0.125 0.890625 -0.3125 C 1.328125 0.09375 1.765625 0.109375 1.984375 0.109375 C 3.125 0.109375 3.578125 -0.5625 3.578125 -1.265625 Z M 3.578125 -1.265625 "/>
</g>
<g id="glyph-0-21">
<path d="M 3.296875 2.390625 C 3.296875 2.359375 3.296875 2.328125 3.125 2.171875 C 1.875 0.921875 1.5625 -0.96875 1.5625 -2.484375 C 1.5625 -4.21875 1.9375 -5.9375 3.15625 -7.1875 C 3.296875 -7.296875 3.296875 -7.328125 3.296875 -7.359375 C 3.296875 -7.421875 3.25 -7.453125 3.1875 -7.453125 C 3.09375 -7.453125 2.203125 -6.78125 1.609375 -5.515625 C 1.109375 -4.421875 0.984375 -3.3125 0.984375 -2.484375 C 0.984375 -1.703125 1.09375 -0.5 1.640625 0.609375 C 2.234375 1.84375 3.09375 2.484375 3.1875 2.484375 C 3.25 2.484375 3.296875 2.453125 3.296875 2.390625 Z M 3.296875 2.390625 "/>
</g>
<g id="glyph-0-22">
<path d="M 6.609375 -2.3125 C 6.609375 -2.421875 6.609375 -2.484375 6.484375 -2.484375 C 6.375 -2.484375 6.375 -2.421875 6.359375 -2.328125 C 6.28125 -0.90625 5.21875 -0.09375 4.140625 -0.09375 C 3.53125 -0.09375 1.578125 -0.421875 1.578125 -3.390625 C 1.578125 -6.359375 3.515625 -6.703125 4.125 -6.703125 C 5.203125 -6.703125 6.09375 -5.796875 6.296875 -4.34375 C 6.3125 -4.203125 6.3125 -4.171875 6.453125 -4.171875 C 6.609375 -4.171875 6.609375 -4.203125 6.609375 -4.40625 L 6.609375 -6.765625 C 6.609375 -6.9375 6.609375 -7 6.5 -7 C 6.453125 -7 6.421875 -7 6.34375 -6.890625 L 5.84375 -6.15625 C 5.46875 -6.515625 4.96875 -7 4.015625 -7 C 2.15625 -7 0.5625 -5.421875 0.5625 -3.40625 C 0.5625 -1.34375 2.171875 0.21875 4.015625 0.21875 C 5.640625 0.21875 6.609375 -1.15625 6.609375 -2.3125 Z M 6.609375 -2.3125 "/>
</g>
<g id="glyph-0-23">
<path d="M 7.171875 -3.375 C 7.171875 -5.390625 5.671875 -7 3.859375 -7 C 2.078125 -7 0.5625 -5.421875 0.5625 -3.375 C 0.5625 -1.328125 2.09375 0.21875 3.859375 0.21875 C 5.671875 0.21875 7.171875 -1.359375 7.171875 -3.375 Z M 6.140625 -3.515625 C 6.140625 -0.875 4.78125 -0.046875 3.859375 -0.046875 C 2.90625 -0.046875 1.578125 -0.921875 1.578125 -3.515625 C 1.578125 -6.078125 3.03125 -6.75 3.859375 -6.75 C 4.71875 -6.75 6.140625 -6.046875 6.140625 -3.515625 Z M 6.140625 -3.515625 "/>
</g>
<g id="glyph-0-24">
<path d="M 7.28125 -0.875 C 7.28125 -0.9375 7.28125 -1.046875 7.140625 -1.046875 C 7.03125 -1.046875 7.03125 -0.953125 7.03125 -0.890625 C 6.96875 -0.171875 6.625 0 6.375 0 C 5.890625 0 5.796875 -0.5 5.671875 -1.4375 L 5.53125 -2.21875 C 5.359375 -2.859375 4.875 -3.1875 4.328125 -3.375 C 5.28125 -3.625 6.0625 -4.21875 6.0625 -5 C 6.0625 -5.953125 4.921875 -6.78125 3.46875 -6.78125 L 0.34375 -6.78125 L 0.34375 -6.484375 L 0.59375 -6.484375 C 1.34375 -6.484375 1.375 -6.375 1.375 -6.015625 L 1.375 -0.78125 C 1.375 -0.421875 1.34375 -0.3125 0.59375 -0.3125 L 0.34375 -0.3125 L 0.34375 0 C 0.703125 -0.03125 1.40625 -0.03125 1.796875 -0.03125 C 2.1875 -0.03125 2.890625 -0.03125 3.25 0 L 3.25 -0.3125 L 3.015625 -0.3125 C 2.25 -0.3125 2.21875 -0.421875 2.21875 -0.78125 L 2.21875 -3.296875 L 3.375 -3.296875 C 3.53125 -3.296875 3.9375 -3.296875 4.296875 -2.953125 C 4.671875 -2.59375 4.671875 -2.28125 4.671875 -1.625 C 4.671875 -0.96875 4.671875 -0.578125 5.078125 -0.203125 C 5.484375 0.15625 6.03125 0.21875 6.328125 0.21875 C 7.109375 0.21875 7.28125 -0.59375 7.28125 -0.875 Z M 5.03125 -5 C 5.03125 -4.3125 4.796875 -3.515625 3.328125 -3.515625 L 2.21875 -3.515625 L 2.21875 -6.078125 C 2.21875 -6.3125 2.21875 -6.421875 2.4375 -6.453125 C 2.546875 -6.484375 2.828125 -6.484375 3.03125 -6.484375 C 3.921875 -6.484375 5.03125 -6.4375 5.03125 -5 Z M 5.03125 -5 "/>
</g>
<g id="glyph-0-25">
<path d="M 2.875 -2.484375 C 2.875 -3.265625 2.765625 -4.46875 2.21875 -5.578125 C 1.625 -6.8125 0.765625 -7.453125 0.671875 -7.453125 C 0.609375 -7.453125 0.5625 -7.40625 0.5625 -7.359375 C 0.5625 -7.328125 0.5625 -7.296875 0.75 -7.125 C 1.734375 -6.140625 2.296875 -4.5625 2.296875 -2.484375 C 2.296875 -0.78125 1.921875 0.96875 0.703125 2.21875 C 0.5625 2.328125 0.5625 2.359375 0.5625 2.390625 C 0.5625 2.4375 0.609375 2.484375 0.671875 2.484375 C 0.765625 2.484375 1.65625 1.8125 2.25 0.546875 C 2.75 -0.546875 2.875 -1.65625 2.875 -2.484375 Z M 2.875 -2.484375 "/>
</g>
<g id="glyph-0-26">
<path d="M 7.109375 0 L 7.109375 -0.3125 L 6.875 -0.3125 C 6.109375 -0.3125 6.09375 -0.421875 6.09375 -0.78125 L 6.09375 -6.015625 C 6.09375 -6.375 6.109375 -6.484375 6.875 -6.484375 L 7.109375 -6.484375 L 7.109375 -6.78125 C 6.765625 -6.75 6.03125 -6.75 5.65625 -6.75 C 5.28125 -6.75 4.53125 -6.75 4.1875 -6.78125 L 4.1875 -6.484375 L 4.421875 -6.484375 C 5.1875 -6.484375 5.203125 -6.375 5.203125 -6.015625 L 5.203125 -3.6875 L 2.234375 -3.6875 L 2.234375 -6.015625 C 2.234375 -6.375 2.25 -6.484375 3.015625 -6.484375 L 3.265625 -6.484375 L 3.265625 -6.78125 C 2.90625 -6.75 2.171875 -6.75 1.796875 -6.75 C 1.421875 -6.75 0.671875 -6.75 0.328125 -6.78125 L 0.328125 -6.484375 L 0.5625 -6.484375 C 1.328125 -6.484375 1.34375 -6.375 1.34375 -6.015625 L 1.34375 -0.78125 C 1.34375 -0.421875 1.328125 -0.3125 0.5625 -0.3125 L 0.328125 -0.3125 L 0.328125 0 C 0.671875 -0.03125 1.40625 -0.03125 1.78125 -0.03125 C 2.171875 -0.03125 2.90625 -0.03125 3.265625 0 L 3.265625 -0.3125 L 3.015625 -0.3125 C 2.25 -0.3125 2.234375 -0.421875 2.234375 -0.78125 L 2.234375 -3.375 L 5.203125 -3.375 L 5.203125 -0.78125 C 5.203125 -0.421875 5.1875 -0.3125 4.421875 -0.3125 L 4.1875 -0.3125 L 4.1875 0 C 4.53125 -0.03125 5.265625 -0.03125 5.640625 -0.03125 C 6.015625 -0.03125 6.765625 -0.03125 7.109375 0 Z M 7.109375 0 "/>
</g>
<g id="glyph-0-27">
<path d="M 6.8125 -4.484375 L 6.625 -6.734375 L 0.546875 -6.734375 L 0.359375 -4.484375 L 0.609375 -4.484375 C 0.75 -6.09375 0.890625 -6.421875 2.390625 -6.421875 C 2.578125 -6.421875 2.828125 -6.421875 2.9375 -6.40625 C 3.140625 -6.359375 3.140625 -6.25 3.140625 -6.015625 L 3.140625 -0.78125 C 3.140625 -0.453125 3.140625 -0.3125 2.09375 -0.3125 L 1.703125 -0.3125 L 1.703125 0 C 2.109375 -0.03125 3.125 -0.03125 3.578125 -0.03125 C 4.03125 -0.03125 5.0625 -0.03125 5.46875 0 L 5.46875 -0.3125 L 5.0625 -0.3125 C 4.03125 -0.3125 4.03125 -0.453125 4.03125 -0.78125 L 4.03125 -6.015625 C 4.03125 -6.21875 4.03125 -6.359375 4.203125 -6.40625 C 4.3125 -6.421875 4.578125 -6.421875 4.765625 -6.421875 C 6.265625 -6.421875 6.421875 -6.09375 6.5625 -4.484375 Z M 6.8125 -4.484375 "/>
</g>
<g id="glyph-0-28">
<path d="M 4.6875 -1.640625 L 4.6875 -1.953125 L 3.6875 -1.953125 L 3.6875 -6.46875 C 3.6875 -6.671875 3.6875 -6.734375 3.53125 -6.734375 C 3.4375 -6.734375 3.40625 -6.734375 3.328125 -6.609375 L 0.28125 -1.953125 L 0.28125 -1.640625 L 2.921875 -1.640625 L 2.921875 -0.78125 C 2.921875 -0.421875 2.90625 -0.3125 2.171875 -0.3125 L 1.953125 -0.3125 L 1.953125 0 C 2.359375 -0.03125 2.875 -0.03125 3.296875 -0.03125 C 3.71875 -0.03125 4.25 -0.03125 4.65625 0 L 4.65625 -0.3125 L 4.4375 -0.3125 C 3.703125 -0.3125 3.6875 -0.421875 3.6875 -0.78125 L 3.6875 -1.640625 Z M 2.984375 -1.953125 L 0.5625 -1.953125 L 2.984375 -5.65625 Z M 2.984375 -1.953125 "/>
</g>
<g id="glyph-0-29">
<path d="M 4.578125 -3.1875 C 4.578125 -3.96875 4.515625 -4.765625 4.171875 -5.5 C 3.71875 -6.453125 2.90625 -6.625 2.484375 -6.625 C 1.890625 -6.625 1.15625 -6.359375 0.75 -5.4375 C 0.4375 -4.75 0.390625 -3.96875 0.390625 -3.1875 C 0.390625 -2.4375 0.421875 -1.546875 0.828125 -0.78125 C 1.265625 0.015625 1.984375 0.21875 2.46875 0.21875 C 3.015625 0.21875 3.765625 0.015625 4.203125 -0.9375 C 4.515625 -1.625 4.578125 -2.390625 4.578125 -3.1875 Z M 3.75 -3.296875 C 3.75 -2.546875 3.75 -1.875 3.640625 -1.25 C 3.484375 -0.296875 2.921875 0 2.46875 0 C 2.09375 0 1.5 -0.25 1.328125 -1.203125 C 1.21875 -1.796875 1.21875 -2.71875 1.21875 -3.296875 C 1.21875 -3.9375 1.21875 -4.59375 1.296875 -5.125 C 1.484375 -6.3125 2.21875 -6.40625 2.46875 -6.40625 C 2.796875 -6.40625 3.453125 -6.21875 3.640625 -5.234375 C 3.75 -4.6875 3.75 -3.921875 3.75 -3.296875 Z M 3.75 -3.296875 "/>
</g>
<g id="glyph-0-30">
<path d="M 8.078125 0 L 8.078125 -0.3125 C 7.5625 -0.3125 7.3125 -0.3125 7.296875 -0.609375 L 7.296875 -2.5 C 7.296875 -3.359375 7.296875 -3.671875 7 -4.03125 C 6.859375 -4.1875 6.53125 -4.390625 5.953125 -4.390625 C 5.125 -4.390625 4.6875 -3.796875 4.515625 -3.421875 C 4.375 -4.28125 3.640625 -4.390625 3.1875 -4.390625 C 2.46875 -4.390625 2 -3.96875 1.71875 -3.34375 L 1.71875 -4.390625 L 0.3125 -4.28125 L 0.3125 -3.96875 C 1.015625 -3.96875 1.09375 -3.90625 1.09375 -3.421875 L 1.09375 -0.75 C 1.09375 -0.3125 0.984375 -0.3125 0.3125 -0.3125 L 0.3125 0 L 1.4375 -0.03125 L 2.546875 0 L 2.546875 -0.3125 C 1.890625 -0.3125 1.78125 -0.3125 1.78125 -0.75 L 1.78125 -2.578125 C 1.78125 -3.625 2.484375 -4.171875 3.125 -4.171875 C 3.75 -4.171875 3.859375 -3.640625 3.859375 -3.078125 L 3.859375 -0.75 C 3.859375 -0.3125 3.75 -0.3125 3.078125 -0.3125 L 3.078125 0 L 4.203125 -0.03125 L 5.3125 0 L 5.3125 -0.3125 C 4.65625 -0.3125 4.546875 -0.3125 4.546875 -0.75 L 4.546875 -2.578125 C 4.546875 -3.625 5.25 -4.171875 5.890625 -4.171875 C 6.515625 -4.171875 6.625 -3.640625 6.625 -3.078125 L 6.625 -0.75 C 6.625 -0.3125 6.515625 -0.3125 5.84375 -0.3125 L 5.84375 0 L 6.96875 -0.03125 Z M 8.078125 0 "/>
</g>
<g id="glyph-0-31">
<path d="M 5.3125 0 L 5.3125 -0.3125 C 4.796875 -0.3125 4.546875 -0.3125 4.546875 -0.609375 L 4.546875 -2.5 C 4.546875 -3.359375 4.546875 -3.671875 4.234375 -4.03125 C 4.09375 -4.1875 3.765625 -4.390625 3.1875 -4.390625 C 2.359375 -4.390625 1.921875 -3.796875 1.765625 -3.4375 L 1.75 -3.4375 L 1.75 -6.890625 L 0.3125 -6.78125 L 0.3125 -6.484375 C 1.015625 -6.484375 1.09375 -6.40625 1.09375 -5.921875 L 1.09375 -0.75 C 1.09375 -0.3125 0.984375 -0.3125 0.3125 -0.3125 L 0.3125 0 L 1.4375 -0.03125 L 2.546875 0 L 2.546875 -0.3125 C 1.890625 -0.3125 1.78125 -0.3125 1.78125 -0.75 L 1.78125 -2.578125 C 1.78125 -3.625 2.484375 -4.171875 3.125 -4.171875 C 3.75 -4.171875 3.859375 -3.640625 3.859375 -3.078125 L 3.859375 -0.75 C 3.859375 -0.3125 3.75 -0.3125 3.078125 -0.3125 L 3.078125 0 L 4.203125 -0.03125 Z M 5.3125 0 "/>
</g>
<g id="glyph-0-32">
<path d="M 4.46875 -1.734375 L 4.21875 -1.734375 C 4.15625 -1.4375 4.09375 -1 4 -0.84375 C 3.921875 -0.765625 3.265625 -0.765625 3.046875 -0.765625 L 1.265625 -0.765625 L 2.3125 -1.78125 C 3.859375 -3.15625 4.46875 -3.703125 4.46875 -4.6875 C 4.46875 -5.828125 3.5625 -6.625 2.359375 -6.625 C 1.234375 -6.625 0.5 -5.703125 0.5 -4.8125 C 0.5 -4.265625 1 -4.265625 1.03125 -4.265625 C 1.1875 -4.265625 1.546875 -4.375 1.546875 -4.796875 C 1.546875 -5.046875 1.359375 -5.3125 1.015625 -5.3125 C 0.9375 -5.3125 0.921875 -5.3125 0.890625 -5.296875 C 1.109375 -5.9375 1.65625 -6.3125 2.21875 -6.3125 C 3.125 -6.3125 3.5625 -5.5 3.5625 -4.6875 C 3.5625 -3.890625 3.0625 -3.109375 2.515625 -2.5 L 0.609375 -0.375 C 0.5 -0.265625 0.5 -0.234375 0.5 0 L 4.1875 0 Z M 4.46875 -1.734375 "/>
</g>
<g id="glyph-0-33">
<path d="M 5.234375 0 L 5.234375 -0.3125 C 4.546875 -0.3125 4.46875 -0.375 4.46875 -0.859375 L 4.46875 -6.890625 L 3.03125 -6.78125 L 3.03125 -6.484375 C 3.734375 -6.484375 3.8125 -6.40625 3.8125 -5.921875 L 3.8125 -3.78125 C 3.515625 -4.140625 3.09375 -4.390625 2.546875 -4.390625 C 1.375 -4.390625 0.34375 -3.421875 0.34375 -2.140625 C 0.34375 -0.875 1.3125 0.109375 2.4375 0.109375 C 3.078125 0.109375 3.53125 -0.234375 3.78125 -0.546875 L 3.78125 0.109375 Z M 3.78125 -1.171875 C 3.78125 -1 3.78125 -0.96875 3.671875 -0.8125 C 3.375 -0.328125 2.921875 -0.109375 2.5 -0.109375 C 2.046875 -0.109375 1.6875 -0.375 1.453125 -0.75 C 1.1875 -1.15625 1.15625 -1.71875 1.15625 -2.125 C 1.15625 -2.5 1.1875 -3.09375 1.46875 -3.53125 C 1.671875 -3.84375 2.0625 -4.171875 2.59375 -4.171875 C 2.9375 -4.171875 3.359375 -4.03125 3.671875 -3.578125 C 3.78125 -3.40625 3.78125 -3.390625 3.78125 -3.203125 Z M 3.78125 -1.171875 "/>
</g>
<g id="glyph-0-34">
<path d="M 4.546875 -3.265625 C 4.546875 -5.9375 3.40625 -6.625 2.515625 -6.625 C 1.96875 -6.625 1.484375 -6.4375 1.046875 -6 C 0.640625 -5.546875 0.421875 -5.125 0.421875 -4.375 C 0.421875 -3.140625 1.296875 -2.171875 2.40625 -2.171875 C 3.015625 -2.171875 3.421875 -2.578125 3.640625 -3.15625 L 3.640625 -2.84375 C 3.640625 -0.515625 2.609375 -0.0625 2.03125 -0.0625 C 1.875 -0.0625 1.328125 -0.078125 1.0625 -0.421875 C 1.5 -0.421875 1.578125 -0.703125 1.578125 -0.875 C 1.578125 -1.1875 1.34375 -1.328125 1.125 -1.328125 C 0.96875 -1.328125 0.671875 -1.25 0.671875 -0.859375 C 0.671875 -0.1875 1.203125 0.21875 2.046875 0.21875 C 3.328125 0.21875 4.546875 -1.140625 4.546875 -3.265625 Z M 3.625 -4.1875 C 3.625 -3.359375 3.296875 -2.390625 2.421875 -2.390625 C 2.25 -2.390625 1.796875 -2.390625 1.484375 -3.015625 C 1.3125 -3.390625 1.3125 -3.890625 1.3125 -4.375 C 1.3125 -4.90625 1.3125 -5.375 1.515625 -5.75 C 1.78125 -6.234375 2.171875 -6.375 2.515625 -6.375 C 2.96875 -6.375 3.296875 -6.03125 3.46875 -5.578125 C 3.59375 -5.265625 3.625 -4.640625 3.625 -4.1875 Z M 3.625 -4.1875 "/>
</g>
<g id="glyph-0-35">
<path d="M 4.40625 -7.25 C 4.40625 -7.359375 4.3125 -7.453125 4.203125 -7.453125 C 4.0625 -7.453125 4.03125 -7.359375 4 -7.25 L 0.609375 2.109375 C 0.5625 2.234375 0.5625 2.28125 0.5625 2.28125 C 0.5625 2.390625 0.640625 2.484375 0.75 2.484375 C 0.890625 2.484375 0.9375 2.390625 0.96875 2.28125 L 4.359375 -7.078125 C 4.40625 -7.203125 4.40625 -7.25 4.40625 -7.25 Z M 4.40625 -7.25 "/>
</g>
<g id="glyph-0-36">
<path d="M 4.46875 -2 C 4.46875 -3.1875 3.640625 -4.171875 2.578125 -4.171875 C 2.09375 -4.171875 1.671875 -4.015625 1.3125 -3.671875 L 1.3125 -5.609375 C 1.515625 -5.546875 1.84375 -5.46875 2.15625 -5.46875 C 3.375 -5.46875 4.078125 -6.375 4.078125 -6.515625 C 4.078125 -6.5625 4.046875 -6.625 3.96875 -6.625 C 3.96875 -6.625 3.9375 -6.625 3.890625 -6.59375 C 3.703125 -6.5 3.203125 -6.296875 2.546875 -6.296875 C 2.140625 -6.296875 1.6875 -6.375 1.21875 -6.578125 C 1.140625 -6.609375 1.109375 -6.609375 1.109375 -6.609375 C 1 -6.609375 1 -6.53125 1 -6.375 L 1 -3.421875 C 1 -3.25 1 -3.171875 1.140625 -3.171875 C 1.21875 -3.171875 1.234375 -3.203125 1.265625 -3.265625 C 1.375 -3.421875 1.75 -3.953125 2.546875 -3.953125 C 3.078125 -3.953125 3.3125 -3.5 3.40625 -3.3125 C 3.5625 -2.953125 3.578125 -2.5625 3.578125 -2.0625 C 3.578125 -1.71875 3.578125 -1.125 3.34375 -0.703125 C 3.09375 -0.3125 2.734375 -0.0625 2.28125 -0.0625 C 1.546875 -0.0625 0.984375 -0.59375 0.8125 -1.171875 C 0.84375 -1.15625 0.875 -1.15625 0.984375 -1.15625 C 1.3125 -1.15625 1.484375 -1.40625 1.484375 -1.640625 C 1.484375 -1.875 1.3125 -2.125 0.984375 -2.125 C 0.84375 -2.125 0.5 -2.0625 0.5 -1.59375 C 0.5 -0.75 1.1875 0.21875 2.296875 0.21875 C 3.453125 0.21875 4.46875 -0.734375 4.46875 -2 Z M 4.46875 -2 "/>
</g>
<g id="glyph-0-37">
<path d="M 5.125 0 L 5.125 -0.3125 C 4.59375 -0.3125 4.40625 -0.328125 4.1875 -0.609375 L 2.859375 -2.328125 C 3.15625 -2.71875 3.53125 -3.203125 3.765625 -3.453125 C 4.078125 -3.8125 4.484375 -3.96875 4.953125 -3.96875 L 4.953125 -4.28125 C 4.6875 -4.265625 4.390625 -4.25 4.140625 -4.25 C 3.828125 -4.25 3.3125 -4.265625 3.1875 -4.28125 L 3.1875 -3.96875 C 3.390625 -3.953125 3.46875 -3.828125 3.46875 -3.671875 C 3.46875 -3.515625 3.375 -3.375 3.3125 -3.3125 L 2.703125 -2.546875 L 1.921875 -3.546875 C 1.84375 -3.640625 1.84375 -3.671875 1.84375 -3.734375 C 1.84375 -3.875 1.984375 -3.96875 2.1875 -3.96875 L 2.1875 -4.28125 L 1.109375 -4.25 C 0.90625 -4.25 0.4375 -4.265625 0.171875 -4.28125 L 0.171875 -3.96875 C 0.859375 -3.96875 0.875 -3.96875 1.34375 -3.375 L 2.328125 -2.09375 C 1.859375 -1.484375 1.859375 -1.46875 1.390625 -0.90625 C 0.921875 -0.328125 0.328125 -0.3125 0.125 -0.3125 L 0.125 0 C 0.375 -0.015625 0.6875 -0.03125 0.9375 -0.03125 L 1.890625 0 L 1.890625 -0.3125 C 1.671875 -0.34375 1.59375 -0.46875 1.59375 -0.609375 C 1.59375 -0.828125 1.890625 -1.15625 2.5 -1.875 L 3.25 -0.890625 C 3.328125 -0.78125 3.453125 -0.609375 3.453125 -0.5625 C 3.453125 -0.46875 3.375 -0.3125 3.09375 -0.3125 L 3.09375 0 L 4.171875 -0.03125 C 4.4375 -0.03125 4.828125 -0.015625 5.125 0 Z M 5.125 0 "/>
</g>
<g id="glyph-0-38">
<path d="M 5.046875 -3.96875 L 5.046875 -4.28125 C 4.8125 -4.265625 4.53125 -4.25 4.296875 -4.25 L 3.4375 -4.28125 L 3.4375 -3.96875 C 3.75 -3.96875 3.90625 -3.796875 3.90625 -3.546875 C 3.90625 -3.453125 3.890625 -3.421875 3.84375 -3.3125 L 2.84375 -0.859375 L 1.734375 -3.53125 C 1.703125 -3.640625 1.671875 -3.671875 1.671875 -3.71875 C 1.671875 -3.96875 2.046875 -3.96875 2.234375 -3.96875 L 2.234375 -4.28125 L 1.15625 -4.25 C 0.890625 -4.25 0.484375 -4.265625 0.1875 -4.28125 L 0.1875 -3.96875 C 0.671875 -3.96875 0.859375 -3.96875 1 -3.625 L 2.484375 0 L 2.234375 0.59375 C 2.015625 1.140625 1.734375 1.8125 1.109375 1.8125 C 1.046875 1.8125 0.828125 1.8125 0.640625 1.640625 C 0.9375 1.59375 1.03125 1.375 1.03125 1.21875 C 1.03125 0.96875 0.828125 0.8125 0.609375 0.8125 C 0.40625 0.8125 0.1875 0.9375 0.1875 1.234375 C 0.1875 1.671875 0.609375 2.03125 1.109375 2.03125 C 1.734375 2.03125 2.140625 1.46875 2.375 0.90625 L 4.125 -3.34375 C 4.375 -3.96875 4.890625 -3.96875 5.046875 -3.96875 Z M 5.046875 -3.96875 "/>
</g>
<g id="glyph-1-0">
<path d="M 4.46875 -1.25 C 4.46875 -1.4375 4.46875 -1.640625 4.109375 -1.640625 C 3.78125 -1.640625 3.78125 -1.4375 3.78125 -1.265625 C 3.765625 -0.640625 3.203125 -0.546875 2.96875 -0.546875 C 2.203125 -0.546875 2.203125 -1.0625 2.203125 -1.3125 L 2.203125 -3.671875 L 3.828125 -3.671875 C 3.984375 -3.671875 4.234375 -3.671875 4.234375 -3.96875 C 4.234375 -4.28125 4 -4.28125 3.828125 -4.28125 L 2.203125 -4.28125 L 2.203125 -5.09375 C 2.203125 -5.28125 2.203125 -5.5 1.875 -5.5 C 1.515625 -5.5 1.515625 -5.296875 1.515625 -5.09375 L 1.515625 -4.28125 L 0.65625 -4.28125 C 0.5 -4.28125 0.25 -4.28125 0.25 -3.96875 C 0.25 -3.671875 0.5 -3.671875 0.640625 -3.671875 L 1.515625 -3.671875 L 1.515625 -1.25 C 1.515625 -0.296875 2.203125 0.0625 2.921875 0.0625 C 3.65625 0.0625 4.46875 -0.375 4.46875 -1.25 Z M 4.46875 -1.25 "/>
</g>
<g id="glyph-1-1">
<path d="M 5.15625 -0.3125 C 5.15625 -0.609375 4.90625 -0.609375 4.765625 -0.609375 C 4.34375 -0.609375 4.25 -0.65625 4.15625 -0.6875 L 4.15625 -2.828125 C 4.15625 -3.53125 3.625 -4.375 2.203125 -4.375 C 1.765625 -4.375 0.75 -4.375 0.75 -3.640625 C 0.75 -3.34375 0.96875 -3.1875 1.203125 -3.1875 C 1.34375 -3.1875 1.625 -3.28125 1.640625 -3.640625 C 1.640625 -3.734375 1.65625 -3.734375 1.84375 -3.75 C 1.984375 -3.765625 2.109375 -3.765625 2.203125 -3.765625 C 2.96875 -3.765625 3.484375 -3.453125 3.484375 -2.75 C 1.71875 -2.71875 0.5 -2.21875 0.5 -1.265625 C 0.5 -0.59375 1.125 0.0625 2.140625 0.0625 C 2.5 0.0625 3.125 -0.015625 3.59375 -0.3125 C 3.8125 -0.015625 4.28125 0 4.65625 0 C 4.9375 0 5.15625 0 5.15625 -0.3125 Z M 3.484375 -1.328125 C 3.484375 -1.109375 3.484375 -0.890625 3.09375 -0.71875 C 2.734375 -0.546875 2.28125 -0.546875 2.203125 -0.546875 C 1.59375 -0.546875 1.1875 -0.890625 1.1875 -1.265625 C 1.1875 -1.765625 2.03125 -2.125 3.484375 -2.171875 Z M 3.484375 -1.328125 "/>
</g>
<g id="glyph-1-2">
<path d="M 5.125 -0.296875 C 5.125 -0.609375 4.921875 -0.609375 4.5625 -0.609375 L 4.5625 -3.015625 C 4.5625 -3.203125 4.5625 -4.34375 3.671875 -4.34375 C 3.375 -4.34375 2.96875 -4.21875 2.6875 -3.828125 C 2.546875 -4.15625 2.265625 -4.34375 1.9375 -4.34375 C 1.625 -4.34375 1.328125 -4.203125 1.078125 -3.984375 C 1.0625 -4.28125 0.859375 -4.28125 0.6875 -4.28125 L 0.375 -4.28125 C 0.21875 -4.28125 -0.046875 -4.28125 -0.046875 -3.984375 C -0.046875 -3.671875 0.171875 -3.671875 0.53125 -3.671875 L 0.53125 -0.609375 C 0.171875 -0.609375 -0.046875 -0.609375 -0.046875 -0.296875 C -0.046875 0 0.234375 0 0.375 0 L 1.25 0 C 1.390625 0 1.65625 0 1.65625 -0.296875 C 1.65625 -0.609375 1.4375 -0.609375 1.078125 -0.609375 L 1.078125 -2.390625 C 1.078125 -3.265625 1.484375 -3.734375 1.890625 -3.734375 C 2.125 -3.734375 2.265625 -3.5625 2.265625 -2.921875 L 2.265625 -0.609375 C 2.078125 -0.609375 1.828125 -0.609375 1.828125 -0.296875 C 1.828125 0 2.09375 0 2.234375 0 L 2.984375 0 C 3.125 0 3.390625 0 3.390625 -0.296875 C 3.390625 -0.609375 3.1875 -0.609375 2.828125 -0.609375 L 2.828125 -2.390625 C 2.828125 -3.265625 3.234375 -3.734375 3.640625 -3.734375 C 3.859375 -3.734375 4 -3.5625 4 -2.921875 L 4 -0.609375 C 3.8125 -0.609375 3.5625 -0.609375 3.5625 -0.296875 C 3.5625 0 3.828125 0 3.96875 0 L 4.71875 0 C 4.875 0 5.125 0 5.125 -0.296875 Z M 5.125 -0.296875 "/>
</g>
<g id="glyph-1-3">
<path d="M 5.09375 -0.3125 C 5.09375 -0.609375 4.828125 -0.609375 4.6875 -0.609375 L 4.25 -0.609375 L 4.25 -3.875 C 4.25 -4.1875 4.1875 -4.28125 3.84375 -4.28125 L 3.125 -4.28125 C 2.96875 -4.28125 2.71875 -4.28125 2.71875 -3.96875 C 2.71875 -3.671875 2.96875 -3.671875 3.109375 -3.671875 L 3.5625 -3.671875 L 3.5625 -1.5625 C 3.5625 -0.671875 2.75 -0.546875 2.4375 -0.546875 C 1.65625 -0.546875 1.65625 -0.875 1.65625 -1.1875 L 1.65625 -3.875 C 1.65625 -4.1875 1.59375 -4.28125 1.25 -4.28125 L 0.53125 -4.28125 C 0.375 -4.28125 0.125 -4.28125 0.125 -3.96875 C 0.125 -3.671875 0.375 -3.671875 0.515625 -3.671875 L 0.96875 -3.671875 L 0.96875 -1.140625 C 0.96875 -0.171875 1.65625 0.0625 2.375 0.0625 C 2.78125 0.0625 3.1875 -0.046875 3.5625 -0.3125 C 3.5625 0 3.78125 0 3.953125 0 L 4.6875 0 C 4.84375 0 5.09375 0 5.09375 -0.3125 Z M 5.09375 -0.3125 "/>
</g>
<g id="glyph-1-4">
<path d="M 4.625 -1.078125 C 4.625 -1.359375 4.34375 -1.359375 4.28125 -1.359375 C 4.125 -1.359375 4.03125 -1.34375 3.953125 -1.140625 C 3.890625 -1.015625 3.703125 -0.546875 2.96875 -0.546875 C 2.125 -0.546875 1.40625 -1.25 1.40625 -2.140625 C 1.40625 -2.625 1.6875 -3.765625 3.03125 -3.765625 C 3.234375 -3.765625 3.625 -3.765625 3.625 -3.671875 C 3.640625 -3.328125 3.828125 -3.1875 4.0625 -3.1875 C 4.296875 -3.1875 4.515625 -3.359375 4.515625 -3.640625 C 4.515625 -4.375 3.484375 -4.375 3.03125 -4.375 C 1.328125 -4.375 0.71875 -3.015625 0.71875 -2.140625 C 0.71875 -0.953125 1.65625 0.0625 2.90625 0.0625 C 4.296875 0.0625 4.625 -0.921875 4.625 -1.078125 Z M 4.625 -1.078125 "/>
</g>
<g id="glyph-1-5">
<path d="M 4.34375 -5.53125 C 4.34375 -6.125 3.546875 -6.125 3.390625 -6.125 C 2.59375 -6.125 1.828125 -5.671875 1.828125 -4.8125 L 1.828125 -4.28125 L 0.828125 -4.28125 C 0.671875 -4.28125 0.421875 -4.28125 0.421875 -3.96875 C 0.421875 -3.671875 0.671875 -3.671875 0.828125 -3.671875 L 1.828125 -3.671875 L 1.828125 -0.609375 L 0.828125 -0.609375 C 0.671875 -0.609375 0.421875 -0.609375 0.421875 -0.3125 C 0.421875 0 0.671875 0 0.828125 0 L 3.515625 0 C 3.671875 0 3.921875 0 3.921875 -0.296875 C 3.921875 -0.609375 3.671875 -0.609375 3.515625 -0.609375 L 2.515625 -0.609375 L 2.515625 -3.671875 L 3.734375 -3.671875 C 3.875 -3.671875 4.125 -3.671875 4.125 -3.96875 C 4.125 -4.28125 3.890625 -4.28125 3.734375 -4.28125 L 2.515625 -4.28125 L 2.515625 -4.75 C 2.515625 -5.53125 3.1875 -5.53125 3.484375 -5.53125 C 3.484375 -5.484375 3.5625 -5.09375 3.921875 -5.09375 C 4.109375 -5.09375 4.34375 -5.25 4.34375 -5.53125 Z M 4.34375 -5.53125 "/>
</g>
<g id="glyph-1-6">
<path d="M 4.625 -6.546875 C 4.625 -6.734375 4.484375 -6.890625 4.28125 -6.890625 C 4.0625 -6.890625 4 -6.75 3.9375 -6.625 L 0.65625 0.234375 C 0.59375 0.390625 0.578125 0.390625 0.578125 0.484375 C 0.578125 0.65625 0.71875 0.828125 0.921875 0.828125 C 1.140625 0.828125 1.21875 0.671875 1.265625 0.546875 L 4.546875 -6.3125 C 4.625 -6.46875 4.625 -6.46875 4.625 -6.546875 Z M 4.625 -6.546875 "/>
</g>
<g id="glyph-1-7">
<path d="M 4.84375 -2.140625 C 4.84375 -3.375 3.96875 -4.34375 2.90625 -4.34375 C 2.4375 -4.34375 1.984375 -4.15625 1.65625 -3.859375 C 1.65625 -4.140625 1.625 -4.28125 1.25 -4.28125 L 0.53125 -4.28125 C 0.375 -4.28125 0.125 -4.28125 0.125 -3.96875 C 0.125 -3.671875 0.375 -3.671875 0.515625 -3.671875 L 0.96875 -3.671875 L 0.96875 1.59375 L 0.53125 1.59375 C 0.375 1.59375 0.125 1.59375 0.125 1.90625 C 0.125 2.203125 0.375 2.203125 0.515625 2.203125 L 2.09375 2.203125 C 2.234375 2.203125 2.5 2.203125 2.5 1.90625 C 2.5 1.59375 2.25 1.59375 2.09375 1.59375 L 1.65625 1.59375 L 1.65625 -0.453125 C 2.0625 -0.03125 2.484375 0.0625 2.796875 0.0625 C 3.890625 0.0625 4.84375 -0.890625 4.84375 -2.140625 Z M 4.15625 -2.140625 C 4.15625 -1.1875 3.46875 -0.546875 2.765625 -0.546875 C 2 -0.546875 1.65625 -1.421875 1.65625 -1.890625 L 1.65625 -2.625 C 1.65625 -3.203125 2.21875 -3.734375 2.859375 -3.734375 C 3.59375 -3.734375 4.15625 -3.015625 4.15625 -2.140625 Z M 4.15625 -2.140625 "/>
</g>
<g id="glyph-1-8">
<path d="M 5.09375 -0.296875 C 5.09375 -0.609375 4.84375 -0.609375 4.6875 -0.609375 L 4.25 -0.609375 L 4.25 -2.90625 C 4.25 -3.921875 3.734375 -4.34375 2.953125 -4.34375 C 2.28125 -4.34375 1.84375 -4 1.65625 -3.8125 L 1.65625 -5.671875 C 1.65625 -5.96875 1.59375 -6.078125 1.25 -6.078125 L 0.53125 -6.078125 C 0.375 -6.078125 0.125 -6.078125 0.125 -5.765625 C 0.125 -5.46875 0.375 -5.46875 0.515625 -5.46875 L 0.96875 -5.46875 L 0.96875 -0.609375 L 0.53125 -0.609375 C 0.375 -0.609375 0.125 -0.609375 0.125 -0.296875 C 0.125 0 0.375 0 0.515625 0 L 2.09375 0 C 2.234375 0 2.5 0 2.5 -0.296875 C 2.5 -0.609375 2.25 -0.609375 2.09375 -0.609375 L 1.65625 -0.609375 L 1.65625 -2.359375 C 1.65625 -3.359375 2.390625 -3.734375 2.890625 -3.734375 C 3.421875 -3.734375 3.5625 -3.453125 3.5625 -2.859375 L 3.5625 -0.609375 L 3.171875 -0.609375 C 3.015625 -0.609375 2.765625 -0.609375 2.765625 -0.296875 C 2.765625 0 3.03125 0 3.171875 0 L 4.6875 0 C 4.828125 0 5.09375 0 5.09375 -0.296875 Z M 5.09375 -0.296875 "/>
</g>
<g id="glyph-1-9">
<path d="M 5.09375 -0.296875 C 5.09375 -0.609375 4.84375 -0.609375 4.6875 -0.609375 L 4.25 -0.609375 L 4.25 -2.90625 C 4.25 -3.921875 3.734375 -4.34375 2.953125 -4.34375 C 2.28125 -4.34375 1.84375 -4 1.65625 -3.8125 C 1.65625 -4.140625 1.65625 -4.28125 1.25 -4.28125 L 0.53125 -4.28125 C 0.375 -4.28125 0.125 -4.28125 0.125 -3.96875 C 0.125 -3.671875 0.375 -3.671875 0.515625 -3.671875 L 0.96875 -3.671875 L 0.96875 -0.609375 L 0.53125 -0.609375 C 0.375 -0.609375 0.125 -0.609375 0.125 -0.296875 C 0.125 0 0.375 0 0.515625 0 L 2.09375 0 C 2.234375 0 2.5 0 2.5 -0.296875 C 2.5 -0.609375 2.25 -0.609375 2.09375 -0.609375 L 1.65625 -0.609375 L 1.65625 -2.359375 C 1.65625 -3.359375 2.390625 -3.734375 2.890625 -3.734375 C 3.421875 -3.734375 3.5625 -3.453125 3.5625 -2.859375 L 3.5625 -0.609375 L 3.171875 -0.609375 C 3.015625 -0.609375 2.765625 -0.609375 2.765625 -0.296875 C 2.765625 0 3.03125 0 3.171875 0 L 4.6875 0 C 4.828125 0 5.09375 0 5.09375 -0.296875 Z M 5.09375 -0.296875 "/>
</g>
<g id="glyph-1-10">
<path d="M 4.640625 -2.140625 C 4.640625 -3.390625 3.71875 -4.375 2.609375 -4.375 C 1.484375 -4.375 0.5625 -3.390625 0.5625 -2.140625 C 0.5625 -0.890625 1.515625 0.0625 2.609375 0.0625 C 3.703125 0.0625 4.640625 -0.890625 4.640625 -2.140625 Z M 3.953125 -2.21875 C 3.953125 -1.296875 3.34375 -0.546875 2.609375 -0.546875 C 1.875 -0.546875 1.25 -1.296875 1.25 -2.21875 C 1.25 -3.125 1.890625 -3.765625 2.609375 -3.765625 C 3.3125 -3.765625 3.953125 -3.125 3.953125 -2.21875 Z M 3.953125 -2.21875 "/>
</g>
<g id="glyph-1-11">
<path d="M 4.6875 -0.40625 L 4.6875 -0.671875 C 4.6875 -0.859375 4.6875 -1.078125 4.359375 -1.078125 C 4 -1.078125 4 -0.890625 4 -0.609375 L 1.640625 -0.609375 C 2.21875 -1.109375 3.1875 -1.859375 3.609375 -2.25 C 4.234375 -2.8125 4.6875 -3.453125 4.6875 -4.25 C 4.6875 -5.4375 3.6875 -6.1875 2.46875 -6.1875 C 1.296875 -6.1875 0.515625 -5.359375 0.515625 -4.515625 C 0.515625 -4.15625 0.796875 -4.046875 0.96875 -4.046875 C 1.171875 -4.046875 1.40625 -4.21875 1.40625 -4.484375 C 1.40625 -4.609375 1.34375 -4.734375 1.265625 -4.8125 C 1.40625 -5.265625 1.875 -5.578125 2.421875 -5.578125 C 3.234375 -5.578125 4 -5.125 4 -4.25 C 4 -3.546875 3.515625 -2.96875 2.859375 -2.421875 L 0.671875 -0.578125 C 0.578125 -0.5 0.515625 -0.453125 0.515625 -0.3125 C 0.515625 0 0.765625 0 0.921875 0 L 4.296875 0 C 4.625 0 4.6875 -0.09375 4.6875 -0.40625 Z M 4.6875 -0.40625 "/>
</g>
<g id="glyph-1-12">
<path d="M 4.84375 -2.140625 C 4.84375 -3.375 3.96875 -4.34375 2.90625 -4.34375 C 2.4375 -4.34375 1.984375 -4.15625 1.65625 -3.859375 L 1.65625 -5.671875 C 1.65625 -5.96875 1.59375 -6.078125 1.25 -6.078125 L 0.53125 -6.078125 C 0.375 -6.078125 0.125 -6.078125 0.125 -5.765625 C 0.125 -5.46875 0.375 -5.46875 0.515625 -5.46875 L 0.96875 -5.46875 L 0.96875 -0.40625 C 0.96875 -0.203125 0.96875 0 1.3125 0 C 1.65625 0 1.65625 -0.203125 1.65625 -0.453125 C 2.0625 -0.03125 2.484375 0.0625 2.796875 0.0625 C 3.890625 0.0625 4.84375 -0.890625 4.84375 -2.140625 Z M 4.15625 -2.140625 C 4.15625 -1.1875 3.46875 -0.546875 2.765625 -0.546875 C 2 -0.546875 1.65625 -1.421875 1.65625 -1.890625 L 1.65625 -2.625 C 1.65625 -3.203125 2.21875 -3.734375 2.859375 -3.734375 C 3.59375 -3.734375 4.15625 -3.015625 4.15625 -2.140625 Z M 4.15625 -2.140625 "/>
</g>
<g id="glyph-1-13">
<path d="M 4.84375 -3.734375 C 4.84375 -3.921875 4.71875 -4.34375 3.890625 -4.34375 C 3.390625 -4.34375 2.75 -4.15625 2.203125 -3.53125 L 2.203125 -3.875 C 2.203125 -4.1875 2.140625 -4.28125 1.8125 -4.28125 L 0.71875 -4.28125 C 0.5625 -4.28125 0.3125 -4.28125 0.3125 -3.984375 C 0.3125 -3.671875 0.5625 -3.671875 0.71875 -3.671875 L 1.515625 -3.671875 L 1.515625 -0.609375 L 0.71875 -0.609375 C 0.5625 -0.609375 0.3125 -0.609375 0.3125 -0.3125 C 0.3125 0 0.5625 0 0.71875 0 L 3.3125 0 C 3.453125 0 3.71875 0 3.71875 -0.296875 C 3.71875 -0.609375 3.453125 -0.609375 3.3125 -0.609375 L 2.203125 -0.609375 L 2.203125 -1.84375 C 2.203125 -2.78125 2.796875 -3.734375 4 -3.734375 C 4 -3.5 4.171875 -3.296875 4.421875 -3.296875 C 4.640625 -3.296875 4.84375 -3.453125 4.84375 -3.734375 Z M 4.84375 -3.734375 "/>
</g>
<g id="glyph-1-14">
<path d="M 5.09375 -0.3125 C 5.09375 -0.609375 4.828125 -0.609375 4.6875 -0.609375 L 4.25 -0.609375 L 4.25 -5.671875 C 4.25 -5.96875 4.1875 -6.078125 3.84375 -6.078125 L 3.125 -6.078125 C 2.96875 -6.078125 2.71875 -6.078125 2.71875 -5.765625 C 2.71875 -5.46875 2.96875 -5.46875 3.109375 -5.46875 L 3.5625 -5.46875 L 3.5625 -3.890625 C 3.234375 -4.1875 2.828125 -4.34375 2.390625 -4.34375 C 1.3125 -4.34375 0.359375 -3.40625 0.359375 -2.140625 C 0.359375 -0.90625 1.25 0.0625 2.3125 0.0625 C 2.859375 0.0625 3.28125 -0.203125 3.5625 -0.5 C 3.5625 -0.140625 3.5625 0 3.953125 0 L 4.6875 0 C 4.84375 0 5.09375 0 5.09375 -0.3125 Z M 3.5625 -1.921875 C 3.5625 -1.375 3.109375 -0.546875 2.34375 -0.546875 C 1.640625 -0.546875 1.046875 -1.25 1.046875 -2.140625 C 1.046875 -3.09375 1.734375 -3.734375 2.4375 -3.734375 C 3.078125 -3.734375 3.5625 -3.1875 3.5625 -2.640625 Z M 3.5625 -1.921875 "/>
</g>
<g id="glyph-1-15">
<path d="M 4.609375 -1.078125 C 4.609375 -1.359375 4.328125 -1.359375 4.265625 -1.359375 C 4.078125 -1.359375 4 -1.328125 3.9375 -1.140625 C 3.71875 -0.640625 3.1875 -0.546875 2.90625 -0.546875 C 2.15625 -0.546875 1.40625 -1.046875 1.25 -1.890625 L 4.21875 -1.890625 C 4.421875 -1.890625 4.609375 -1.890625 4.609375 -2.265625 C 4.609375 -3.40625 3.96875 -4.375 2.6875 -4.375 C 1.5 -4.375 0.546875 -3.375 0.546875 -2.15625 C 0.546875 -0.9375 1.546875 0.0625 2.828125 0.0625 C 4.140625 0.0625 4.609375 -0.828125 4.609375 -1.078125 Z M 3.90625 -2.5 L 1.265625 -2.5 C 1.40625 -3.21875 1.984375 -3.765625 2.6875 -3.765625 C 3.203125 -3.765625 3.8125 -3.515625 3.90625 -2.5 Z M 3.90625 -2.5 "/>
</g>
<g id="glyph-1-16">
<path d="M 4.96875 -3.96875 C 4.96875 -4.28125 4.734375 -4.28125 4.578125 -4.28125 L 3.40625 -4.28125 C 3.265625 -4.28125 3.015625 -4.28125 3.015625 -3.984375 C 3.015625 -3.671875 3.25 -3.671875 3.40625 -3.671875 L 3.6875 -3.671875 L 2.609375 -0.484375 L 1.515625 -3.671875 L 1.796875 -3.671875 C 1.953125 -3.671875 2.203125 -3.671875 2.203125 -3.96875 C 2.203125 -4.28125 1.953125 -4.28125 1.796875 -4.28125 L 0.640625 -4.28125 C 0.484375 -4.28125 0.234375 -4.28125 0.234375 -3.96875 C 0.234375 -3.671875 0.484375 -3.671875 0.640625 -3.671875 L 0.9375 -3.671875 L 2.078125 -0.296875 C 2.203125 0.046875 2.390625 0.046875 2.609375 0.046875 C 2.796875 0.046875 3.015625 0.046875 3.125 -0.28125 L 4.265625 -3.671875 L 4.578125 -3.671875 C 4.71875 -3.671875 4.96875 -3.671875 4.96875 -3.96875 Z M 4.96875 -3.96875 "/>
</g>
<g id="glyph-1-17">
<path d="M 4.921875 -1.984375 C 4.921875 -2.28125 4.6875 -2.28125 4.515625 -2.28125 L 3.75 -2.28125 L 3.75 -5.78125 C 3.75 -6.109375 3.671875 -6.1875 3.34375 -6.1875 L 3.0625 -6.1875 C 2.828125 -6.1875 2.765625 -6.1875 2.640625 -5.984375 L 0.375 -2.421875 C 0.28125 -2.296875 0.28125 -2.28125 0.28125 -2.078125 C 0.28125 -1.75 0.375 -1.671875 0.6875 -1.671875 L 3.1875 -1.671875 L 3.1875 -0.609375 L 2.578125 -0.609375 C 2.421875 -0.609375 2.171875 -0.609375 2.171875 -0.296875 C 2.171875 0 2.421875 0 2.578125 0 L 4.359375 0 C 4.515625 0 4.765625 0 4.765625 -0.296875 C 4.765625 -0.609375 4.515625 -0.609375 4.359375 -0.609375 L 3.75 -0.609375 L 3.75 -1.671875 L 4.515625 -1.671875 C 4.671875 -1.671875 4.921875 -1.671875 4.921875 -1.984375 Z M 3.1875 -2.28125 L 0.984375 -2.28125 L 3.1875 -5.75 Z M 3.1875 -2.28125 "/>
</g>
<g id="glyph-1-18">
<path d="M 4.515625 -0.296875 C 4.515625 -0.609375 4.265625 -0.609375 4.109375 -0.609375 L 3.078125 -0.609375 L 3.078125 -3.875 C 3.078125 -4.1875 3.015625 -4.28125 2.671875 -4.28125 L 1.265625 -4.28125 C 1.109375 -4.28125 0.859375 -4.28125 0.859375 -3.984375 C 0.859375 -3.671875 1.109375 -3.671875 1.265625 -3.671875 L 2.390625 -3.671875 L 2.390625 -0.609375 L 1.1875 -0.609375 C 1.03125 -0.609375 0.78125 -0.609375 0.78125 -0.296875 C 0.78125 0 1.03125 0 1.1875 0 L 4.109375 0 C 4.265625 0 4.515625 0 4.515625 -0.296875 Z M 3.109375 -5.515625 C 3.109375 -5.796875 2.890625 -6.015625 2.609375 -6.015625 C 2.328125 -6.015625 2.109375 -5.796875 2.109375 -5.515625 C 2.109375 -5.234375 2.328125 -5.015625 2.609375 -5.015625 C 2.890625 -5.015625 3.109375 -5.234375 3.109375 -5.515625 Z M 3.109375 -5.515625 "/>
</g>
<g id="glyph-1-19">
<path d="M 4.921875 -0.296875 C 4.921875 -0.609375 4.671875 -0.609375 4.515625 -0.609375 L 4.125 -0.609375 L 2.859375 -2.203125 L 3.984375 -3.671875 L 4.375 -3.671875 C 4.515625 -3.671875 4.796875 -3.671875 4.796875 -3.96875 C 4.796875 -4.28125 4.53125 -4.28125 4.375 -4.28125 L 3.21875 -4.28125 C 3.078125 -4.28125 2.828125 -4.28125 2.828125 -3.984375 C 2.828125 -3.671875 3.046875 -3.671875 3.3125 -3.671875 L 2.578125 -2.671875 L 1.8125 -3.671875 C 2.078125 -3.671875 2.296875 -3.671875 2.296875 -3.984375 C 2.296875 -4.28125 2.046875 -4.28125 1.890625 -4.28125 L 0.734375 -4.28125 C 0.59375 -4.28125 0.328125 -4.28125 0.328125 -3.96875 C 0.328125 -3.671875 0.59375 -3.671875 0.734375 -3.671875 L 1.140625 -3.671875 L 2.3125 -2.203125 L 1.078125 -0.609375 L 0.671875 -0.609375 C 0.53125 -0.609375 0.265625 -0.609375 0.265625 -0.296875 C 0.265625 0 0.53125 0 0.671875 0 L 1.84375 0 C 1.984375 0 2.234375 0 2.234375 -0.296875 C 2.234375 -0.609375 2.03125 -0.609375 1.71875 -0.609375 L 2.578125 -1.828125 L 3.453125 -0.609375 C 3.1875 -0.609375 2.96875 -0.609375 2.96875 -0.296875 C 2.96875 0 3.203125 0 3.359375 0 L 4.515625 0 C 4.65625 0 4.921875 0 4.921875 -0.296875 Z M 4.921875 -0.296875 "/>
</g>
<g id="glyph-1-20">
<path d="M 3.234375 -0.609375 C 3.234375 -0.984375 2.9375 -1.25 2.609375 -1.25 C 2.234375 -1.25 1.984375 -0.9375 1.984375 -0.625 C 1.984375 -0.265625 2.28125 0 2.609375 0 C 2.984375 0 3.234375 -0.3125 3.234375 -0.609375 Z M 3.234375 -0.609375 "/>
</g>
<g id="glyph-2-0">
<path d="M 4.796875 -1.9375 C 4.796875 -3.0625 3.921875 -3.953125 2.859375 -3.953125 C 2.375 -3.953125 1.9375 -3.765625 1.59375 -3.390625 L 1.59375 -3.953125 L 0.265625 -3.859375 L 0.265625 -3.578125 C 0.90625 -3.578125 0.953125 -3.53125 0.953125 -3.140625 L 0.953125 1.046875 C 0.953125 1.453125 0.859375 1.453125 0.265625 1.453125 L 0.265625 1.734375 C 0.6875 1.71875 0.859375 1.703125 1.296875 1.703125 C 1.71875 1.703125 1.828125 1.71875 2.3125 1.734375 L 2.3125 1.453125 C 1.71875 1.453125 1.625 1.453125 1.625 1.046875 L 1.625 -0.4375 C 1.859375 -0.203125 2.15625 0.09375 2.75 0.09375 C 3.8125 0.09375 4.796875 -0.765625 4.796875 -1.9375 Z M 4.03125 -1.9375 C 4.03125 -0.90625 3.421875 -0.125 2.6875 -0.125 C 2.296875 -0.125 1.953125 -0.359375 1.734375 -0.671875 C 1.625 -0.84375 1.625 -0.875 1.625 -1.03125 L 1.625 -3.015625 C 1.921875 -3.53125 2.421875 -3.703125 2.796875 -3.703125 C 3.484375 -3.703125 4.03125 -2.90625 4.03125 -1.9375 Z M 4.03125 -1.9375 "/>
</g>
<g id="glyph-2-1">
<path d="M 3.34375 -3.40625 C 3.34375 -3.6875 3.078125 -3.953125 2.671875 -3.953125 C 2.125 -3.953125 1.75 -3.578125 1.546875 -3.03125 L 1.546875 -3.953125 L 0.265625 -3.859375 L 0.265625 -3.578125 C 0.875 -3.578125 0.953125 -3.515625 0.953125 -3.078125 L 0.953125 -0.6875 C 0.953125 -0.28125 0.859375 -0.28125 0.265625 -0.28125 L 0.265625 0 C 0.75 -0.015625 0.859375 -0.03125 1.3125 -0.03125 L 2.453125 0 L 2.453125 -0.28125 L 2.28125 -0.28125 C 1.625 -0.28125 1.59375 -0.375 1.59375 -0.703125 L 1.59375 -2.046875 C 1.59375 -2.421875 1.6875 -3.734375 2.71875 -3.734375 L 2.71875 -3.71875 C 2.6875 -3.71875 2.546875 -3.609375 2.546875 -3.390625 C 2.546875 -3.15625 2.734375 -3 2.953125 -3 C 3.140625 -3 3.34375 -3.140625 3.34375 -3.40625 Z M 3.34375 -3.40625 "/>
</g>
<g id="glyph-2-2">
<path d="M 2.265625 0 L 2.265625 -0.28125 C 1.6875 -0.28125 1.640625 -0.328125 1.640625 -0.671875 L 1.640625 -3.953125 L 0.359375 -3.859375 L 0.359375 -3.578125 C 0.9375 -3.578125 1.015625 -3.53125 1.015625 -3.09375 L 1.015625 -0.6875 C 1.015625 -0.28125 0.90625 -0.28125 0.328125 -0.28125 L 0.328125 0 C 0.71875 -0.015625 0.90625 -0.03125 1.3125 -0.03125 C 1.453125 -0.03125 1.828125 -0.03125 2.265625 0 Z M 1.765625 -5.40625 C 1.765625 -5.671875 1.546875 -5.875 1.28125 -5.875 C 1.015625 -5.875 0.796875 -5.671875 0.796875 -5.40625 C 0.796875 -5.125 1.015625 -4.921875 1.28125 -4.921875 C 1.546875 -4.921875 1.765625 -5.125 1.765625 -5.40625 Z M 1.765625 -5.40625 "/>
</g>
<g id="glyph-2-3">
<path d="M 4.671875 -3.578125 L 4.671875 -3.859375 C 4.390625 -3.828125 3.96875 -3.828125 3.96875 -3.828125 C 3.71875 -3.828125 3.453125 -3.84375 3.203125 -3.859375 L 3.203125 -3.578125 C 3.453125 -3.5625 3.609375 -3.421875 3.609375 -3.203125 C 3.609375 -3.109375 3.59375 -3.09375 3.5625 -2.984375 L 2.625 -0.734375 L 1.609375 -3.171875 C 1.578125 -3.234375 1.5625 -3.28125 1.5625 -3.34375 C 1.5625 -3.578125 1.890625 -3.578125 2.0625 -3.578125 L 2.0625 -3.859375 C 1.671875 -3.84375 1.46875 -3.828125 1.078125 -3.828125 C 0.765625 -3.828125 0.5 -3.828125 0.171875 -3.859375 L 0.171875 -3.578125 C 0.59375 -3.578125 0.765625 -3.578125 0.90625 -3.25 L 2.21875 -0.078125 C 2.265625 0.078125 2.34375 0.09375 2.421875 0.09375 C 2.5 0.09375 2.5625 0.078125 2.625 -0.078125 L 3.84375 -3.015625 C 4.03125 -3.46875 4.34375 -3.578125 4.671875 -3.578125 Z M 4.671875 -3.578125 "/>
</g>
<g id="glyph-2-4">
<path d="M 4.453125 -0.796875 L 4.453125 -1.296875 L 4.203125 -1.296875 L 4.203125 -0.8125 C 4.203125 -0.703125 4.203125 -0.265625 3.875 -0.265625 C 3.546875 -0.265625 3.546875 -0.6875 3.546875 -0.828125 L 3.546875 -2.40625 C 3.546875 -2.90625 3.546875 -3.21875 3.15625 -3.578125 C 2.8125 -3.875 2.390625 -4.015625 1.9375 -4.015625 C 1.1875 -4.015625 0.5625 -3.640625 0.5625 -3.0625 C 0.5625 -2.78125 0.75 -2.625 0.984375 -2.625 C 1.234375 -2.625 1.390625 -2.8125 1.390625 -3.046875 C 1.390625 -3.421875 1 -3.46875 1 -3.46875 C 1.234375 -3.703125 1.671875 -3.78125 1.921875 -3.78125 C 2.375 -3.78125 2.890625 -3.453125 2.890625 -2.65625 L 2.890625 -2.359375 C 2.40625 -2.34375 1.734375 -2.296875 1.140625 -2.015625 C 0.5 -1.703125 0.296875 -1.234375 0.296875 -0.875 C 0.296875 -0.140625 1.15625 0.09375 1.765625 0.09375 C 2.5 0.09375 2.84375 -0.390625 2.96875 -0.640625 C 3.015625 -0.265625 3.28125 0.046875 3.65625 0.046875 C 3.890625 0.046875 4.453125 -0.078125 4.453125 -0.796875 Z M 2.890625 -1.265625 C 2.890625 -0.390625 2.21875 -0.125 1.828125 -0.125 C 1.40625 -0.125 1.015625 -0.4375 1.015625 -0.875 C 1.015625 -1.46875 1.515625 -2.09375 2.890625 -2.15625 Z M 2.890625 -1.265625 "/>
</g>
<g id="glyph-2-5">
<path d="M 3.0625 -1.109375 L 3.0625 -1.625 L 2.8125 -1.625 L 2.8125 -1.140625 C 2.8125 -0.46875 2.53125 -0.15625 2.21875 -0.15625 C 1.609375 -0.15625 1.609375 -0.9375 1.609375 -1.09375 L 1.609375 -3.578125 L 2.90625 -3.578125 L 2.90625 -3.859375 L 1.609375 -3.859375 L 1.609375 -5.5 L 1.359375 -5.5 C 1.359375 -4.75 1.03125 -3.828125 0.171875 -3.8125 L 0.171875 -3.578125 L 0.953125 -3.578125 L 0.953125 -1.109375 C 0.953125 -0.109375 1.671875 0.09375 2.15625 0.09375 C 2.75 0.09375 3.0625 -0.46875 3.0625 -1.109375 Z M 3.0625 -1.109375 "/>
</g>
<g id="glyph-2-6">
<path d="M 3.828125 -1.0625 C 3.828125 -1.125 3.78125 -1.1875 3.703125 -1.1875 C 3.609375 -1.1875 3.578125 -1.125 3.578125 -1.078125 C 3.265625 -0.171875 2.46875 -0.15625 2.34375 -0.15625 C 1.90625 -0.15625 1.546875 -0.390625 1.328125 -0.703125 C 1.03125 -1.140625 1.03125 -1.671875 1.03125 -2.046875 L 3.578125 -2.046875 C 3.78125 -2.046875 3.828125 -2.046875 3.828125 -2.234375 C 3.828125 -3.15625 3.328125 -4.015625 2.171875 -4.015625 C 1.09375 -4.015625 0.265625 -3.078125 0.265625 -1.96875 C 0.265625 -0.796875 1.203125 0.09375 2.296875 0.09375 C 3.390625 0.09375 3.828125 -0.859375 3.828125 -1.0625 Z M 3.21875 -2.265625 L 1.03125 -2.265625 C 1.125 -3.640625 1.921875 -3.78125 2.171875 -3.78125 C 2.671875 -3.78125 3.203125 -3.40625 3.21875 -2.265625 Z M 3.21875 -2.265625 "/>
</g>
<g id="glyph-2-7">
<path d="M 2.546875 -1.65625 L 2.546875 -2.21875 L 0.09375 -2.21875 L 0.09375 -1.65625 Z M 2.546875 -1.65625 "/>
</g>
<g id="glyph-2-8">
<path d="M 3.28125 -5.671875 C 3.28125 -6.015625 2.9375 -6.3125 2.4375 -6.3125 C 1.75 -6.3125 1.015625 -5.78125 1.015625 -4.890625 L 1.015625 -3.859375 L 0.296875 -3.859375 L 0.296875 -3.578125 L 1.015625 -3.578125 L 1.015625 -0.6875 C 1.015625 -0.28125 0.90625 -0.28125 0.328125 -0.28125 L 0.328125 0 C 0.796875 -0.015625 0.90625 -0.03125 1.375 -0.03125 L 2.5 0 L 2.5 -0.28125 L 2.328125 -0.28125 C 1.671875 -0.28125 1.640625 -0.375 1.640625 -0.703125 L 1.640625 -3.578125 L 2.6875 -3.578125 L 2.6875 -3.859375 L 1.625 -3.859375 L 1.625 -4.875 C 1.625 -5.6875 2.0625 -6.09375 2.4375 -6.09375 C 2.53125 -6.09375 2.625 -6.0625 2.71875 -6.03125 C 2.625 -6 2.484375 -5.890625 2.484375 -5.671875 C 2.484375 -5.4375 2.65625 -5.265625 2.875 -5.265625 C 3.109375 -5.265625 3.28125 -5.4375 3.28125 -5.671875 Z M 3.28125 -5.671875 "/>
</g>
<g id="glyph-2-9">
<path d="M 4.328125 -1.90625 C 4.328125 -3.078125 3.40625 -4.015625 2.296875 -4.015625 C 1.15625 -4.015625 0.265625 -3.046875 0.265625 -1.90625 C 0.265625 -0.78125 1.1875 0.09375 2.296875 0.09375 C 3.421875 0.09375 4.328125 -0.8125 4.328125 -1.90625 Z M 3.5625 -1.984375 C 3.5625 -1.65625 3.5625 -1.140625 3.34375 -0.75 C 3.09375 -0.328125 2.671875 -0.15625 2.296875 -0.15625 C 1.859375 -0.15625 1.484375 -0.375 1.265625 -0.71875 C 1.03125 -1.09375 1.03125 -1.578125 1.03125 -1.984375 C 1.03125 -2.3125 1.03125 -2.828125 1.25 -3.203125 C 1.515625 -3.65625 1.96875 -3.78125 2.296875 -3.78125 C 2.796875 -3.78125 3.171875 -3.5 3.34375 -3.203125 C 3.546875 -2.8125 3.5625 -2.359375 3.5625 -1.984375 Z M 3.5625 -1.984375 "/>
</g>
<g id="glyph-2-10">
<path d="M 4.6875 0 L 4.6875 -0.28125 C 4.390625 -0.28125 4.1875 -0.28125 3.859375 -0.71875 L 2.59375 -2.4375 C 3.46875 -3.203125 3.875 -3.546875 4.484375 -3.578125 L 4.484375 -3.859375 C 4.171875 -3.828125 4.15625 -3.828125 3.828125 -3.828125 L 2.84375 -3.859375 L 2.84375 -3.578125 C 2.96875 -3.578125 3.078125 -3.515625 3.078125 -3.359375 C 3.078125 -3.203125 2.9375 -3.078125 2.859375 -3.015625 L 1.59375 -1.9375 L 1.59375 -6.21875 L 0.265625 -6.109375 L 0.265625 -5.84375 C 0.875 -5.84375 0.953125 -5.78125 0.953125 -5.34375 L 0.953125 -0.6875 C 0.953125 -0.28125 0.859375 -0.28125 0.265625 -0.28125 L 0.265625 0 L 1.265625 -0.03125 L 2.25 0 L 2.25 -0.28125 C 1.671875 -0.28125 1.5625 -0.28125 1.5625 -0.6875 L 1.5625 -1.59375 L 2.140625 -2.078125 L 3.015625 -0.90625 C 3.15625 -0.703125 3.21875 -0.59375 3.21875 -0.46875 C 3.21875 -0.390625 3.203125 -0.28125 2.921875 -0.28125 L 2.921875 0 L 3.890625 -0.03125 C 4.140625 -0.03125 4.4375 -0.03125 4.6875 0 Z M 4.6875 0 "/>
</g>
<g id="glyph-2-11">
<path d="M 4.796875 -1.9375 C 4.796875 -3.046875 3.90625 -3.953125 2.84375 -3.953125 C 2.234375 -3.953125 1.8125 -3.640625 1.59375 -3.40625 L 1.59375 -6.21875 L 0.265625 -6.109375 L 0.265625 -5.84375 C 0.875 -5.84375 0.953125 -5.78125 0.953125 -5.34375 L 0.953125 0 L 1.203125 0 L 1.546875 -0.546875 C 1.8125 -0.15625 2.265625 0.09375 2.75 0.09375 C 3.8125 0.09375 4.796875 -0.765625 4.796875 -1.9375 Z M 4.03125 -1.9375 C 4.03125 -1.515625 3.96875 -1.046875 3.75 -0.6875 C 3.546875 -0.40625 3.171875 -0.125 2.703125 -0.125 C 2.296875 -0.125 1.953125 -0.34375 1.75 -0.671875 C 1.625 -0.859375 1.625 -0.875 1.625 -1.03125 L 1.625 -2.859375 C 1.625 -3.03125 1.625 -3.03125 1.71875 -3.171875 C 2.015625 -3.59375 2.46875 -3.734375 2.796875 -3.734375 C 3.1875 -3.734375 3.546875 -3.515625 3.78125 -3.140625 C 4.015625 -2.75 4.03125 -2.234375 4.03125 -1.9375 Z M 4.03125 -1.9375 "/>
</g>
<g id="glyph-2-12">
<path d="M 1.953125 0.4375 L 1.953125 -3.953125 L 0.5625 -3.859375 L 0.5625 -3.578125 C 1.234375 -3.578125 1.3125 -3.515625 1.3125 -3.078125 L 1.3125 0.453125 C 1.3125 0.71875 1.28125 1.609375 0.671875 1.609375 C 0.640625 1.609375 0.40625 1.609375 0.203125 1.5 C 0.484375 1.421875 0.484375 1.15625 0.484375 1.109375 C 0.484375 0.875 0.3125 0.703125 0.078125 0.703125 C -0.1875 0.703125 -0.34375 0.875 -0.34375 1.125 C -0.34375 1.578125 0.171875 1.828125 0.6875 1.828125 C 1.390625 1.828125 1.953125 1.25 1.953125 0.4375 Z M 1.953125 -5.40625 C 1.953125 -5.671875 1.734375 -5.875 1.46875 -5.875 C 1.203125 -5.875 0.984375 -5.671875 0.984375 -5.40625 C 0.984375 -5.125 1.203125 -4.921875 1.46875 -4.921875 C 1.734375 -4.921875 1.953125 -5.125 1.953125 -5.40625 Z M 1.953125 -5.40625 "/>
</g>
<g id="glyph-2-13">
<path d="M 3.828125 -1.0625 C 3.828125 -1.171875 3.71875 -1.171875 3.703125 -1.171875 C 3.59375 -1.171875 3.59375 -1.15625 3.546875 -1 C 3.34375 -0.390625 2.84375 -0.15625 2.375 -0.15625 C 1.8125 -0.15625 1.078125 -0.625 1.078125 -1.9375 C 1.078125 -3.34375 1.796875 -3.765625 2.328125 -3.765625 C 2.4375 -3.765625 2.921875 -3.75 3.265625 -3.515625 C 3.078125 -3.484375 2.890625 -3.359375 2.890625 -3.09375 C 2.890625 -2.859375 3.078125 -2.6875 3.296875 -2.6875 C 3.53125 -2.6875 3.71875 -2.84375 3.71875 -3.109375 C 3.71875 -3.671875 3.09375 -4.015625 2.3125 -4.015625 C 1.15625 -4.015625 0.296875 -3.046875 0.296875 -1.9375 C 0.296875 -0.78125 1.234375 0.09375 2.296875 0.09375 C 3.53125 0.09375 3.828125 -0.984375 3.828125 -1.0625 Z M 3.828125 -1.0625 "/>
</g>
<g id="glyph-2-14">
<path d="M 4.890625 0 L 4.890625 -0.28125 C 4.4375 -0.28125 4.21875 -0.28125 4.203125 -0.5625 L 4.203125 -2.28125 C 4.203125 -3.015625 4.203125 -3.28125 3.953125 -3.59375 C 3.75 -3.84375 3.40625 -3.953125 2.96875 -3.953125 C 2.359375 -3.953125 1.921875 -3.640625 1.640625 -3.140625 L 1.640625 -6.21875 L 0.3125 -6.109375 L 0.3125 -5.84375 C 0.921875 -5.84375 1 -5.78125 1 -5.34375 L 1 -0.6875 C 1 -0.28125 0.90625 -0.28125 0.3125 -0.28125 L 0.3125 0 C 0.734375 -0.015625 0.90625 -0.03125 1.328125 -0.03125 C 1.765625 -0.03125 1.875 -0.015625 2.359375 0 L 2.359375 -0.28125 C 1.765625 -0.28125 1.671875 -0.28125 1.671875 -0.6875 L 1.671875 -2.3125 C 1.671875 -3.265625 2.34375 -3.734375 2.90625 -3.734375 C 3.421875 -3.734375 3.546875 -3.296875 3.546875 -2.75 L 3.546875 -0.6875 C 3.546875 -0.28125 3.453125 -0.28125 2.859375 -0.28125 L 2.859375 0 C 3.28125 -0.015625 3.453125 -0.03125 3.875 -0.03125 C 4.3125 -0.03125 4.421875 -0.015625 4.890625 0 Z M 4.890625 0 "/>
</g>
<g id="glyph-2-15">
<path d="M 4.828125 0 L 4.828125 -0.28125 C 4.21875 -0.28125 4.140625 -0.34375 4.140625 -0.78125 L 4.140625 -6.21875 L 2.8125 -6.109375 L 2.8125 -5.84375 C 3.421875 -5.84375 3.515625 -5.78125 3.515625 -5.34375 L 3.515625 -3.421875 C 3.46875 -3.484375 3.0625 -3.953125 2.359375 -3.953125 C 1.265625 -3.953125 0.296875 -3.078125 0.296875 -1.921875 C 0.296875 -0.8125 1.203125 0.09375 2.265625 0.09375 C 2.921875 0.09375 3.328125 -0.28125 3.484375 -0.46875 L 3.484375 0.09375 Z M 3.484375 -1.078125 C 3.484375 -0.90625 3.484375 -0.890625 3.34375 -0.703125 C 3.078125 -0.296875 2.65625 -0.125 2.296875 -0.125 C 1.921875 -0.125 1.5625 -0.34375 1.328125 -0.71875 C 1.09375 -1.09375 1.078125 -1.625 1.078125 -1.921875 C 1.078125 -2.34375 1.125 -2.8125 1.359375 -3.171875 C 1.5625 -3.453125 1.921875 -3.734375 2.40625 -3.734375 C 2.78125 -3.734375 3.140625 -3.546875 3.375 -3.203125 C 3.484375 -3.0625 3.484375 -3.046875 3.484375 -2.890625 Z M 3.484375 -1.078125 "/>
</g>
<g id="glyph-2-16">
<path d="M 4.890625 0 L 4.890625 -0.28125 C 4.28125 -0.28125 4.203125 -0.34375 4.203125 -0.78125 L 4.203125 -3.953125 L 2.859375 -3.859375 L 2.859375 -3.578125 C 3.46875 -3.578125 3.546875 -3.515625 3.546875 -3.078125 L 3.546875 -1.5 C 3.546875 -0.703125 3.09375 -0.125 2.453125 -0.125 C 1.703125 -0.125 1.671875 -0.515625 1.671875 -1 L 1.671875 -3.953125 L 0.3125 -3.859375 L 0.3125 -3.578125 C 1 -3.578125 1 -3.546875 1 -2.75 L 1 -1.421875 C 1 -0.828125 1 -0.453125 1.421875 -0.140625 C 1.671875 0.03125 2.046875 0.09375 2.40625 0.09375 C 2.859375 0.09375 3.296875 -0.109375 3.5625 -0.640625 L 3.578125 -0.640625 L 3.578125 0.09375 Z M 4.890625 0 "/>
</g>
<g id="glyph-2-17">
<path d="M 4.46875 -3.609375 C 4.46875 -3.78125 4.34375 -4.0625 3.984375 -4.0625 C 3.71875 -4.0625 3.328125 -3.953125 3.015625 -3.640625 C 2.765625 -3.828125 2.421875 -3.953125 2.046875 -3.953125 C 1.1875 -3.953125 0.546875 -3.34375 0.546875 -2.640625 C 0.546875 -2.1875 0.8125 -1.859375 0.953125 -1.734375 C 0.9375 -1.703125 0.6875 -1.390625 0.6875 -0.984375 C 0.6875 -0.6875 0.828125 -0.359375 1.078125 -0.203125 C 0.625 -0.046875 0.265625 0.28125 0.265625 0.703125 C 0.265625 1.328125 1.140625 1.84375 2.296875 1.84375 C 3.390625 1.84375 4.328125 1.375 4.328125 0.6875 C 4.328125 0.3125 4.15625 -0.078125 3.828125 -0.296875 C 3.328125 -0.609375 2.8125 -0.609375 1.953125 -0.609375 C 1.78125 -0.609375 1.5 -0.609375 1.421875 -0.625 C 1.15625 -0.6875 1 -0.921875 1 -1.203125 C 1 -1.359375 1.03125 -1.484375 1.125 -1.609375 C 1.34375 -1.453125 1.625 -1.328125 2.03125 -1.328125 C 2.890625 -1.328125 3.53125 -1.9375 3.53125 -2.640625 C 3.53125 -3.078125 3.28125 -3.390625 3.15625 -3.515625 C 3.515625 -3.828125 3.9375 -3.828125 4.046875 -3.828125 C 4 -3.8125 3.9375 -3.765625 3.9375 -3.59375 C 3.9375 -3.5 4 -3.328125 4.203125 -3.328125 C 4.328125 -3.328125 4.46875 -3.421875 4.46875 -3.609375 Z M 2.84375 -2.640625 C 2.84375 -2.4375 2.84375 -1.5625 2.03125 -1.5625 C 1.234375 -1.5625 1.234375 -2.4375 1.234375 -2.640625 C 1.234375 -2.890625 1.25 -3.1875 1.40625 -3.40625 C 1.546875 -3.578125 1.78125 -3.71875 2.03125 -3.71875 C 2.84375 -3.71875 2.84375 -2.84375 2.84375 -2.640625 Z M 3.828125 0.6875 C 3.828125 1.203125 3.140625 1.609375 2.296875 1.609375 C 1.421875 1.609375 0.765625 1.1875 0.765625 0.6875 C 0.765625 0.546875 0.84375 -0.046875 1.625 -0.046875 L 2.4375 -0.046875 C 2.734375 -0.046875 3.828125 -0.03125 3.828125 0.6875 Z M 3.828125 0.6875 "/>
</g>
<g id="glyph-2-18">
<path d="M 2.34375 0 L 2.34375 -0.28125 C 1.75 -0.28125 1.640625 -0.28125 1.640625 -0.6875 L 1.640625 -6.21875 L 0.328125 -6.109375 L 0.328125 -5.84375 C 0.9375 -5.84375 1.015625 -5.78125 1.015625 -5.34375 L 1.015625 -0.6875 C 1.015625 -0.28125 0.90625 -0.28125 0.328125 -0.28125 L 0.328125 0 C 0.75 -0.015625 0.90625 -0.03125 1.328125 -0.03125 C 1.75 -0.03125 1.890625 -0.015625 2.34375 0 Z M 2.34375 0 "/>
</g>
</g>
</defs>
<path fill-rule="nonzero" fill="rgb(100%, 100%, 100%)" fill-opacity="1" stroke-width="0.3985" stroke-linecap="butt" stroke-linejoin="miter" stroke="rgb(0%, 0%, 0%)" stroke-opacity="1" stroke-miterlimit="10" d="M -51.025393 -14.500634 L 51.023344 -14.500634 L 51.023344 14.501826 L -51.025393 14.501826 Z M -51.025393 -14.500634 " transform="matrix(0.99803, 0, 0, -0.99803, 57.432663, 66.629501)"/>
<g fill="rgb(0%, 0%, 0%)" fill-opacity="1">
<use xlink:href="#glyph-0-0" x="32.353737" y="62.983749"/>
<use xlink:href="#glyph-0-1" x="39.120949" y="62.983749"/>
<use xlink:href="#glyph-0-2" x="44.645285" y="62.983749"/>
<use xlink:href="#glyph-0-3" x="50.169621" y="62.983749"/>
<use xlink:href="#glyph-0-4" x="52.931789" y="62.983749"/>
<use xlink:href="#glyph-0-5" x="55.693957" y="62.983749"/>
</g>
<g fill="rgb(0%, 0%, 0%)" fill-opacity="1">
<use xlink:href="#glyph-0-6" x="63.423652" y="62.983749"/>
<use xlink:href="#glyph-0-7" x="67.318329" y="62.983749"/>
<use xlink:href="#glyph-0-8" x="71.737002" y="62.983749"/>
</g>
<g fill="rgb(0%, 0%, 0%)" fill-opacity="1">
<use xlink:href="#glyph-0-9" x="77.539742" y="62.983749"/>
</g>
<g fill="rgb(0%, 0%, 0%)" fill-opacity="1">
<use xlink:href="#glyph-1-0" x="15.671613" y="74.915362"/>
<use xlink:href="#glyph-1-1" x="20.891693" y="74.915362"/>
<use xlink:href="#glyph-1-2" x="26.111773" y="74.915362"/>
<use xlink:href="#glyph-1-3" x="31.331853" y="74.915362"/>
<use xlink:href="#glyph-1-4" x="36.551932" y="74.915362"/>
<use xlink:href="#glyph-1-0" x="41.772012" y="74.915362"/>
<use xlink:href="#glyph-1-5" x="46.992092" y="74.915362"/>
<use xlink:href="#glyph-1-6" x="52.212172" y="74.915362"/>
<use xlink:href="#glyph-1-7" x="57.432252" y="74.915362"/>
<use xlink:href="#glyph-1-8" x="62.652332" y="74.915362"/>
<use xlink:href="#glyph-1-1" x="67.872411" y="74.915362"/>
<use xlink:href="#glyph-1-9" x="73.092491" y="74.915362"/>
<use xlink:href="#glyph-1-0" x="78.312571" y="74.915362"/>
<use xlink:href="#glyph-1-10" x="83.532651" y="74.915362"/>
<use xlink:href="#glyph-1-2" x="88.752731" y="74.915362"/>
<use xlink:href="#glyph-1-11" x="93.97281" y="74.915362"/>
</g>
<path fill-rule="nonzero" fill="rgb(95.684814%, 78.039551%, 72.155762%)" fill-opacity="1" stroke-width="0.3985" stroke-linecap="butt" stroke-linejoin="miter" stroke="rgb(0%, 0%, 0%)" stroke-opacity="1" stroke-miterlimit="10" d="M -51.060619 -94.92473 L 51.05857 -94.92473 L 51.05857 -65.92227 L -51.060619 -65.92227 Z M -51.060619 -94.92473 " transform="matrix(0.99803, 0, 0, -0.99803, 57.432663, 66.629501)"/>
<g fill="rgb(0%, 0%, 0%)" fill-opacity="1">
<use xlink:href="#glyph-0-0" x="31.510971" y="143.250625"/>
<use xlink:href="#glyph-0-6" x="38.278183" y="143.250625"/>
<use xlink:href="#glyph-0-4" x="42.17286" y="143.250625"/>
<use xlink:href="#glyph-0-10" x="44.935028" y="143.250625"/>
</g>
<g fill="rgb(0%, 0%, 0%)" fill-opacity="1">
<use xlink:href="#glyph-0-11" x="49.636082" y="143.250625"/>
<use xlink:href="#glyph-0-12" x="54.607587" y="143.250625"/>
<use xlink:href="#glyph-0-7" x="58.474423" y="143.250625"/>
</g>
<g fill="rgb(0%, 0%, 0%)" fill-opacity="1">
<use xlink:href="#glyph-0-13" x="66.194176" y="143.250625"/>
<use xlink:href="#glyph-0-9" x="69.232759" y="143.250625"/>
<use xlink:href="#glyph-0-6" x="74.204264" y="143.250625"/>
<use xlink:href="#glyph-0-14" x="78.098941" y="143.250625"/>
</g>
<g fill="rgb(0%, 0%, 0%)" fill-opacity="1">
<use xlink:href="#glyph-1-4" x="10.451489" y="155.182238"/>
<use xlink:href="#glyph-1-10" x="15.671569" y="155.182238"/>
<use xlink:href="#glyph-1-12" x="20.891649" y="155.182238"/>
<use xlink:href="#glyph-1-13" x="26.111729" y="155.182238"/>
<use xlink:href="#glyph-1-1" x="31.331809" y="155.182238"/>
<use xlink:href="#glyph-1-14" x="36.551889" y="155.182238"/>
<use xlink:href="#glyph-1-15" x="41.771968" y="155.182238"/>
<use xlink:href="#glyph-1-16" x="46.992048" y="155.182238"/>
<use xlink:href="#glyph-1-17" x="52.212128" y="155.182238"/>
<use xlink:href="#glyph-1-6" x="57.432208" y="155.182238"/>
<use xlink:href="#glyph-1-7" x="62.652288" y="155.182238"/>
<use xlink:href="#glyph-1-8" x="67.872367" y="155.182238"/>
<use xlink:href="#glyph-1-1" x="73.092447" y="155.182238"/>
<use xlink:href="#glyph-1-9" x="78.312527" y="155.182238"/>
<use xlink:href="#glyph-1-0" x="83.532607" y="155.182238"/>
<use xlink:href="#glyph-1-10" x="88.752687" y="155.182238"/>
<use xlink:href="#glyph-1-2" x="93.972767" y="155.182238"/>
<use xlink:href="#glyph-1-11" x="99.192846" y="155.182238"/>
</g>
<path fill-rule="nonzero" fill="rgb(100%, 100%, 100%)" fill-opacity="1" stroke-width="0.3985" stroke-linecap="butt" stroke-linejoin="miter" stroke="rgb(0%, 0%, 0%)" stroke-opacity="1" stroke-miterlimit="10" d="M 73.900454 -54.853585 L 215.538919 -54.853585 L 215.538919 -25.573233 L 73.900454 -25.573233 Z M 73.900454 -54.853585 " transform="matrix(0.99803, 0, 0, -0.99803, 57.432663, 66.629501)"/>
<g fill="rgb(0%, 0%, 0%)" fill-opacity="1">
<use xlink:href="#glyph-0-15" x="135.165273" y="102.979095"/>
</g>
<g fill="rgb(0%, 0%, 0%)" fill-opacity="1">
<use xlink:href="#glyph-0-9" x="140.830799" y="102.979095"/>
<use xlink:href="#glyph-0-6" x="145.802304" y="102.979095"/>
<use xlink:href="#glyph-0-14" x="149.696981" y="102.979095"/>
<use xlink:href="#glyph-0-16" x="154.944901" y="102.979095"/>
<use xlink:href="#glyph-0-17" x="158.258906" y="102.979095"/>
<use xlink:href="#glyph-0-7" x="163.783242" y="102.979095"/>
<use xlink:href="#glyph-0-12" x="168.201915" y="102.979095"/>
</g>
<g fill="rgb(0%, 0%, 0%)" fill-opacity="1">
<use xlink:href="#glyph-0-18" x="171.790347" y="102.979095"/>
</g>
<g fill="rgb(0%, 0%, 0%)" fill-opacity="1">
<use xlink:href="#glyph-0-9" x="178.702727" y="102.979095"/>
<use xlink:href="#glyph-0-6" x="183.674232" y="102.979095"/>
<use xlink:href="#glyph-0-14" x="187.568908" y="102.979095"/>
</g>
<g fill="rgb(0%, 0%, 0%)" fill-opacity="1">
<use xlink:href="#glyph-0-9" x="196.117908" y="102.979095"/>
<use xlink:href="#glyph-0-2" x="201.089412" y="102.979095"/>
</g>
<g fill="rgb(0%, 0%, 0%)" fill-opacity="1">
<use xlink:href="#glyph-0-19" x="206.892152" y="102.979095"/>
<use xlink:href="#glyph-0-7" x="209.930736" y="102.979095"/>
<use xlink:href="#glyph-0-5" x="214.349409" y="102.979095"/>
<use xlink:href="#glyph-0-12" x="218.768083" y="102.979095"/>
</g>
<g fill="rgb(0%, 0%, 0%)" fill-opacity="1">
<use xlink:href="#glyph-0-6" x="225.945941" y="102.979095"/>
<use xlink:href="#glyph-0-7" x="229.840618" y="102.979095"/>
<use xlink:href="#glyph-0-20" x="234.259291" y="102.979095"/>
<use xlink:href="#glyph-0-9" x="238.180814" y="102.979095"/>
<use xlink:href="#glyph-0-3" x="243.152318" y="102.979095"/>
<use xlink:href="#glyph-0-1" x="245.914486" y="102.979095"/>
<use xlink:href="#glyph-0-12" x="251.438822" y="102.979095"/>
<use xlink:href="#glyph-0-4" x="255.305658" y="102.979095"/>
<use xlink:href="#glyph-0-9" x="258.067826" y="102.979095"/>
<use xlink:href="#glyph-0-17" x="263.039331" y="102.979095"/>
</g>
<g fill="rgb(0%, 0%, 0%)" fill-opacity="1">
<use xlink:href="#glyph-0-21" x="183.77573" y="114.910708"/>
<use xlink:href="#glyph-0-22" x="187.642566" y="114.910708"/>
<use xlink:href="#glyph-0-15" x="194.823407" y="114.910708"/>
</g>
<g fill="rgb(0%, 0%, 0%)" fill-opacity="1">
<use xlink:href="#glyph-0-23" x="201.045742" y="114.910708"/>
<use xlink:href="#glyph-0-24" x="208.779415" y="114.910708"/>
<use xlink:href="#glyph-0-25" x="216.098464" y="114.910708"/>
</g>
<path fill-rule="nonzero" fill="rgb(100%, 100%, 100%)" fill-opacity="1" stroke-width="0.3985" stroke-linecap="butt" stroke-linejoin="miter" stroke="rgb(0%, 0%, 0%)" stroke-opacity="1" stroke-miterlimit="10" d="M 266.960555 -54.712682 L 403.025539 -54.712682 L 403.025539 -25.710222 L 266.960555 -25.710222 Z M 266.960555 -54.712682 " transform="matrix(0.99803, 0, 0, -0.99803, 57.432663, 66.629501)"/>
<g fill="rgb(0%, 0%, 0%)" fill-opacity="1">
<use xlink:href="#glyph-0-0" x="364.892305" y="103.117192"/>
<use xlink:href="#glyph-0-1" x="371.659517" y="103.117192"/>
<use xlink:href="#glyph-0-2" x="377.183853" y="103.117192"/>
<use xlink:href="#glyph-0-3" x="382.708189" y="103.117192"/>
<use xlink:href="#glyph-0-4" x="385.470357" y="103.117192"/>
<use xlink:href="#glyph-0-5" x="388.232525" y="103.117192"/>
</g>
<g fill="rgb(0%, 0%, 0%)" fill-opacity="1">
<use xlink:href="#glyph-0-6" x="395.96222" y="103.117192"/>
<use xlink:href="#glyph-0-9" x="399.856897" y="103.117192"/>
<use xlink:href="#glyph-0-1" x="404.828401" y="103.117192"/>
<use xlink:href="#glyph-0-12" x="410.352737" y="103.117192"/>
<use xlink:href="#glyph-0-7" x="414.219574" y="103.117192"/>
</g>
<g fill="rgb(0%, 0%, 0%)" fill-opacity="1">
<use xlink:href="#glyph-1-6" x="339.565379" y="115.048805"/>
<use xlink:href="#glyph-1-4" x="344.785459" y="115.048805"/>
<use xlink:href="#glyph-1-10" x="350.005538" y="115.048805"/>
<use xlink:href="#glyph-1-2" x="355.225618" y="115.048805"/>
<use xlink:href="#glyph-1-2" x="360.445698" y="115.048805"/>
<use xlink:href="#glyph-1-18" x="365.665778" y="115.048805"/>
<use xlink:href="#glyph-1-0" x="370.885858" y="115.048805"/>
<use xlink:href="#glyph-1-6" x="376.105938" y="115.048805"/>
<use xlink:href="#glyph-1-7" x="381.326017" y="115.048805"/>
<use xlink:href="#glyph-1-13" x="386.546097" y="115.048805"/>
<use xlink:href="#glyph-1-15" x="391.766177" y="115.048805"/>
<use xlink:href="#glyph-1-5" x="396.986257" y="115.048805"/>
<use xlink:href="#glyph-1-18" x="402.206337" y="115.048805"/>
<use xlink:href="#glyph-1-19" x="407.426416" y="115.048805"/>
<use xlink:href="#glyph-1-20" x="412.646496" y="115.048805"/>
<use xlink:href="#glyph-1-7" x="417.866576" y="115.048805"/>
<use xlink:href="#glyph-1-1" x="423.086656" y="115.048805"/>
<use xlink:href="#glyph-1-0" x="428.306736" y="115.048805"/>
<use xlink:href="#glyph-1-4" x="433.526816" y="115.048805"/>
<use xlink:href="#glyph-1-8" x="438.746895" y="115.048805"/>
</g>
<path fill-rule="nonzero" fill="rgb(100%, 100%, 100%)" fill-opacity="1" stroke-width="0.3985" stroke-linecap="butt" stroke-linejoin="miter" stroke="rgb(0%, 0%, 0%)" stroke-opacity="1" stroke-miterlimit="10" d="M 454.451088 -54.387823 L 539.489746 -54.387823 L 539.489746 -26.038995 L 454.451088 -26.038995 Z M 454.451088 -54.387823 " transform="matrix(0.99803, 0, 0, -0.99803, 57.432663, 66.629501)"/>
<g fill="rgb(0%, 0%, 0%)" fill-opacity="1">
<use xlink:href="#glyph-0-26" x="519.036423" y="109.221021"/>
<use xlink:href="#glyph-0-27" x="526.49368" y="109.221021"/>
<use xlink:href="#glyph-0-27" x="533.674521" y="109.221021"/>
<use xlink:href="#glyph-0-0" x="540.855362" y="109.221021"/>
</g>
<g fill="rgb(0%, 0%, 0%)" fill-opacity="1">
<use xlink:href="#glyph-0-6" x="550.933597" y="109.221021"/>
<use xlink:href="#glyph-0-7" x="554.828273" y="109.221021"/>
<use xlink:href="#glyph-0-20" x="559.246947" y="109.221021"/>
<use xlink:href="#glyph-0-8" x="563.168469" y="109.221021"/>
</g>
<g fill="rgb(0%, 0%, 0%)" fill-opacity="1">
<use xlink:href="#glyph-0-9" x="568.971209" y="109.221021"/>
<use xlink:href="#glyph-0-17" x="573.942714" y="109.221021"/>
<use xlink:href="#glyph-0-20" x="579.46705" y="109.221021"/>
<use xlink:href="#glyph-0-7" x="583.388573" y="109.221021"/>
</g>
<path fill-rule="nonzero" fill="rgb(100%, 100%, 100%)" fill-opacity="1" stroke-width="0.3985" stroke-linecap="butt" stroke-linejoin="miter" stroke="rgb(0%, 0%, 0%)" stroke-opacity="1" stroke-miterlimit="10" d="M 624.927628 -54.575693 L 726.976365 -54.575693 L 726.976365 -25.851125 L 624.927628 -25.851125 Z M 624.927628 -54.575693 " transform="matrix(0.99803, 0, 0, -0.99803, 57.432663, 66.629501)"/>
<g fill="rgb(0%, 0%, 0%)" fill-opacity="1">
<use xlink:href="#glyph-0-26" x="708.645991" y="103.25529"/>
<use xlink:href="#glyph-0-27" x="716.103247" y="103.25529"/>
<use xlink:href="#glyph-0-27" x="723.284089" y="103.25529"/>
<use xlink:href="#glyph-0-0" x="730.46493" y="103.25529"/>
</g>
<g fill="rgb(0%, 0%, 0%)" fill-opacity="1">
<use xlink:href="#glyph-0-28" x="740.543164" y="103.25529"/>
<use xlink:href="#glyph-0-29" x="745.514669" y="103.25529"/>
<use xlink:href="#glyph-0-28" x="750.486173" y="103.25529"/>
</g>
<g fill="rgb(0%, 0%, 0%)" fill-opacity="1">
<use xlink:href="#glyph-0-17" x="696.838502" y="115.186903"/>
<use xlink:href="#glyph-0-9" x="702.362838" y="115.186903"/>
</g>
<g fill="rgb(0%, 0%, 0%)" fill-opacity="1">
<use xlink:href="#glyph-0-9" x="710.645365" y="115.186903"/>
<use xlink:href="#glyph-0-2" x="715.61687" y="115.186903"/>
</g>
<g fill="rgb(0%, 0%, 0%)" fill-opacity="1">
<use xlink:href="#glyph-0-19" x="721.41961" y="115.186903"/>
<use xlink:href="#glyph-0-7" x="724.458193" y="115.186903"/>
<use xlink:href="#glyph-0-5" x="728.876867" y="115.186903"/>
<use xlink:href="#glyph-0-12" x="733.29554" y="115.186903"/>
</g>
<g fill="rgb(0%, 0%, 0%)" fill-opacity="1">
<use xlink:href="#glyph-0-30" x="740.473398" y="115.186903"/>
<use xlink:href="#glyph-0-11" x="748.758908" y="115.186903"/>
<use xlink:href="#glyph-0-12" x="753.730412" y="115.186903"/>
<use xlink:href="#glyph-0-5" x="757.597249" y="115.186903"/>
</g>
<g fill="rgb(0%, 0%, 0%)" fill-opacity="1">
<use xlink:href="#glyph-0-31" x="761.747461" y="115.186903"/>
</g>
<path fill-rule="nonzero" fill="rgb(83.529663%, 92.156982%, 81.176758%)" fill-opacity="1" stroke-width="0.3985" stroke-linecap="butt" stroke-linejoin="miter" stroke="rgb(0%, 0%, 0%)" stroke-opacity="1" stroke-miterlimit="10" d="M 624.927628 19.903094 L 726.976365 19.903094 L 726.976365 60.584818 L 624.927628 60.584818 Z M 624.927628 19.903094 " transform="matrix(0.99803, 0, 0, -0.99803, 57.432663, 66.629501)"/>
<g fill="rgb(0%, 0%, 0%)" fill-opacity="1">
<use xlink:href="#glyph-0-26" x="708.64603" y="16.991234"/>
<use xlink:href="#glyph-0-27" x="716.103287" y="16.991234"/>
<use xlink:href="#glyph-0-27" x="723.284129" y="16.991234"/>
<use xlink:href="#glyph-0-0" x="730.46497" y="16.991234"/>
</g>
<g fill="rgb(0%, 0%, 0%)" fill-opacity="1">
<use xlink:href="#glyph-0-32" x="740.543204" y="16.991234"/>
<use xlink:href="#glyph-0-29" x="745.514708" y="16.991234"/>
<use xlink:href="#glyph-0-29" x="750.486213" y="16.991234"/>
</g>
<g fill="rgb(0%, 0%, 0%)" fill-opacity="1">
<use xlink:href="#glyph-0-8" x="699.848919" y="28.922847"/>
<use xlink:href="#glyph-0-11" x="705.373255" y="28.922847"/>
<use xlink:href="#glyph-0-12" x="710.344759" y="28.922847"/>
<use xlink:href="#glyph-0-5" x="714.211596" y="28.922847"/>
</g>
<g fill="rgb(0%, 0%, 0%)" fill-opacity="1">
<use xlink:href="#glyph-0-31" x="718.361808" y="28.922847"/>
</g>
<g fill="rgb(0%, 0%, 0%)" fill-opacity="1">
<use xlink:href="#glyph-0-6" x="727.187223" y="28.922847"/>
<use xlink:href="#glyph-0-7" x="731.081899" y="28.922847"/>
<use xlink:href="#glyph-0-12" x="735.500573" y="28.922847"/>
<use xlink:href="#glyph-0-1" x="739.367409" y="28.922847"/>
<use xlink:href="#glyph-0-6" x="744.891745" y="28.922847"/>
<use xlink:href="#glyph-0-17" x="748.786421" y="28.922847"/>
<use xlink:href="#glyph-0-7" x="754.310757" y="28.922847"/>
<use xlink:href="#glyph-0-33" x="758.729431" y="28.922847"/>
</g>
<g fill="rgb(0%, 0%, 0%)" fill-opacity="1">
<use xlink:href="#glyph-0-9" x="700.497788" y="40.85446"/>
<use xlink:href="#glyph-0-2" x="705.469292" y="40.85446"/>
</g>
<g fill="rgb(0%, 0%, 0%)" fill-opacity="1">
<use xlink:href="#glyph-0-19" x="711.26209" y="40.85446"/>
<use xlink:href="#glyph-0-7" x="714.300673" y="40.85446"/>
<use xlink:href="#glyph-0-5" x="718.719346" y="40.85446"/>
<use xlink:href="#glyph-0-12" x="723.13802" y="40.85446"/>
</g>
<g fill="rgb(0%, 0%, 0%)" fill-opacity="1">
<use xlink:href="#glyph-0-6" x="730.325821" y="40.85446"/>
<use xlink:href="#glyph-0-7" x="734.220498" y="40.85446"/>
<use xlink:href="#glyph-0-20" x="738.639171" y="40.85446"/>
<use xlink:href="#glyph-0-9" x="742.560694" y="40.85446"/>
<use xlink:href="#glyph-0-3" x="747.532198" y="40.85446"/>
<use xlink:href="#glyph-0-10" x="750.294366" y="40.85446"/>
</g>
<g fill="rgb(0%, 0%, 0%)" fill-opacity="1">
<use xlink:href="#glyph-0-7" x="755.273825" y="40.85446"/>
<use xlink:href="#glyph-0-20" x="759.692499" y="40.85446"/>
</g>
<path fill-rule="nonzero" fill="rgb(95.684814%, 78.039551%, 72.155762%)" fill-opacity="1" stroke-width="0.3985" stroke-linecap="butt" stroke-linejoin="miter" stroke="rgb(0%, 0%, 0%)" stroke-opacity="1" stroke-miterlimit="10" d="M 619.26021 -129.665059 L 732.647697 -129.665059 L 732.647697 -100.329912 L 619.26021 -100.329912 Z M 619.26021 -129.665059 " transform="matrix(0.99803, 0, 0, -0.99803, 57.432663, 66.629501)"/>
<g fill="rgb(0%, 0%, 0%)" fill-opacity="1">
<use xlink:href="#glyph-0-26" x="695.112221" y="178.195553"/>
<use xlink:href="#glyph-0-27" x="702.569478" y="178.195553"/>
<use xlink:href="#glyph-0-27" x="709.750319" y="178.195553"/>
<use xlink:href="#glyph-0-0" x="716.93116" y="178.195553"/>
</g>
<g fill="rgb(0%, 0%, 0%)" fill-opacity="1">
<use xlink:href="#glyph-0-28" x="727.009394" y="178.195553"/>
<use xlink:href="#glyph-0-32" x="731.980899" y="178.195553"/>
<use xlink:href="#glyph-0-34" x="736.952403" y="178.195553"/>
</g>
<g fill="rgb(0%, 0%, 0%)" fill-opacity="1">
<use xlink:href="#glyph-0-35" x="745.23493" y="178.195553"/>
</g>
<g fill="rgb(0%, 0%, 0%)" fill-opacity="1">
<use xlink:href="#glyph-0-36" x="753.5274" y="178.195553"/>
<use xlink:href="#glyph-0-37" x="758.498904" y="178.195553"/>
<use xlink:href="#glyph-0-37" x="763.746824" y="178.195553"/>
</g>
<g fill="rgb(0%, 0%, 0%)" fill-opacity="1">
<use xlink:href="#glyph-0-6" x="701.2158" y="190.127166"/>
<use xlink:href="#glyph-0-7" x="705.110477" y="190.127166"/>
<use xlink:href="#glyph-0-12" x="709.52915" y="190.127166"/>
<use xlink:href="#glyph-0-6" x="713.395986" y="190.127166"/>
<use xlink:href="#glyph-0-38" x="717.290663" y="190.127166"/>
</g>
<g fill="rgb(0%, 0%, 0%)" fill-opacity="1">
<use xlink:href="#glyph-0-5" x="725.849605" y="190.127166"/>
<use xlink:href="#glyph-0-11" x="730.268279" y="190.127166"/>
<use xlink:href="#glyph-0-6" x="735.239783" y="190.127166"/>
<use xlink:href="#glyph-0-7" x="739.13446" y="190.127166"/>
<use xlink:href="#glyph-0-13" x="743.553133" y="190.127166"/>
<use xlink:href="#glyph-0-1" x="746.591717" y="190.127166"/>
<use xlink:href="#glyph-0-3" x="752.116053" y="190.127166"/>
<use xlink:href="#glyph-0-3" x="754.878221" y="190.127166"/>
<use xlink:href="#glyph-0-38" x="757.640389" y="190.127166"/>
</g>
<path fill="none" stroke-width="0.79701" stroke-linecap="butt" stroke-linejoin="miter" stroke="rgb(0%, 0%, 0%)" stroke-opacity="1" stroke-miterlimit="10" d="M 51.222957 0.000596058 L 69.606837 -20.751232 " transform="matrix(0.99803, 0, 0, -0.99803, 57.432663, 66.629501)"/>
<path fill-rule="nonzero" fill="rgb(0%, 0%, 0%)" fill-opacity="1" stroke-width="0.79701" stroke-linecap="butt" stroke-linejoin="miter" stroke="rgb(0%, 0%, 0%)" stroke-opacity="1" stroke-miterlimit="10" d="M 4.534695 -0.000126491 C 3.977309 0.138063 1.528611 0.921574 0.0019975 1.771969 L 0.000147182 -1.771846 C 1.529102 -0.91957 3.977449 -0.139213 4.534695 -0.000126491 Z M 4.534695 -0.000126491 " transform="matrix(0.661753, 0.746995, 0.746995, -0.661753, 126.901588, 87.339084)"/>
<path fill="none" stroke-width="0.79701" stroke-linecap="butt" stroke-linejoin="miter" stroke="rgb(0%, 0%, 0%)" stroke-opacity="1" stroke-miterlimit="10" d="M 51.258182 -80.4235 L 69.610751 -59.6795 " transform="matrix(0.99803, 0, 0, -0.99803, 57.432663, 66.629501)"/>
<path fill-rule="nonzero" fill="rgb(0%, 0%, 0%)" fill-opacity="1" stroke-width="0.79701" stroke-linecap="butt" stroke-linejoin="miter" stroke="rgb(0%, 0%, 0%)" stroke-opacity="1" stroke-miterlimit="10" d="M 4.533569 0.000325763 C 3.976442 0.139843 1.52875 0.92209 0.00014903 1.770014 L -0.000758244 -1.773734 C 1.529419 -0.921949 3.976086 -0.137428 4.533569 0.000325763 Z M 4.533569 0.000325763 " transform="matrix(0.661185, -0.747524, -0.747524, -0.661185, 126.905061, 126.189949)"/>
<path fill="none" stroke-width="0.79701" stroke-linecap="butt" stroke-linejoin="miter" stroke="rgb(0%, 0%, 0%)" stroke-opacity="1" stroke-miterlimit="10" d="M 215.738531 -40.211452 L 260.584711 -40.211452 " transform="matrix(0.99803, 0, 0, -0.99803, 57.432663, 66.629501)"/>
<path fill-rule="nonzero" fill="rgb(0%, 0%, 0%)" fill-opacity="1" stroke-width="0.79701" stroke-linecap="butt" stroke-linejoin="miter" stroke="rgb(0%, 0%, 0%)" stroke-opacity="1" stroke-miterlimit="10" d="M 4.535403 0.00120799 C 3.975706 0.138197 1.52948 0.920989 -0.000879256 1.770319 L -0.000879256 -1.771817 C 1.52948 -0.918573 3.975706 -0.139695 4.535403 0.00120799 Z M 4.535403 0.00120799 " transform="matrix(0.99803, 0, 0, -0.99803, 317.504784, 106.762924)"/>
<path fill="none" stroke-width="0.79701" stroke-linecap="butt" stroke-linejoin="miter" stroke="rgb(0%, 0%, 0%)" stroke-opacity="1" stroke-miterlimit="10" d="M 403.225151 -40.211452 L 448.07133 -40.211452 " transform="matrix(0.99803, 0, 0, -0.99803, 57.432663, 66.629501)"/>
<path fill-rule="nonzero" fill="rgb(0%, 0%, 0%)" fill-opacity="1" stroke-width="0.79701" stroke-linecap="butt" stroke-linejoin="miter" stroke="rgb(0%, 0%, 0%)" stroke-opacity="1" stroke-miterlimit="10" d="M 4.534522 0.00120799 C 3.97874 0.138197 1.528599 0.920989 -0.00175999 1.770319 L -0.00175999 -1.771817 C 1.528599 -0.918573 3.97874 -0.139695 4.534522 0.00120799 Z M 4.534522 0.00120799 " transform="matrix(0.99803, 0, 0, -0.99803, 504.62285, 106.762924)"/>
<path fill="none" stroke-width="0.79701" stroke-linecap="butt" stroke-linejoin="miter" stroke="rgb(0%, 0%, 0%)" stroke-opacity="1" stroke-miterlimit="10" d="M 539.689358 -40.211452 L 571.779935 -40.211452 " transform="matrix(0.99803, 0, 0, -0.99803, 57.432663, 66.629501)"/>
<path fill-rule="nonzero" fill="rgb(0%, 0%, 0%)" fill-opacity="1" stroke-width="0.79701" stroke-linecap="butt" stroke-linejoin="miter" stroke="rgb(0%, 0%, 0%)" stroke-opacity="1" stroke-miterlimit="10" d="M 4.532333 0.00119799 C 3.97655 0.138187 1.530324 0.920979 -0.0000354467 1.770309 L -0.0000354467 -1.771827 C 1.530324 -0.918583 3.97655 -0.139705 4.532333 0.00119799 Z M 4.532333 0.00119799 " transform="matrix(0.99803, 0, 0, -0.99803, 628.085973, 106.762914)"/>
<path fill="none" stroke-width="0.79701" stroke-linecap="butt" stroke-linejoin="miter" stroke="rgb(0%, 0%, 0%)" stroke-opacity="1" stroke-miterlimit="10" d="M 577.956167 -40.211452 L 618.551783 -40.211452 " transform="matrix(0.99803, 0, 0, -0.99803, 57.432663, 66.629501)"/>
<path fill-rule="nonzero" fill="rgb(0%, 0%, 0%)" fill-opacity="1" stroke-width="0.79701" stroke-linecap="butt" stroke-linejoin="miter" stroke="rgb(0%, 0%, 0%)" stroke-opacity="1" stroke-miterlimit="10" d="M 4.535566 0.00120799 C 3.975869 0.138197 1.529643 0.920989 -0.000716668 1.770319 L -0.000716668 -1.771817 C 1.529643 -0.918573 3.975869 -0.139695 4.535566 0.00120799 Z M 4.535566 0.00120799 " transform="matrix(0.99803, 0, 0, -0.99803, 674.76634, 106.762924)"/>
<path fill="none" stroke-width="0.79701" stroke-linecap="butt" stroke-linejoin="miter" stroke="rgb(0%, 0%, 0%)" stroke-opacity="1" stroke-miterlimit="10" d="M 577.956167 -40.211452 L 577.956167 40.243956 L 618.551783 40.243956 " transform="matrix(0.99803, 0, 0, -0.99803, 57.432663, 66.629501)"/>
<path fill-rule="nonzero" fill="rgb(0%, 0%, 0%)" fill-opacity="1" stroke-width="0.79701" stroke-linecap="butt" stroke-linejoin="miter" stroke="rgb(0%, 0%, 0%)" stroke-opacity="1" stroke-miterlimit="10" d="M 4.535566 -0.000244182 C 3.975869 0.136744 1.529643 0.919537 -0.000716668 1.772781 L -0.000716668 -1.773269 C 1.529643 -0.920025 3.975869 -0.137233 4.535566 -0.000244182 Z M 4.535566 -0.000244182 " transform="matrix(0.99803, 0, 0, -0.99803, 674.76634, 26.4646)"/>
<path fill="none" stroke-width="0.79701" stroke-linecap="butt" stroke-linejoin="miter" stroke="rgb(0%, 0%, 0%)" stroke-opacity="1" stroke-miterlimit="10" d="M 577.956167 -40.211452 L 577.956167 -114.995529 L 612.884366 -114.995529 " transform="matrix(0.99803, 0, 0, -0.99803, 57.432663, 66.629501)"/>
<path fill-rule="nonzero" fill="rgb(0%, 0%, 0%)" fill-opacity="1" stroke-width="0.79701" stroke-linecap="butt" stroke-linejoin="miter" stroke="rgb(0%, 0%, 0%)" stroke-opacity="1" stroke-miterlimit="10" d="M 4.533604 0.000851459 C 3.977822 0.13784 1.527681 0.920633 0.00123601 1.773876 L 0.00123601 -1.772173 C 1.527681 -0.91893 3.977822 -0.136137 4.533604 0.000851459 Z M 4.533604 0.000851459 " transform="matrix(0.99803, 0, 0, -0.99803, 669.108141, 181.399287)"/>
<g fill="rgb(0%, 0%, 0%)" fill-opacity="1">
<use xlink:href="#glyph-2-0" x="292.080111" y="69.863855"/>
<use xlink:href="#glyph-2-1" x="297.189823" y="69.863855"/>
<use xlink:href="#glyph-2-2" x="300.787204" y="69.863855"/>
<use xlink:href="#glyph-2-3" x="303.34206" y="69.863855"/>
</g>
<g fill="rgb(0%, 0%, 0%)" fill-opacity="1">
<use xlink:href="#glyph-2-4" x="307.685763" y="69.863855"/>
<use xlink:href="#glyph-2-5" x="312.284504" y="69.863855"/>
<use xlink:href="#glyph-2-6" x="315.861303" y="69.863855"/>
<use xlink:href="#glyph-2-7" x="319.952652" y="69.863855"/>
<use xlink:href="#glyph-2-8" x="323.01848" y="69.863855"/>
<use xlink:href="#glyph-2-9" x="325.828374" y="69.863855"/>
<use xlink:href="#glyph-2-1" x="330.427115" y="69.863855"/>
<use xlink:href="#glyph-2-10" x="334.024496" y="69.863855"/>
</g>
<g fill="rgb(0%, 0%, 0%)" fill-opacity="1">
<use xlink:href="#glyph-2-9" x="341.938734" y="69.863855"/>
<use xlink:href="#glyph-2-11" x="346.537475" y="69.863855"/>
</g>
<g fill="rgb(0%, 0%, 0%)" fill-opacity="1">
<use xlink:href="#glyph-2-12" x="351.9067" y="69.863855"/>
<use xlink:href="#glyph-2-6" x="354.716594" y="69.863855"/>
<use xlink:href="#glyph-2-13" x="358.807943" y="69.863855"/>
<use xlink:href="#glyph-2-5" x="362.895713" y="69.863855"/>
</g>
<g fill="rgb(0%, 0%, 0%)" fill-opacity="1">
<use xlink:href="#glyph-2-1" x="369.53297" y="69.863855"/>
<use xlink:href="#glyph-2-6" x="373.130351" y="69.863855"/>
<use xlink:href="#glyph-2-4" x="377.2217" y="69.863855"/>
<use xlink:href="#glyph-2-13" x="381.820442" y="69.863855"/>
</g>
<g fill="rgb(0%, 0%, 0%)" fill-opacity="1">
<use xlink:href="#glyph-2-14" x="385.666596" y="69.863855"/>
<use xlink:href="#glyph-2-6" x="390.776309" y="69.863855"/>
<use xlink:href="#glyph-2-15" x="394.867658" y="69.863855"/>
</g>
<g fill="rgb(0%, 0%, 0%)" fill-opacity="1">
<use xlink:href="#glyph-2-5" x="403.02888" y="69.863855"/>
<use xlink:href="#glyph-2-14" x="406.605679" y="69.863855"/>
<use xlink:href="#glyph-2-1" x="411.715391" y="69.863855"/>
<use xlink:href="#glyph-2-9" x="415.312772" y="69.863855"/>
<use xlink:href="#glyph-2-16" x="419.911513" y="69.863855"/>
<use xlink:href="#glyph-2-17" x="425.021226" y="69.863855"/>
<use xlink:href="#glyph-2-14" x="429.619967" y="69.863855"/>
</g>
<g fill="rgb(0%, 0%, 0%)" fill-opacity="1">
<use xlink:href="#glyph-2-4" x="437.799086" y="69.863855"/>
</g>
<g fill="rgb(0%, 0%, 0%)" fill-opacity="1">
<use xlink:href="#glyph-2-0" x="445.458286" y="69.863855"/>
<use xlink:href="#glyph-2-16" x="450.567998" y="69.863855"/>
<use xlink:href="#glyph-2-11" x="455.67771" y="69.863855"/>
<use xlink:href="#glyph-2-18" x="460.787423" y="69.863855"/>
<use xlink:href="#glyph-2-2" x="463.342279" y="69.863855"/>
<use xlink:href="#glyph-2-13" x="465.897135" y="69.863855"/>
</g>
<g fill="rgb(0%, 0%, 0%)" fill-opacity="1">
<use xlink:href="#glyph-2-0" x="473.054312" y="69.863855"/>
<use xlink:href="#glyph-2-4" x="478.164025" y="69.863855"/>
<use xlink:href="#glyph-2-5" x="482.762766" y="69.863855"/>
<use xlink:href="#glyph-2-14" x="486.339564" y="69.863855"/>
</g>
<path fill="none" stroke-width="0.79701" stroke-linecap="butt" stroke-linejoin="miter" stroke="rgb(0%, 0%, 0%)" stroke-opacity="1" stroke-dasharray="2.98883 2.98883" stroke-miterlimit="10" d="M 334.993047 -14.171861 L 334.993047 -19.334377 " transform="matrix(0.99803, 0, 0, -0.99803, 57.432663, 66.629501)"/>
<path fill-rule="nonzero" fill="rgb(0%, 0%, 0%)" fill-opacity="1" stroke-width="0.79701" stroke-linecap="butt" stroke-linejoin="miter" stroke="rgb(0%, 0%, 0%)" stroke-opacity="1" stroke-miterlimit="10" d="M 4.53547 -0.00108309 C 3.975773 0.13982 1.529547 0.918698 -0.000812588 1.771942 L -0.000812588 -1.770194 C 1.529547 -0.920864 3.975773 -0.138072 4.53547 -0.00108309 Z M 4.53547 -0.00108309 " transform="matrix(0, 0.99803, 0.99803, 0, 391.766706, 85.926592)"/>
</svg>
