<svg xmlns="http://www.w3.org/2000/svg" width="1200" height="900" viewBox="0 0 1200 900">
  <defs>
    <linearGradient id="g" x1="0" y1="0" x2="1" y2="1">
      <stop offset="0" stop-color="#f7f7f5"/>
      <stop offset="1" stop-color="#e9e9e6"/>
    </linearGradient>
    <pattern id="p" width="22" height="22" patternUnits="userSpaceOnUse" patternTransform="rotate(18)">
      <line x1="0" y1="0" x2="0" y2="22" stroke="#000" stroke-opacity="0.06" stroke-width="6"/>
    </pattern>
  </defs>

  <rect width="1200" height="900" fill="url(#g)"/>
  <rect width="1200" height="900" fill="url(#p)" opacity="0.55"/>

  <rect x="56" y="56" width="1088" height="788" rx="34" fill="none" stroke="#000" stroke-opacity="0.14" stroke-width="6"/>
  <rect x="88" y="88" width="1024" height="724" rx="28" fill="#fff" fill-opacity="0.5" stroke="#000" stroke-opacity="0.08" stroke-width="2"/>

  <text x="120" y="210" fill="#000" font-size="72" font-weight="850" font-family="Outfit, ui-sans-serif, system-ui, sans-serif" letter-spacing="-1.5">
    Cobalt Wash Player UI
  </text>
  <text x="120" y="270" fill="#000" opacity="0.62" font-size="26" font-weight="520" font-family="Outfit, ui-sans-serif, system-ui, sans-serif">
    SSE-driven interface + drifting background wash
  </text>

  <g transform="translate(120 340)" fill="none" stroke="#000" stroke-opacity="0.14">
    <rect x="0" y="0" width="420" height="280" rx="22" stroke-width="4"/>
    <rect x="28" y="34" width="110" height="110" rx="18" stroke-width="3"/>
    <rect x="160" y="44" width="220" height="18" rx="9" stroke-width="3"/>
    <rect x="160" y="78" width="180" height="14" rx="7" stroke-width="3"/>
    <rect x="28" y="168" width="352" height="14" rx="7" stroke-width="3"/>
    <rect x="28" y="198" width="312" height="14" rx="7" stroke-width="3"/>
    <rect x="28" y="228" width="260" height="14" rx="7" stroke-width="3"/>
  </g>

  <text x="120" y="780" fill="#000" opacity="0.55" font-size="18" font-weight="520" font-family="Outfit, ui-sans-serif, system-ui, sans-serif" letter-spacing="2">
    02LABS
  </text>
</svg>

