<svg xmlns="http://www.w3.org/2000/svg" width="1200" height="900" viewBox="0 0 1200 900">
  <defs>
    <linearGradient id="g" x1="0" y1="0" x2="1" y2="1">
      <stop offset="0" stop-color="#f7f7f5"/>
      <stop offset="1" stop-color="#e9e9e6"/>
    </linearGradient>
  </defs>

  <rect width="1200" height="900" fill="url(#g)"/>
  <rect x="56" y="56" width="1088" height="788" rx="34" fill="none" stroke="#000" stroke-opacity="0.14" stroke-width="6"/>

  <text x="120" y="210" fill="#000" font-size="72" font-weight="850" font-family="Outfit, ui-sans-serif, system-ui, sans-serif" letter-spacing="-1.5">
    Forecasting Kit
  </text>
  <text x="120" y="270" fill="#000" opacity="0.62" font-size="26" font-weight="520" font-family="Outfit, ui-sans-serif, system-ui, sans-serif">
    Baselines + evaluation + exportable artifacts
  </text>

  <g transform="translate(120 330)">
    <rect x="0" y="0" width="960" height="420" rx="28" fill="#fff" fill-opacity="0.55" stroke="#000" stroke-opacity="0.10" stroke-width="2"/>
    <g transform="translate(70 70)" fill="none" stroke="#000" stroke-opacity="0.18" stroke-width="4" stroke-linecap="round" stroke-linejoin="round">
      <path d="M0 280 C120 180, 200 220, 320 120 S560 140, 680 60 S860 40, 820 0"/>
      <path d="M0 240 C140 200, 220 210, 340 150 S580 130, 700 110 S860 120, 820 80" stroke-opacity="0.10"/>
    </g>
  </g>

  <text x="120" y="780" fill="#000" opacity="0.55" font-size="18" font-weight="520" font-family="Outfit, ui-sans-serif, system-ui, sans-serif" letter-spacing="2">
    02LABS
  </text>
</svg>

