<svg xmlns="http://www.w3.org/2000/svg" width="1200" height="900" viewBox="0 0 1200 900">
  <defs>
    <linearGradient id="g" x1="0" y1="0" x2="1" y2="1">
      <stop offset="0" stop-color="#f7f7f5"/>
      <stop offset="1" stop-color="#e9e9e6"/>
    </linearGradient>
  </defs>

  <rect width="1200" height="900" fill="url(#g)"/>
  <rect x="56" y="56" width="1088" height="788" rx="34" fill="none" stroke="#000" stroke-opacity="0.14" stroke-width="6"/>

  <text x="120" y="210" fill="#000" font-size="72" font-weight="850" font-family="Outfit, ui-sans-serif, system-ui, sans-serif" letter-spacing="-1.5">
    OSINT Writeups
  </text>
  <text x="120" y="270" fill="#000" opacity="0.62" font-size="26" font-weight="520" font-family="Outfit, ui-sans-serif, system-ui, sans-serif">
    Reproducible investigations + clean methodology
  </text>

  <g transform="translate(120 330)">
    <rect x="0" y="0" width="960" height="420" rx="28" fill="#fff" fill-opacity="0.55" stroke="#000" stroke-opacity="0.10" stroke-width="2"/>
    <g transform="translate(40 44)" fill="#000" opacity="0.62" font-family="ui-monospace, SFMono-Regular, Menlo, Monaco, Consolas, Liberation Mono, Courier New, monospace" font-size="18">
      <text x="0" y="0">exiftool sky.jpg</text>
      <text x="0" y="34">T_UTC = 2026-01-19 17:18:43Z</text>
      <text x="0" y="68">replay ADS-B around Rainier</text>
      <text x="0" y="102">filter candidates by angular constraints</text>
      <text x="0" y="136">verify marketed flight + carousel</text>
    </g>
    <g fill="none" stroke="#000" stroke-opacity="0.14" stroke-width="3" transform="translate(40 210)">
      <rect x="0" y="0" width="880" height="14" rx="7"/>
      <rect x="0" y="32" width="820" height="14" rx="7"/>
      <rect x="0" y="64" width="780" height="14" rx="7"/>
      <rect x="0" y="96" width="740" height="14" rx="7"/>
      <rect x="0" y="128" width="700" height="14" rx="7"/>
      <rect x="0" y="160" width="640" height="14" rx="7"/>
    </g>
  </g>

  <text x="120" y="780" fill="#000" opacity="0.55" font-size="18" font-weight="520" font-family="Outfit, ui-sans-serif, system-ui, sans-serif" letter-spacing="2">
    02LABS
  </text>
</svg>

